Rajdhani-SemiBold.ufo
<glyph name="numbersign" format="2">
  <advance width="672"/>
  <unicode hex="0023"/>
  <outline>
    <contour>
      <point x="386" y="230" type="line"/>
      <point x="244" y="230" type="line"/>
      <point x="291" y="413" type="line"/>
      <point x="433" y="413" type="line"/>
    </contour>
    <contour>
      <point x="534" y="493" type="line"/>
      <point x="568" y="623" type="line" smooth="yes"/>
      <point x="571" y="637"/>
      <point x="566" y="643"/>
      <point x="553" y="643" type="curve" smooth="yes"/>
      <point x="510" y="643" type="line" smooth="yes"/>
      <point x="497" y="643"/>
      <point x="491" y="638"/>
      <point x="488" y="625" type="curve" smooth="yes"/>
      <point x="454" y="493" type="line"/>
      <point x="312" y="493" type="line"/>
      <point x="345" y="623" type="line" smooth="yes"/>
      <point x="349" y="637"/>
      <point x="344" y="643"/>
      <point x="331" y="643" type="curve" smooth="yes"/>
      <point x="285" y="643" type="line" smooth="yes"/>
      <point x="273" y="643"/>
      <point x="268" y="637"/>
      <point x="266" y="625" type="curve"/>
      <point x="232" y="493" type="line"/>
      <point x="116" y="493" type="line" smooth="yes"/>
      <point x="102" y="493"/>
      <point x="98" y="488"/>
      <point x="98" y="476" type="curve" smooth="yes"/>
      <point x="98" y="431" type="line" smooth="yes"/>
      <point x="98" y="419"/>
      <point x="102" y="413"/>
      <point x="116" y="413" type="curve" smooth="yes"/>
      <point x="211" y="413" type="line"/>
      <point x="164" y="230" type="line"/>
      <point x="60" y="230" type="line" smooth="yes"/>
      <point x="47" y="230"/>
      <point x="43" y="224"/>
      <point x="43" y="212" type="curve" smooth="yes"/>
      <point x="43" y="167" type="line" smooth="yes"/>
      <point x="43" y="156"/>
      <point x="47" y="150"/>
      <point x="60" y="150" type="curve" smooth="yes"/>
      <point x="144" y="150" type="line"/>
      <point x="110" y="20" type="line" smooth="yes"/>
      <point x="106" y="6"/>
      <point x="112" y="0"/>
      <point x="123" y="0" type="curve" smooth="yes"/>
      <point x="168" y="0" type="line" smooth="yes"/>
      <point x="181" y="0"/>
      <point x="186" y="5"/>
      <point x="190" y="18" type="curve" smooth="yes"/>
      <point x="224" y="150" type="line"/>
      <point x="366" y="150" type="line"/>
      <point x="332" y="20" type="line" smooth="yes"/>
      <point x="329" y="6"/>
      <point x="334" y="0"/>
      <point x="346" y="0" type="curve" smooth="yes"/>
      <point x="393" y="0" type="line" smooth="yes"/>
      <point x="405" y="0"/>
      <point x="409" y="6"/>
      <point x="412" y="18" type="curve" smooth="yes"/>
      <point x="446" y="150" type="line"/>
      <point x="557" y="150" type="line" smooth="yes"/>
      <point x="570" y="150"/>
      <point x="574" y="155"/>
      <point x="574" y="167" type="curve" smooth="yes"/>
      <point x="574" y="212" type="line" smooth="yes"/>
      <point x="574" y="224"/>
      <point x="570" y="230"/>
      <point x="557" y="230" type="curve" smooth="yes"/>
      <point x="467" y="230" type="line"/>
      <point x="514" y="413" type="line"/>
      <point x="613" y="413" type="line" smooth="yes"/>
      <point x="625" y="413"/>
      <point x="630" y="419"/>
      <point x="630" y="431" type="curve" smooth="yes"/>
      <point x="630" y="476" type="line" smooth="yes"/>
      <point x="630" y="487"/>
      <point x="625" y="493"/>
      <point x="613" y="493" type="curve" smooth="yes"/>
    </contour>
  </outline>
</glyph>
<glyph name="currency" format="2">
  <advance width="516"/>
  <unicode hex="00A4"/>
  <outline>
    <contour>
      <point x="239" y="203" type="line" smooth="yes"/>
      <point x="189" y="203"/>
      <point x="167" y="226"/>
      <point x="167" y="276" type="curve" smooth="yes"/>
      <point x="167" y="335" type="line" smooth="yes"/>
      <point x="167" y="385"/>
      <point x="189" y="408"/>
      <point x="239" y="408" type="curve" smooth="yes"/>
      <point x="277" y="408" type="line" smooth="yes"/>
      <point x="327" y="408"/>
      <point x="350" y="385"/>
      <point x="350" y="335" type="curve" smooth="yes"/>
      <point x="350" y="276" type="line" smooth="yes"/>
      <point x="350" y="226"/>
      <point x="327" y="203"/>
      <point x="277" y="203" type="curve" smooth="yes"/>
    </contour>
    <contour>
      <point x="429" y="192" type="line"/>
      <point x="440" y="214"/>
      <point x="446" y="241"/>
      <point x="446" y="273" type="curve" smooth="yes"/>
      <point x="446" y="345" type="line" smooth="yes"/>
      <point x="446" y="376"/>
      <point x="440" y="403"/>
      <point x="429" y="424" type="curve"/>
      <point x="487" y="479" type="line"/>
      <point x="497" y="490"/>
      <point x="496" y="497"/>
      <point x="486" y="506" type="curve"/>
      <point x="454" y="539" type="line" smooth="yes"/>
      <point x="444" y="549"/>
      <point x="437" y="550"/>
      <point x="427" y="539" type="curve"/>
      <point x="365" y="480" type="line"/>
      <point x="344" y="489"/>
      <point x="319" y="493"/>
      <point x="291" y="493" type="curve" smooth="yes"/>
      <point x="226" y="493" type="line" smooth="yes"/>
      <point x="198" y="493"/>
      <point x="173" y="489"/>
      <point x="152" y="481" type="curve"/>
      <point x="91" y="539" type="line"/>
      <point x="81" y="550"/>
      <point x="73" y="549"/>
      <point x="64" y="539" type="curve"/>
      <point x="31" y="506" type="line" smooth="yes"/>
      <point x="22" y="497"/>
      <point x="21" y="490"/>
      <point x="31" y="479" type="curve"/>
      <point x="88" y="425" type="line"/>
      <point x="76" y="404"/>
      <point x="70" y="377"/>
      <point x="70" y="345" type="curve" smooth="yes"/>
      <point x="70" y="273" type="line" smooth="yes"/>
      <point x="70" y="241"/>
      <point x="76" y="213"/>
      <point x="88" y="191" type="curve"/>
      <point x="31" y="136" type="line" smooth="yes"/>
      <point x="21" y="126"/>
      <point x="22" y="119"/>
      <point x="31" y="110" type="curve" smooth="yes"/>
      <point x="64" y="77" type="line"/>
      <point x="72" y="68"/>
      <point x="80" y="67"/>
      <point x="91" y="77" type="curve" smooth="yes"/>
      <point x="150" y="133" type="line"/>
      <point x="171" y="123"/>
      <point x="197" y="118"/>
      <point x="226" y="118" type="curve" smooth="yes"/>
      <point x="291" y="118" type="line" smooth="yes"/>
      <point x="320" y="118"/>
      <point x="346" y="123"/>
      <point x="367" y="133" type="curve"/>
      <point x="427" y="77" type="line" smooth="yes"/>
      <point x="437" y="67"/>
      <point x="445" y="68"/>
      <point x="454" y="77" type="curve" smooth="yes"/>
      <point x="486" y="110" type="line"/>
      <point x="496" y="119"/>
      <point x="497" y="126"/>
      <point x="486" y="136" type="curve" smooth="yes"/>
    </contour>
  </outline>
</glyph>
<glyph name="section" format="2">
  <advance width="476"/>
  <unicode hex="00A7"/>
  <outline>
    <contour>
      <point x="261" y="0" type="line" smooth="yes"/>
      <point x="370" y="0"/>
      <point x="416" y="54"/>
      <point x="416" y="136" type="curve" smooth="yes"/>
      <point x="416" y="308" type="line" smooth="yes"/>
      <point x="416" y="376"/>
      <point x="384" y="417"/>
      <point x="318" y="432" type="curve" smooth="yes"/>
      <point x="225" y="451" type="line" smooth="yes"/>
      <point x="171" y="462"/>
      <point x="158" y="479"/>
      <point x="158" y="507" type="curve" smooth="yes"/>
      <point x="158" y="542"/>
      <point x="179" y="558"/>
      <point x="213" y="558" type="curve" smooth="yes"/>
      <point x="374" y="558" type="line" smooth="yes"/>
      <point x="386" y="558"/>
      <point x="390" y="562"/>
      <point x="390" y="574" type="curve" smooth="yes"/>
      <point x="390" y="626" type="line" smooth="yes"/>
      <point x="390" y="637"/>
      <point x="386" y="643"/>
      <point x="374" y="643" type="curve" smooth="yes"/>
      <point x="210" y="643" type="line" smooth="yes"/>
      <point x="105" y="643"/>
      <point x="60" y="589"/>
      <point x="60" y="512" type="curve" smooth="yes"/>
      <point x="60" y="339" type="line" smooth="yes"/>
      <point x="60" y="270"/>
      <point x="94" y="226"/>
      <point x="157" y="212" type="curve" smooth="yes"/>
      <point x="251" y="193" type="line" smooth="yes"/>
      <point x="298" y="183"/>
      <point x="318" y="171"/>
      <point x="318" y="139" type="curve" smooth="yes"/>
      <point x="318" y="109"/>
      <point x="307" y="85"/>
      <point x="254" y="85" type="curve" smooth="yes"/>
      <point x="91" y="85" type="line" smooth="yes"/>
      <point x="78" y="85"/>
      <point x="73" y="81"/>
      <point x="73" y="69" type="curve" smooth="yes"/>
      <point x="73" y="17" type="line" smooth="yes"/>
      <point x="73" y="6"/>
      <point x="78" y="0"/>
      <point x="91" y="0" type="curve" smooth="yes"/>
    </contour>
    <contour>
      <point x="325" y="250" type="line"/>
      <point x="309" y="259"/>
      <point x="290" y="266"/>
      <point x="268" y="270" type="curve" smooth="yes"/>
      <point x="207" y="283" type="line" smooth="yes"/>
      <point x="166" y="292"/>
      <point x="151" y="316"/>
      <point x="151" y="345" type="curve" smooth="yes"/>
      <point x="151" y="395" type="line"/>
      <point x="168" y="385"/>
      <point x="187" y="379"/>
      <point x="207" y="374" type="curve" smooth="yes"/>
      <point x="270" y="360" type="line" smooth="yes"/>
      <point x="307" y="351"/>
      <point x="325" y="334"/>
      <point x="325" y="302" type="curve" smooth="yes"/>
    </contour>
  </outline>
</glyph>
<glyph name="onequarter" format="2">
  <advance width="712"/>
  <unicode hex="00BC"/>
  <outline>
    <contour>
      <point x="581" y="624" type="line" smooth="yes"/>
      <point x="589" y="635"/>
      <point x="584" y="643"/>
      <point x="572" y="643" type="curve" smooth="yes"/>
      <point x="538" y="643" type="line" smooth="yes"/>
      <point x="526" y="643"/>
      <point x="519" y="638"/>
      <point x="509" y="625" type="curve" smooth="yes"/>
      <point x="424" y="510"/>
      <point x="147" y="134"/>
      <point x="62" y="18" type="curve"/>
      <point x="53" y="7"/>
      <point x="59" y="0"/>
      <point x="71" y="0" type="curve" smooth="yes"/>
      <point x="103" y="0" type="line" smooth="yes"/>
      <point x="116" y="0"/>
      <point x="124" y="4"/>
      <point x="134" y="18" type="curve" smooth="yes"/>
    </contour>
    <contour>
      <point x="591" y="0" type="line" smooth="yes"/>
      <point x="599" y="0"/>
      <point x="602" y="2"/>
      <point x="602" y="10" type="curve" smooth="yes"/>
      <point x="602" y="67" type="line"/>
      <point x="642" y="67" type="line" smooth="yes"/>
      <point x="650" y="67"/>
      <point x="652" y="70"/>
      <point x="652" y="77" type="curve" smooth="yes"/>
      <point x="652" y="113" type="line" smooth="yes"/>
      <point x="652" y="120"/>
      <point x="650" y="123"/>
      <point x="642" y="123" type="curve" smooth="yes"/>
      <point x="602" y="123" type="line"/>
      <point x="602" y="326" type="line" smooth="yes"/>
      <point x="602" y="338"/>
      <point x="594" y="343"/>
      <point x="585" y="343" type="curve" smooth="yes"/>
      <point x="527" y="343" type="line" smooth="yes"/>
      <point x="515" y="343"/>
      <point x="511" y="339"/>
      <point x="505" y="328" type="curve" smooth="yes"/>
      <point x="392" y="124" type="line" smooth="yes"/>
      <point x="388" y="117"/>
      <point x="387" y="110"/>
      <point x="387" y="101" type="curve" smooth="yes"/>
      <point x="387" y="82" type="line" smooth="yes"/>
      <point x="387" y="72"/>
      <point x="393" y="67"/>
      <point x="403" y="67" type="curve" smooth="yes"/>
      <point x="541" y="67" type="line"/>
      <point x="541" y="10" type="line" smooth="yes"/>
      <point x="541" y="3"/>
      <point x="544" y="0"/>
      <point x="552" y="0" type="curve" smooth="yes"/>
    </contour>
    <contour>
      <point x="541" y="292" type="line"/>
      <point x="541" y="123" type="line"/>
      <point x="448" y="123" type="line"/>
    </contour>
    <contour>
      <point x="94" y="576" type="line"/>
      <point x="94" y="310" type="line" smooth="yes"/>
      <point x="94" y="303"/>
      <point x="98" y="300"/>
      <point x="104" y="300" type="curve" smooth="yes"/>
      <point x="152" y="300" type="line" smooth="yes"/>
      <point x="159" y="300"/>
      <point x="162" y="302"/>
      <point x="162" y="310" type="curve" smooth="yes"/>
      <point x="162" y="633" type="line" smooth="yes"/>
      <point x="162" y="640"/>
      <point x="158" y="643"/>
      <point x="152" y="643" type="curve" smooth="yes"/>
      <point x="107" y="643" type="line" smooth="yes"/>
      <point x="99" y="643"/>
      <point x="94" y="640"/>
      <point x="88" y="637" type="curve"/>
      <point x="35" y="605" type="line" smooth="yes"/>
      <point x="28" y="601"/>
      <point x="26" y="598"/>
      <point x="26" y="590" type="curve" smooth="yes"/>
      <point x="26" y="550" type="line" smooth="yes"/>
      <point x="26" y="543"/>
      <point x="30" y="539"/>
      <point x="39" y="544" type="curve" smooth="yes"/>
    </contour>
  </outline>
</glyph>
<glyph name="onehalf" format="2">
  <advance width="726"/>
  <unicode hex="00BD"/>
  <outline>
    <contour>
      <point x="581" y="624" type="line" smooth="yes"/>
      <point x="589" y="635"/>
      <point x="584" y="643"/>
      <point x="572" y="643" type="curve" smooth="yes"/>
      <point x="538" y="643" type="line" smooth="yes"/>
      <point x="526" y="643"/>
      <point x="519" y="638"/>
      <point x="509" y="625" type="curve" smooth="yes"/>
      <point x="424" y="510"/>
      <point x="147" y="134"/>
      <point x="62" y="18" type="curve"/>
      <point x="53" y="7"/>
      <point x="59" y="0"/>
      <point x="71" y="0" type="curve" smooth="yes"/>
      <point x="103" y="0" type="line" smooth="yes"/>
      <point x="116" y="0"/>
      <point x="124" y="4"/>
      <point x="134" y="18" type="curve" smooth="yes"/>
    </contour>
    <contour>
      <point x="435" y="11" type="line" smooth="yes"/>
      <point x="435" y="3"/>
      <point x="438" y="0"/>
      <point x="446" y="0" type="curve" smooth="yes"/>
      <point x="656" y="0" type="line" smooth="yes"/>
      <point x="664" y="0"/>
      <point x="668" y="3"/>
      <point x="668" y="11" type="curve" smooth="yes"/>
      <point x="668" y="46" type="line" smooth="yes"/>
      <point x="668" y="54"/>
      <point x="664" y="57"/>
      <point x="656" y="57" type="curve" smooth="yes"/>
      <point x="510" y="57" type="line"/>
      <point x="510" y="61" type="line" smooth="yes"/>
      <point x="510" y="70"/>
      <point x="518" y="76"/>
      <point x="541" y="91" type="curve" smooth="yes"/>
      <point x="616" y="142" type="line" smooth="yes"/>
      <point x="653" y="168"/>
      <point x="665" y="196"/>
      <point x="665" y="238" type="curve" smooth="yes"/>
      <point x="665" y="255" type="line" smooth="yes"/>
      <point x="665" y="312"/>
      <point x="630" y="343"/>
      <point x="561" y="343" type="curve" smooth="yes"/>
      <point x="535" y="343" type="line" smooth="yes"/>
      <point x="464" y="343"/>
      <point x="430" y="312"/>
      <point x="430" y="254" type="curve" smooth="yes"/>
      <point x="430" y="232" type="line" smooth="yes"/>
      <point x="430" y="224"/>
      <point x="434" y="222"/>
      <point x="442" y="222" type="curve" smooth="yes"/>
      <point x="492" y="222" type="line" smooth="yes"/>
      <point x="500" y="222"/>
      <point x="504" y="224"/>
      <point x="504" y="232" type="curve" smooth="yes"/>
      <point x="504" y="246" type="line" smooth="yes"/>
      <point x="504" y="271"/>
      <point x="512" y="285"/>
      <point x="549" y="285" type="curve" smooth="yes"/>
      <point x="555" y="285" type="line" smooth="yes"/>
      <point x="592" y="285"/>
      <point x="600" y="271"/>
      <point x="600" y="247" type="curve" smooth="yes"/>
      <point x="600" y="241" type="line" smooth="yes"/>
      <point x="600" y="216"/>
      <point x="591" y="202"/>
      <point x="565" y="184" type="curve" smooth="yes"/>
      <point x="483" y="128" type="line" smooth="yes"/>
      <point x="450" y="106"/>
      <point x="435" y="88"/>
      <point x="435" y="48" type="curve" smooth="yes"/>
    </contour>
    <contour>
      <point x="94" y="576" type="line"/>
      <point x="94" y="310" type="line" smooth="yes"/>
      <point x="94" y="303"/>
      <point x="98" y="300"/>
      <point x="104" y="300" type="curve" smooth="yes"/>
      <point x="152" y="300" type="line" smooth="yes"/>
      <point x="159" y="300"/>
      <point x="162" y="302"/>
      <point x="162" y="310" type="curve" smooth="yes"/>
      <point x="162" y="633" type="line" smooth="yes"/>
      <point x="162" y="640"/>
      <point x="158" y="643"/>
      <point x="152" y="643" type="curve" smooth="yes"/>
      <point x="107" y="643" type="line" smooth="yes"/>
      <point x="99" y="643"/>
      <point x="94" y="640"/>
      <point x="88" y="637" type="curve"/>
      <point x="35" y="605" type="line" smooth="yes"/>
      <point x="28" y="601"/>
      <point x="26" y="598"/>
      <point x="26" y="590" type="curve" smooth="yes"/>
      <point x="26" y="550" type="line" smooth="yes"/>
      <point x="26" y="543"/>
      <point x="30" y="539"/>
      <point x="39" y="544" type="curve" smooth="yes"/>
    </contour>
  </outline>
</glyph>
<glyph name="threequarters" format="2">
  <advance width="776"/>
  <unicode hex="00BE"/>
  <outline>
    <contour>
      <point x="649" y="624" type="line" smooth="yes"/>
      <point x="657" y="635"/>
      <point x="652" y="643"/>
      <point x="641" y="643" type="curve" smooth="yes"/>
      <point x="606" y="643" type="line" smooth="yes"/>
      <point x="594" y="643"/>
      <point x="587" y="638"/>
      <point x="577" y="625" type="curve" smooth="yes"/>
      <point x="492" y="510"/>
      <point x="215" y="134"/>
      <point x="130" y="18" type="curve"/>
      <point x="121" y="7"/>
      <point x="127" y="0"/>
      <point x="139" y="0" type="curve" smooth="yes"/>
      <point x="171" y="0" type="line" smooth="yes"/>
      <point x="184" y="0"/>
      <point x="192" y="4"/>
      <point x="202" y="18" type="curve" smooth="yes"/>
    </contour>
    <contour>
      <point x="648" y="0" type="line" smooth="yes"/>
      <point x="655" y="0"/>
      <point x="658" y="2"/>
      <point x="658" y="10" type="curve" smooth="yes"/>
      <point x="658" y="67" type="line"/>
      <point x="699" y="67" type="line" smooth="yes"/>
      <point x="707" y="67"/>
      <point x="709" y="70"/>
      <point x="709" y="77" type="curve" smooth="yes"/>
      <point x="709" y="113" type="line" smooth="yes"/>
      <point x="709" y="120"/>
      <point x="707" y="123"/>
      <point x="699" y="123" type="curve" smooth="yes"/>
      <point x="658" y="123" type="line"/>
      <point x="658" y="326" type="line" smooth="yes"/>
      <point x="658" y="338"/>
      <point x="651" y="343"/>
      <point x="642" y="343" type="curve" smooth="yes"/>
      <point x="584" y="343" type="line" smooth="yes"/>
      <point x="572" y="343"/>
      <point x="568" y="339"/>
      <point x="562" y="328" type="curve" smooth="yes"/>
      <point x="449" y="124" type="line" smooth="yes"/>
      <point x="445" y="117"/>
      <point x="444" y="110"/>
      <point x="444" y="101" type="curve" smooth="yes"/>
      <point x="444" y="82" type="line" smooth="yes"/>
      <point x="444" y="72"/>
      <point x="450" y="67"/>
      <point x="460" y="67" type="curve" smooth="yes"/>
      <point x="598" y="67" type="line"/>
      <point x="598" y="10" type="line" smooth="yes"/>
      <point x="598" y="3"/>
      <point x="601" y="0"/>
      <point x="608" y="0" type="curve" smooth="yes"/>
    </contour>
    <contour>
      <point x="598" y="292" type="line"/>
      <point x="598" y="123" type="line"/>
      <point x="505" y="123" type="line"/>
    </contour>
    <contour>
      <point x="147" y="498" type="line" smooth="yes"/>
      <point x="139" y="498"/>
      <point x="136" y="495"/>
      <point x="136" y="487" type="curve" smooth="yes"/>
      <point x="136" y="452" type="line" smooth="yes"/>
      <point x="136" y="445"/>
      <point x="139" y="442"/>
      <point x="147" y="442" type="curve" smooth="yes"/>
      <point x="169" y="442" type="line" smooth="yes"/>
      <point x="199" y="442"/>
      <point x="214" y="432"/>
      <point x="214" y="403" type="curve" smooth="yes"/>
      <point x="214" y="397" type="line" smooth="yes"/>
      <point x="214" y="366"/>
      <point x="199" y="355"/>
      <point x="168" y="355" type="curve" smooth="yes"/>
      <point x="159" y="355" type="line" smooth="yes"/>
      <point x="131" y="355"/>
      <point x="112" y="362"/>
      <point x="112" y="396" type="curve" smooth="yes"/>
      <point x="112" y="405" type="line" smooth="yes"/>
      <point x="112" y="413"/>
      <point x="108" y="416"/>
      <point x="102" y="416" type="curve" smooth="yes"/>
      <point x="58" y="416" type="line" smooth="yes"/>
      <point x="52" y="416"/>
      <point x="48" y="413"/>
      <point x="48" y="405" type="curve" smooth="yes"/>
      <point x="48" y="388" type="line" smooth="yes"/>
      <point x="48" y="326"/>
      <point x="88" y="299"/>
      <point x="144" y="299" type="curve" smooth="yes"/>
      <point x="180" y="299" type="line" smooth="yes"/>
      <point x="241" y="299"/>
      <point x="277" y="331"/>
      <point x="277" y="390" type="curve" smooth="yes"/>
      <point x="277" y="410" type="line" smooth="yes"/>
      <point x="277" y="446"/>
      <point x="259" y="467"/>
      <point x="232" y="471" type="curve"/>
      <point x="262" y="481"/>
      <point x="277" y="504"/>
      <point x="277" y="534" type="curve" smooth="yes"/>
      <point x="277" y="554" type="line" smooth="yes"/>
      <point x="277" y="611"/>
      <point x="241" y="643"/>
      <point x="179" y="643" type="curve" smooth="yes"/>
      <point x="144" y="643" type="line" smooth="yes"/>
      <point x="80" y="643"/>
      <point x="48" y="612"/>
      <point x="48" y="554" type="curve" smooth="yes"/>
      <point x="48" y="535" type="line" smooth="yes"/>
      <point x="48" y="528"/>
      <point x="52" y="525"/>
      <point x="58" y="525" type="curve" smooth="yes"/>
      <point x="102" y="525" type="line" smooth="yes"/>
      <point x="108" y="525"/>
      <point x="112" y="528"/>
      <point x="112" y="535" type="curve" smooth="yes"/>
      <point x="112" y="546" type="line" smooth="yes"/>
      <point x="112" y="576"/>
      <point x="122" y="588"/>
      <point x="158" y="588" type="curve" smooth="yes"/>
      <point x="167" y="588" type="line" smooth="yes"/>
      <point x="203" y="588"/>
      <point x="214" y="574"/>
      <point x="214" y="546" type="curve" smooth="yes"/>
      <point x="214" y="537" type="line" smooth="yes"/>
      <point x="214" y="509"/>
      <point x="202" y="498"/>
      <point x="169" y="498" type="curve" smooth="yes"/>
    </contour>
  </outline>
</glyph>
<glyph name="Oslash" format="2">
  <advance width="572"/>
  <unicode hex="00D8"/>
  <outline>
    <contour>
      <point x="405" y="159" type="line" smooth="yes"/>
      <point x="405" y="110"/>
      <point x="383" y="85"/>
      <point x="333" y="85" type="curve" smooth="yes"/>
      <point x="239" y="85" type="line" smooth="yes"/>
      <point x="206" y="85"/>
      <point x="186" y="96"/>
      <point x="175" y="117" type="curve"/>
      <point x="405" y="438" type="line"/>
    </contour>
    <contour>
      <point x="167" y="484" type="line" smooth="yes"/>
      <point x="167" y="533"/>
      <point x="189" y="558"/>
      <point x="239" y="558" type="curve" smooth="yes"/>
      <point x="333" y="558" type="line" smooth="yes"/>
      <point x="366" y="558"/>
      <point x="387" y="547"/>
      <point x="397" y="526" type="curve"/>
      <point x="167" y="205" type="line"/>
    </contour>
    <contour>
      <point x="501" y="640" type="line" smooth="yes"/>
      <point x="491" y="647"/>
      <point x="483" y="646"/>
      <point x="475" y="635" type="curve" smooth="yes"/>
      <point x="456" y="608" type="line"/>
      <point x="429" y="631"/>
      <point x="393" y="643"/>
      <point x="347" y="643" type="curve" smooth="yes"/>
      <point x="225" y="643" type="line" smooth="yes"/>
      <point x="127" y="643"/>
      <point x="70" y="587"/>
      <point x="70" y="488" type="curve" smooth="yes"/>
      <point x="70" y="155" type="line" smooth="yes"/>
      <point x="70" y="129"/>
      <point x="74" y="106"/>
      <point x="82" y="86" type="curve"/>
      <point x="50" y="41" type="line"/>
      <point x="43" y="30"/>
      <point x="45" y="22"/>
      <point x="54" y="15" type="curve" smooth="yes"/>
      <point x="71" y="2" type="line"/>
      <point x="81" y="-4"/>
      <point x="89" y="-3"/>
      <point x="97" y="7" type="curve"/>
      <point x="117" y="35" type="line"/>
      <point x="143" y="12"/>
      <point x="180" y="0"/>
      <point x="225" y="0" type="curve" smooth="yes"/>
      <point x="347" y="0" type="line" smooth="yes"/>
      <point x="445" y="0"/>
      <point x="502" y="57"/>
      <point x="502" y="155" type="curve" smooth="yes"/>
      <point x="502" y="488" type="line" smooth="yes"/>
      <point x="502" y="514"/>
      <point x="498" y="537"/>
      <point x="490" y="557" type="curve"/>
      <point x="523" y="603" type="line"/>
      <point x="529" y="613"/>
      <point x="528" y="621"/>
      <point x="518" y="628" type="curve" smooth="yes"/>
    </contour>
  </outline>
</glyph>
<glyph name="oslash" format="2">
  <advance width="520"/>
  <unicode hex="00F8"/>
  <outline>
    <contour>
      <point x="362" y="159" type="line" smooth="yes"/>
      <point x="362" y="110"/>
      <point x="340" y="85"/>
      <point x="290" y="85" type="curve" smooth="yes"/>
      <point x="231" y="85" type="line" smooth="yes"/>
      <point x="195" y="85"/>
      <point x="174" y="97"/>
      <point x="165" y="121" type="curve"/>
      <point x="362" y="319" type="line"/>
    </contour>
    <contour>
      <point x="159" y="351" type="line" smooth="yes"/>
      <point x="159" y="400"/>
      <point x="180" y="425"/>
      <point x="231" y="425" type="curve" smooth="yes"/>
      <point x="290" y="425" type="line" smooth="yes"/>
      <point x="325" y="425"/>
      <point x="347" y="413"/>
      <point x="356" y="388" type="curve"/>
      <point x="159" y="191" type="line"/>
    </contour>
    <contour>
      <point x="482" y="491" type="line" smooth="yes"/>
      <point x="474" y="499"/>
      <point x="465" y="499"/>
      <point x="458" y="490" type="curve"/>
      <point x="428" y="460" type="line"/>
      <point x="401" y="492"/>
      <point x="359" y="510"/>
      <point x="304" y="510" type="curve" smooth="yes"/>
      <point x="217" y="510" type="line" smooth="yes"/>
      <point x="119" y="510"/>
      <point x="61" y="454"/>
      <point x="61" y="355" type="curve" smooth="yes"/>
      <point x="61" y="155" type="line" smooth="yes"/>
      <point x="61" y="135"/>
      <point x="63" y="117"/>
      <point x="68" y="100" type="curve"/>
      <point x="25" y="57" type="line" smooth="yes"/>
      <point x="17" y="49"/>
      <point x="16" y="40"/>
      <point x="25" y="32" type="curve" smooth="yes"/>
      <point x="39" y="19" type="line"/>
      <point x="46" y="10"/>
      <point x="53" y="10"/>
      <point x="63" y="19" type="curve"/>
      <point x="94" y="50" type="line"/>
      <point x="121" y="18"/>
      <point x="163" y="0"/>
      <point x="217" y="0" type="curve" smooth="yes"/>
      <point x="304" y="0" type="line" smooth="yes"/>
      <point x="402" y="0"/>
      <point x="460" y="57"/>
      <point x="460" y="155" type="curve" smooth="yes"/>
      <point x="460" y="355" type="line" smooth="yes"/>
      <point x="460" y="375"/>
      <point x="458" y="393"/>
      <point x="453" y="410" type="curve"/>
      <point x="496" y="453" type="line"/>
      <point x="505" y="461"/>
      <point x="505" y="470"/>
      <point x="496" y="478" type="curve" smooth="yes"/>
    </contour>
  </outline>
</glyph>
<glyph name="dvAA" format="2">
  <advance width="839"/>
  <unicode hex="0906"/>
  <outline>
    <contour>
      <point x="477" y="623" type="line" smooth="yes"/>
      <point x="454" y="623"/>
      <point x="441" y="607"/>
      <point x="441" y="585" type="curve" smooth="yes"/>
      <point x="441" y="308" type="line" smooth="yes"/>
      <point x="441" y="300"/>
      <point x="438" y="296"/>
      <point x="430" y="296" type="curve" smooth="yes"/>
      <point x="317" y="296" type="line"/>
      <point x="307" y="315"/>
      <point x="291" y="328"/>
      <point x="271" y="335" type="curve"/>
      <point x="271" y="339" type="line"/>
      <point x="307" y="356"/>
      <point x="331" y="391"/>
      <point x="331" y="448" type="curve" smooth="yes"/>
      <point x="331" y="464" type="line" smooth="yes"/>
      <point x="331" y="567"/>
      <point x="280" y="623"/>
      <point x="174" y="623" type="curve" smooth="yes"/>
      <point x="86" y="623" type="line" smooth="yes"/>
      <point x="72" y="623"/>
      <point x="67" y="617"/>
      <point x="67" y="605" type="curve" smooth="yes"/>
      <point x="67" y="562" type="line" smooth="yes"/>
      <point x="67" y="549"/>
      <point x="72" y="543"/>
      <point x="86" y="543" type="curve" smooth="yes"/>
      <point x="163" y="543" type="line" smooth="yes"/>
      <point x="218" y="543"/>
      <point x="242" y="519"/>
      <point x="242" y="467" type="curve" smooth="yes"/>
      <point x="242" y="453" type="line" smooth="yes"/>
      <point x="242" y="402"/>
      <point x="217" y="378"/>
      <point x="163" y="378" type="curve" smooth="yes"/>
      <point x="111" y="378" type="line" smooth="yes"/>
      <point x="99" y="378"/>
      <point x="92" y="371"/>
      <point x="92" y="358" type="curve" smooth="yes"/>
      <point x="92" y="316" type="line" smooth="yes"/>
      <point x="92" y="303"/>
      <point x="98" y="296"/>
      <point x="111" y="296" type="curve" smooth="yes"/>
      <point x="163" y="296" type="line" smooth="yes"/>
      <point x="218" y="296"/>
      <point x="242" y="273"/>
      <point x="242" y="222" type="curve" smooth="yes"/>
      <point x="242" y="194" type="line" smooth="yes"/>
      <point x="242" y="143"/>
      <point x="217" y="118"/>
      <point x="163" y="118" type="curve" smooth="yes"/>
      <point x="55" y="118" type="line" smooth="yes"/>
      <point x="41" y="118"/>
      <point x="35" y="112"/>
      <point x="35" y="99" type="curve" smooth="yes"/>
      <point x="35" y="56" type="line" smooth="yes"/>
      <point x="35" y="42"/>
      <point x="41" y="37"/>
      <point x="55" y="37" type="curve" smooth="yes"/>
      <point x="169" y="37" type="line" smooth="yes"/>
      <point x="272" y="37"/>
      <point x="331" y="94"/>
      <point x="331" y="196" type="curve" smooth="yes"/>
      <point x="331" y="217" type="line"/>
      <point x="430" y="217" type="line" smooth="yes"/>
      <point x="438" y="217"/>
      <point x="441" y="213"/>
      <point x="441" y="205" type="curve" smooth="yes"/>
      <point x="441" y="19" type="line" smooth="yes"/>
      <point x="441" y="5"/>
      <point x="447" y="0"/>
      <point x="460" y="0" type="curve" smooth="yes"/>
      <point x="513" y="0" type="line" smooth="yes"/>
      <point x="525" y="0"/>
      <point x="532" y="5"/>
      <point x="532" y="19" type="curve" smooth="yes"/>
      <point x="532" y="531" type="line" smooth="yes"/>
      <point x="532" y="538"/>
      <point x="535" y="543"/>
      <point x="543" y="543" type="curve" smooth="yes"/>
      <point x="665" y="543" type="line" smooth="yes"/>
      <point x="673" y="543"/>
      <point x="676" y="538"/>
      <point x="676" y="531" type="curve" smooth="yes"/>
      <point x="676" y="19" type="line" smooth="yes"/>
      <point x="676" y="5"/>
      <point x="683" y="0"/>
      <point x="695" y="0" type="curve" smooth="yes"/>
      <point x="748" y="0" type="line" smooth="yes"/>
      <point x="761" y="0"/>
      <point x="767" y="5"/>
      <point x="767" y="19" type="curve" smooth="yes"/>
      <point x="767" y="531" type="line" smooth="yes"/>
      <point x="767" y="538"/>
      <point x="771" y="543"/>
      <point x="778" y="543" type="curve" smooth="yes"/>
      <point x="844" y="543" type="line" smooth="yes"/>
      <point x="858" y="543"/>
      <point x="863" y="549"/>
      <point x="863" y="562" type="curve" smooth="yes"/>
      <point x="863" y="605" type="line" smooth="yes"/>
      <point x="863" y="617"/>
      <point x="858" y="623"/>
      <point x="844" y="623" type="curve" smooth="yes"/>
    </contour>
  </outline>
</glyph>
<glyph name="dvEcandra" format="2">
  <advance width="519"/>
  <unicode hex="090D"/>
  <outline>
    <contour>
      <point x="312" y="708" type="line" smooth="yes"/>
      <point x="390" y="708"/>
      <point x="431" y="753"/>
      <point x="431" y="834" type="curve" smooth="yes"/>
      <point x="431" y="842" type="line" smooth="yes"/>
      <point x="431" y="859"/>
      <point x="424" y="868"/>
      <point x="408" y="868" type="curve" smooth="yes"/>
      <point x="370" y="868" type="line" smooth="yes"/>
      <point x="357" y="868"/>
      <point x="349" y="861"/>
      <point x="349" y="844" type="curve" smooth="yes"/>
      <point x="349" y="835" type="line" smooth="yes"/>
      <point x="349" y="798"/>
      <point x="335" y="783"/>
      <point x="297" y="783" type="curve" smooth="yes"/>
      <point x="234" y="783" type="line" smooth="yes"/>
      <point x="196" y="783"/>
      <point x="182" y="798"/>
      <point x="182" y="835" type="curve" smooth="yes"/>
      <point x="182" y="844" type="line" smooth="yes"/>
      <point x="182" y="861"/>
      <point x="174" y="868"/>
      <point x="162" y="868" type="curve" smooth="yes"/>
      <point x="123" y="868" type="line" smooth="yes"/>
      <point x="108" y="868"/>
      <point x="100" y="859"/>
      <point x="100" y="842" type="curve" smooth="yes"/>
      <point x="100" y="834" type="line" smooth="yes"/>
      <point x="100" y="753"/>
      <point x="141" y="708"/>
      <point x="219" y="708" type="curve" smooth="yes"/>
    </contour>
    <contour>
      <point x="-5" y="623" type="line" smooth="yes"/>
      <point x="-18" y="623"/>
      <point x="-24" y="617"/>
      <point x="-24" y="604" type="curve" smooth="yes"/>
      <point x="-24" y="561" type="line" smooth="yes"/>
      <point x="-24" y="549"/>
      <point x="-18" y="543"/>
      <point x="-5" y="543" type="curve" smooth="yes"/>
      <point x="60" y="543" type="line" smooth="yes"/>
      <point x="68" y="543"/>
      <point x="72" y="538"/>
      <point x="72" y="531" type="curve" smooth="yes"/>
      <point x="72" y="207" type="line" smooth="yes"/>
      <point x="72" y="105"/>
      <point x="138" y="29"/>
      <point x="252" y="29" type="curve" smooth="yes"/>
      <point x="415" y="29" type="line"/>
      <point x="428" y="30"/>
      <point x="434" y="36"/>
      <point x="434" y="49" type="curve" smooth="yes"/>
      <point x="434" y="93" type="line" smooth="yes"/>
      <point x="434" y="105"/>
      <point x="429" y="112"/>
      <point x="415" y="112" type="curve" smooth="yes"/>
      <point x="270" y="112" type="line" smooth="yes"/>
      <point x="199" y="112"/>
      <point x="162" y="147"/>
      <point x="162" y="210" type="curve" smooth="yes"/>
      <point x="162" y="531" type="line" smooth="yes"/>
      <point x="162" y="538"/>
      <point x="165" y="543"/>
      <point x="173" y="543" type="curve" smooth="yes"/>
      <point x="365" y="543" type="line" smooth="yes"/>
      <point x="372" y="543"/>
      <point x="377" y="538"/>
      <point x="377" y="531" type="curve" smooth="yes"/>
      <point x="377" y="422" type="line" smooth="yes"/>
      <point x="377" y="363"/>
      <point x="346" y="348"/>
      <point x="297" y="348" type="curve" smooth="yes"/>
      <point x="272" y="348" type="line" smooth="yes"/>
      <point x="259" y="348"/>
      <point x="253" y="342"/>
      <point x="253" y="329" type="curve" smooth="yes"/>
      <point x="253" y="287" type="line" smooth="yes"/>
      <point x="253" y="274"/>
      <point x="259" y="268"/>
      <point x="272" y="268" type="curve" smooth="yes"/>
      <point x="309" y="268" type="line" smooth="yes"/>
      <point x="407" y="268"/>
      <point x="466" y="318"/>
      <point x="466" y="422" type="curve" smooth="yes"/>
      <point x="466" y="531" type="line" smooth="yes"/>
      <point x="466" y="538"/>
      <point x="469" y="543"/>
      <point x="478" y="543" type="curve" smooth="yes"/>
      <point x="527" y="543" type="line" smooth="yes"/>
      <point x="540" y="543"/>
      <point x="546" y="549"/>
      <point x="546" y="561" type="curve" smooth="yes"/>
      <point x="546" y="604" type="line" smooth="yes"/>
      <point x="546" y="617"/>
      <point x="540" y="623"/>
      <point x="527" y="623" type="curve" smooth="yes"/>
    </contour>
  </outline>
</glyph>
<glyph name="dvAU" format="2">
  <advance width="840"/>
  <unicode hex="0914"/>
  <outline>
    <contour>
      <point x="778" y="623" type="line" smooth="yes"/>
      <point x="771" y="623"/>
      <point x="768" y="627"/>
      <point x="768" y="635" type="curve" smooth="yes"/>
      <point x="768" y="866" type="line" smooth="yes"/>
      <point x="768" y="880"/>
      <point x="761" y="885"/>
      <point x="749" y="885" type="curve" smooth="yes"/>
      <point x="700" y="885" type="line" smooth="yes"/>
      <point x="687" y="885"/>
      <point x="680" y="880"/>
      <point x="680" y="866" type="curve" smooth="yes"/>
      <point x="680" y="838" type="line" smooth="yes"/>
      <point x="680" y="769"/>
      <point x="695" y="696"/>
      <point x="720" y="641" type="curve"/>
      <point x="716" y="640" type="line"/>
      <point x="581" y="869" type="line" smooth="yes"/>
      <point x="575" y="879"/>
      <point x="567" y="885"/>
      <point x="547" y="885" type="curve" smooth="yes"/>
      <point x="497" y="885" type="line" smooth="yes"/>
      <point x="487" y="885"/>
      <point x="481" y="878"/>
      <point x="481" y="870" type="curve" smooth="yes"/>
      <point x="481" y="865"/>
      <point x="483" y="860"/>
      <point x="486" y="855" type="curve"/>
      <point x="543" y="772" type="line" smooth="yes"/>
      <point x="581" y="717"/>
      <point x="633" y="656"/>
      <point x="671" y="627" type="curve"/>
      <point x="671" y="623" type="line"/>
      <point x="478" y="623" type="line" smooth="yes"/>
      <point x="455" y="623"/>
      <point x="442" y="607"/>
      <point x="442" y="585" type="curve" smooth="yes"/>
      <point x="442" y="308" type="line" smooth="yes"/>
      <point x="442" y="300"/>
      <point x="439" y="296"/>
      <point x="431" y="296" type="curve" smooth="yes"/>
      <point x="318" y="296" type="line"/>
      <point x="308" y="315"/>
      <point x="292" y="328"/>
      <point x="272" y="335" type="curve"/>
      <point x="272" y="339" type="line"/>
      <point x="308" y="356"/>
      <point x="332" y="391"/>
      <point x="332" y="448" type="curve" smooth="yes"/>
      <point x="332" y="464" type="line" smooth="yes"/>
      <point x="332" y="567"/>
      <point x="281" y="623"/>
      <point x="175" y="623" type="curve" smooth="yes"/>
      <point x="87" y="623" type="line" smooth="yes"/>
      <point x="73" y="623"/>
      <point x="68" y="617"/>
      <point x="68" y="605" type="curve" smooth="yes"/>
      <point x="68" y="562" type="line" smooth="yes"/>
      <point x="68" y="549"/>
      <point x="73" y="543"/>
      <point x="87" y="543" type="curve" smooth="yes"/>
      <point x="164" y="543" type="line" smooth="yes"/>
      <point x="219" y="543"/>
      <point x="243" y="519"/>
      <point x="243" y="467" type="curve" smooth="yes"/>
      <point x="243" y="453" type="line" smooth="yes"/>
      <point x="243" y="402"/>
      <point x="218" y="378"/>
      <point x="164" y="378" type="curve" smooth="yes"/>
      <point x="112" y="378" type="line" smooth="yes"/>
      <point x="100" y="378"/>
      <point x="93" y="371"/>
      <point x="93" y="358" type="curve" smooth="yes"/>
      <point x="93" y="316" type="line" smooth="yes"/>
      <point x="93" y="303"/>
      <point x="99" y="296"/>
      <point x="112" y="296" type="curve" smooth="yes"/>
      <point x="164" y="296" type="line" smooth="yes"/>
      <point x="219" y="296"/>
      <point x="243" y="273"/>
      <point x="243" y="222" type="curve" smooth="yes"/>
      <point x="243" y="194" type="line" smooth="yes"/>
      <point x="243" y="143"/>
      <point x="218" y="118"/>
      <point x="164" y="118" type="curve" smooth="yes"/>
      <point x="56" y="118" type="line" smooth="yes"/>
      <point x="42" y="118"/>
      <point x="36" y="112"/>
      <point x="36" y="99" type="curve" smooth="yes"/>
      <point x="36" y="56" type="line" smooth="yes"/>
      <point x="36" y="42"/>
      <point x="42" y="37"/>
      <point x="56" y="37" type="curve" smooth="yes"/>
      <point x="170" y="37" type="line" smooth="yes"/>
      <point x="273" y="37"/>
      <point x="332" y="94"/>
      <point x="332" y="196" type="curve" smooth="yes"/>
      <point x="332" y="217" type="line"/>
      <point x="431" y="217" type="line" smooth="yes"/>
      <point x="439" y="217"/>
      <point x="442" y="213"/>
      <point x="442" y="205" type="curve" smooth="yes"/>
      <point x="442" y="19" type="line" smooth="yes"/>
      <point x="442" y="5"/>
      <point x="448" y="0"/>
      <point x="461" y="0" type="curve" smooth="yes"/>
      <point x="514" y="0" type="line" smooth="yes"/>
      <point x="526" y="0"/>
      <point x="533" y="5"/>
      <point x="533" y="19" type="curve" smooth="yes"/>
      <point x="533" y="531" type="line" smooth="yes"/>
      <point x="533" y="538"/>
      <point x="536" y="543"/>
      <point x="544" y="543" type="curve" smooth="yes"/>
      <point x="666" y="543" type="line" smooth="yes"/>
      <point x="673" y="543"/>
      <point x="677" y="538"/>
      <point x="677" y="531" type="curve" smooth="yes"/>
      <point x="677" y="19" type="line" smooth="yes"/>
      <point x="677" y="5"/>
      <point x="683" y="0"/>
      <point x="696" y="0" type="curve" smooth="yes"/>
      <point x="749" y="0" type="line" smooth="yes"/>
      <point x="761" y="0"/>
      <point x="768" y="5"/>
      <point x="768" y="19" type="curve" smooth="yes"/>
      <point x="768" y="531" type="line" smooth="yes"/>
      <point x="768" y="538"/>
      <point x="771" y="543"/>
      <point x="779" y="543" type="curve" smooth="yes"/>
      <point x="844" y="543" type="line" smooth="yes"/>
      <point x="859" y="543"/>
      <point x="864" y="549"/>
      <point x="864" y="562" type="curve" smooth="yes"/>
      <point x="864" y="605" type="line" smooth="yes"/>
      <point x="864" y="617"/>
      <point x="859" y="623"/>
      <point x="844" y="623" type="curve" smooth="yes"/>
    </contour>
  </outline>
</glyph>
<glyph name="dvBA" format="2">
  <advance width="511"/>
  <unicode hex="092C"/>
  <outline>
    <contour>
      <point x="216" y="154" type="line" smooth="yes"/>
      <point x="159" y="154"/>
      <point x="135" y="183"/>
      <point x="135" y="237" type="curve" smooth="yes"/>
      <point x="135" y="310" type="line" smooth="yes"/>
      <point x="135" y="322"/>
      <point x="136" y="333"/>
      <point x="139" y="343" type="curve"/>
      <point x="320" y="171" type="line"/>
      <point x="306" y="160"/>
      <point x="287" y="154"/>
      <point x="262" y="154" type="curve" smooth="yes"/>
    </contour>
    <contour>
      <point x="-5" y="623" type="line" smooth="yes"/>
      <point x="-18" y="623"/>
      <point x="-24" y="617"/>
      <point x="-24" y="605" type="curve" smooth="yes"/>
      <point x="-24" y="562" type="line" smooth="yes"/>
      <point x="-24" y="549"/>
      <point x="-18" y="543"/>
      <point x="-5" y="543" type="curve" smooth="yes"/>
      <point x="337" y="543" type="line" smooth="yes"/>
      <point x="344" y="543"/>
      <point x="348" y="538"/>
      <point x="348" y="531" type="curve" smooth="yes"/>
      <point x="348" y="240" type="line" smooth="yes"/>
      <point x="348" y="233"/>
      <point x="347" y="227"/>
      <point x="346" y="220" type="curve"/>
      <point x="173" y="384" type="line"/>
      <point x="185" y="390"/>
      <point x="200" y="393"/>
      <point x="217" y="393" type="curve" smooth="yes"/>
      <point x="270" y="393" type="line" smooth="yes"/>
      <point x="283" y="393"/>
      <point x="289" y="399"/>
      <point x="289" y="411" type="curve" smooth="yes"/>
      <point x="289" y="452" type="line" smooth="yes"/>
      <point x="289" y="465"/>
      <point x="283" y="471"/>
      <point x="270" y="471" type="curve" smooth="yes"/>
      <point x="208" y="471" type="line" smooth="yes"/>
      <point x="106" y="471"/>
      <point x="49" y="411"/>
      <point x="48" y="312" type="curve"/>
      <point x="48" y="236" type="line" smooth="yes"/>
      <point x="48" y="136"/>
      <point x="109" y="77"/>
      <point x="208" y="77" type="curve" smooth="yes"/>
      <point x="249" y="77" type="line" smooth="yes"/>
      <point x="294" y="77"/>
      <point x="329" y="93"/>
      <point x="344" y="119" type="curve"/>
      <point x="348" y="119" type="line"/>
      <point x="348" y="20" type="line" smooth="yes"/>
      <point x="348" y="6"/>
      <point x="354" y="0"/>
      <point x="366" y="0" type="curve" smooth="yes"/>
      <point x="420" y="0" type="line" smooth="yes"/>
      <point x="432" y="0"/>
      <point x="439" y="6"/>
      <point x="439" y="20" type="curve" smooth="yes"/>
      <point x="439" y="531" type="line" smooth="yes"/>
      <point x="439" y="538"/>
      <point x="442" y="543"/>
      <point x="450" y="543" type="curve" smooth="yes"/>
      <point x="515" y="543" type="line" smooth="yes"/>
      <point x="529" y="543"/>
      <point x="535" y="549"/>
      <point x="535" y="562" type="curve" smooth="yes"/>
      <point x="535" y="605" type="line" smooth="yes"/>
      <point x="535" y="617"/>
      <point x="529" y="623"/>
      <point x="515" y="623" type="curve" smooth="yes"/>
    </contour>
  </outline>
</glyph>
<glyph name="dvEight" format="2">
  <advance width="522"/>
  <unicode hex="096E"/>
  <outline>
    <contour>
      <point x="373" y="156" type="line" smooth="yes"/>
      <point x="373" y="105"/>
      <point x="350" y="81"/>
      <point x="299" y="81" type="curve" smooth="yes"/>
      <point x="224" y="81" type="line" smooth="yes"/>
      <point x="172" y="81"/>
      <point x="149" y="105"/>
      <point x="149" y="156" type="curve" smooth="yes"/>
      <point x="149" y="208" type="line" smooth="yes"/>
      <point x="149" y="259"/>
      <point x="172" y="286"/>
      <point x="224" y="286" type="curve" smooth="yes"/>
      <point x="299" y="286" type="line" smooth="yes"/>
      <point x="350" y="286"/>
      <point x="373" y="259"/>
      <point x="373" y="208" type="curve" smooth="yes"/>
    </contour>
    <contour>
      <point x="149" y="487" type="line" smooth="yes"/>
      <point x="149" y="538"/>
      <point x="172" y="562"/>
      <point x="224" y="562" type="curve" smooth="yes"/>
      <point x="299" y="562" type="line" smooth="yes"/>
      <point x="350" y="562"/>
      <point x="373" y="538"/>
      <point x="373" y="487" type="curve" smooth="yes"/>
      <point x="373" y="439" type="line" smooth="yes"/>
      <point x="373" y="389"/>
      <point x="350" y="362"/>
      <point x="299" y="362" type="curve" smooth="yes"/>
      <point x="224" y="362" type="line" smooth="yes"/>
      <point x="172" y="362"/>
      <point x="149" y="389"/>
      <point x="149" y="439" type="curve" smooth="yes"/>
    </contour>
    <contour>
      <point x="466" y="491" type="line" smooth="yes"/>
      <point x="466" y="588"/>
      <point x="408" y="643"/>
      <point x="313" y="643" type="curve" smooth="yes"/>
      <point x="210" y="643" type="line" smooth="yes"/>
      <point x="114" y="643"/>
      <point x="56" y="588"/>
      <point x="56" y="491" type="curve" smooth="yes"/>
      <point x="56" y="445" type="line" smooth="yes"/>
      <point x="56" y="382"/>
      <point x="80" y="344"/>
      <point x="124" y="324" type="curve"/>
      <point x="80" y="304"/>
      <point x="56" y="265"/>
      <point x="56" y="202" type="curve" smooth="yes"/>
      <point x="56" y="152" type="line" smooth="yes"/>
      <point x="56" y="55"/>
      <point x="114" y="0"/>
      <point x="210" y="0" type="curve" smooth="yes"/>
      <point x="313" y="0" type="line" smooth="yes"/>
      <point x="408" y="0"/>
      <point x="466" y="55"/>
      <point x="466" y="152" type="curve" smooth="yes"/>
      <point x="466" y="201" type="line" smooth="yes"/>
      <point x="466" y="264"/>
      <point x="442" y="303"/>
      <point x="397" y="324" type="curve"/>
      <point x="442" y="343"/>
      <point x="466" y="382"/>
      <point x="466" y="445" type="curve" smooth="yes"/>
    </contour>
  </outline>
</glyph>
<glyph name="rupee" format="2">
  <advance width="977"/>
  <unicode hex="20A8"/>
  <outline>
    <contour>
      <point x="787" y="0" type="line" smooth="yes"/>
      <point x="889" y="0"/>
      <point x="936" y="44"/>
      <point x="936" y="130" type="curve" smooth="yes"/>
      <point x="936" y="194"/>
      <point x="917" y="234"/>
      <point x="845" y="266" type="curve"/>
      <point x="735" y="322" type="line" smooth="yes"/>
      <point x="707" y="335"/>
      <point x="684" y="350"/>
      <point x="684" y="378" type="curve" smooth="yes"/>
      <point x="684" y="389" type="line" smooth="yes"/>
      <point x="684" y="410"/>
      <point x="704" y="427"/>
      <point x="746" y="427" type="curve" smooth="yes"/>
      <point x="892" y="427" type="line" smooth="yes"/>
      <point x="905" y="427"/>
      <point x="908" y="432"/>
      <point x="908" y="444" type="curve" smooth="yes"/>
      <point x="908" y="493" type="line" smooth="yes"/>
      <point x="908" y="504"/>
      <point x="904" y="510"/>
      <point x="892" y="510" type="curve" smooth="yes"/>
      <point x="726" y="510" type="line" smooth="yes"/>
      <point x="627" y="510"/>
      <point x="583" y="467"/>
      <point x="583" y="381" type="curve" smooth="yes"/>
      <point x="583" y="316"/>
      <point x="614" y="283"/>
      <point x="680" y="252" type="curve" smooth="yes"/>
      <point x="789" y="200" type="line" smooth="yes"/>
      <point x="820" y="186"/>
      <point x="836" y="165"/>
      <point x="836" y="139" type="curve" smooth="yes"/>
      <point x="836" y="127" type="line" smooth="yes"/>
      <point x="836" y="96"/>
      <point x="812" y="82"/>
      <point x="771" y="82" type="curve" smooth="yes"/>
      <point x="603" y="82" type="line" smooth="yes"/>
      <point x="590" y="82"/>
      <point x="586" y="78"/>
      <point x="586" y="66" type="curve" smooth="yes"/>
      <point x="586" y="17" type="line" smooth="yes"/>
      <point x="586" y="6"/>
      <point x="590" y="0"/>
      <point x="603" y="0" type="curve" smooth="yes"/>
    </contour>
    <contour>
      <point x="181" y="327" type="line" smooth="yes"/>
      <point x="174" y="327"/>
      <point x="170" y="330"/>
      <point x="170" y="337" type="curve" smooth="yes"/>
      <point x="170" y="548" type="line" smooth="yes"/>
      <point x="170" y="555"/>
      <point x="174" y="558"/>
      <point x="181" y="558" type="curve" smooth="yes"/>
      <point x="308" y="558" type="line" smooth="yes"/>
      <point x="358" y="558"/>
      <point x="382" y="533"/>
      <point x="382" y="484" type="curve" smooth="yes"/>
      <point x="382" y="400" type="line" smooth="yes"/>
      <point x="382" y="351"/>
      <point x="358" y="327"/>
      <point x="308" y="327" type="curve" smooth="yes"/>
    </contour>
    <contour>
      <point x="153" y="0" type="line" smooth="yes"/>
      <point x="165" y="0"/>
      <point x="170" y="4"/>
      <point x="170" y="17" type="curve" smooth="yes"/>
      <point x="170" y="237" type="line" smooth="yes"/>
      <point x="170" y="244"/>
      <point x="174" y="247"/>
      <point x="182" y="247" type="curve" smooth="yes"/>
      <point x="283" y="247" type="line"/>
      <point x="390" y="17" type="line" smooth="yes"/>
      <point x="396" y="3"/>
      <point x="403" y="0"/>
      <point x="421" y="0" type="curve" smooth="yes"/>
      <point x="483" y="0" type="line" smooth="yes"/>
      <point x="495" y="0"/>
      <point x="504" y="6"/>
      <point x="496" y="20" type="curve"/>
      <point x="385" y="254" type="line"/>
      <point x="385" y="258" type="line"/>
      <point x="445" y="277"/>
      <point x="480" y="328"/>
      <point x="480" y="403" type="curve" smooth="yes"/>
      <point x="480" y="487" type="line" smooth="yes"/>
      <point x="480" y="585"/>
      <point x="421" y="643"/>
      <point x="324" y="643" type="curve" smooth="yes"/>
      <point x="90" y="643" type="line" smooth="yes"/>
      <point x="78" y="643"/>
      <point x="73" y="639"/>
      <point x="73" y="626" type="curve" smooth="yes"/>
      <point x="73" y="17" type="line" smooth="yes"/>
      <point x="73" y="4"/>
      <point x="78" y="0"/>
      <point x="90" y="0" type="curve" smooth="yes"/>
    </contour>
  </outline>
</glyph>
<glyph name="dvAnusvara.amI" format="2">
  <outline>
    <contour>
      <point x="133" y="802" type="line" smooth="yes"/>
      <point x="133" y="815"/>
      <point x="126" y="820"/>
      <point x="115" y="820" type="curve" smooth="yes"/>
      <point x="52" y="820" type="line" smooth="yes"/>
      <point x="40" y="820"/>
      <point x="34" y="815"/>
      <point x="34" y="802" type="curve" smooth="yes"/>
      <point x="34" y="743" type="line" smooth="yes"/>
      <point x="34" y="731"/>
      <point x="40" y="724"/>
      <point x="52" y="724" type="curve" smooth="yes"/>
      <point x="115" y="724" type="line" smooth="yes"/>
      <point x="127" y="724"/>
      <point x="133" y="731"/>
      <point x="133" y="743" type="curve" smooth="yes"/>
    </contour>
  </outline>
</glyph>
<glyph name="dvBH_LA" format="2">
  <advance width="928"/>
  <outline>
    <contour>
      <point x="270" y="623" type="line" smooth="yes"/>
      <point x="257" y="623"/>
      <point x="250" y="617"/>
      <point x="250" y="605" type="curve" smooth="yes"/>
      <point x="250" y="562" type="line" smooth="yes"/>
      <point x="250" y="549"/>
      <point x="257" y="543"/>
      <point x="270" y="543" type="curve" smooth="yes"/>
      <point x="756" y="543" type="line"/>
      <point x="763" y="542"/>
      <point x="765" y="538"/>
      <point x="765" y="531" type="curve" smooth="yes"/>
      <point x="765" y="411" type="line"/>
      <point x="761" y="411" type="line"/>
      <point x="750" y="431"/>
      <point x="726" y="442"/>
      <point x="689" y="442" type="curve" smooth="yes"/>
      <point x="632" y="442"/>
      <point x="603" y="417"/>
      <point x="591" y="382" type="curve"/>
      <point x="587" y="382" type="line"/>
      <point x="572" y="423"/>
      <point x="538" y="443"/>
      <point x="476" y="443" type="curve" smooth="yes"/>
      <point x="401" y="443"/>
      <point x="347" y="405"/>
      <point x="331" y="333" type="curve"/>
      <point x="169" y="333" type="line" smooth="yes"/>
      <point x="162" y="333"/>
      <point x="158" y="337"/>
      <point x="158" y="345" type="curve" smooth="yes"/>
      <point x="158" y="472" type="line" smooth="yes"/>
      <point x="158" y="570"/>
      <point x="103" y="623"/>
      <point x="7" y="623" type="curve" smooth="yes"/>
      <point x="-5" y="623" type="line" smooth="yes"/>
      <point x="-18" y="623"/>
      <point x="-24" y="617"/>
      <point x="-24" y="604" type="curve" smooth="yes"/>
      <point x="-24" y="562" type="line" smooth="yes"/>
      <point x="-24" y="549"/>
      <point x="-18" y="543"/>
      <point x="-5" y="543" type="curve" smooth="yes"/>
      <point x="5" y="543" type="line" smooth="yes"/>
      <point x="53" y="543"/>
      <point x="68" y="513"/>
      <point x="68" y="469" type="curve" smooth="yes"/>
      <point x="68" y="169" type="line" smooth="yes"/>
      <point x="68" y="155"/>
      <point x="74" y="150"/>
      <point x="87" y="150" type="curve" smooth="yes"/>
      <point x="139" y="150" type="line" smooth="yes"/>
      <point x="152" y="150"/>
      <point x="158" y="155"/>
      <point x="158" y="169" type="curve" smooth="yes"/>
      <point x="158" y="241" type="line" smooth="yes"/>
      <point x="158" y="249"/>
      <point x="162" y="253"/>
      <point x="170" y="253" type="curve" smooth="yes"/>
      <point x="326" y="253" type="line"/>
      <point x="326" y="189" type="line" smooth="yes"/>
      <point x="326" y="85"/>
      <point x="384" y="30"/>
      <point x="485" y="30" type="curve" smooth="yes"/>
      <point x="519" y="30" type="line" smooth="yes"/>
      <point x="533" y="30"/>
      <point x="539" y="36"/>
      <point x="539" y="49" type="curve" smooth="yes"/>
      <point x="539" y="93" type="line" smooth="yes"/>
      <point x="539" y="105"/>
      <point x="533" y="111"/>
      <point x="519" y="111" type="curve" smooth="yes"/>
      <point x="497" y="111" type="line" smooth="yes"/>
      <point x="443" y="111"/>
      <point x="415" y="136"/>
      <point x="415" y="193" type="curve" smooth="yes"/>
      <point x="415" y="278" type="line" smooth="yes"/>
      <point x="415" y="335"/>
      <point x="436" y="360"/>
      <point x="482" y="360" type="curve" smooth="yes"/>
      <point x="524" y="360"/>
      <point x="547" y="341"/>
      <point x="547" y="287" type="curve" smooth="yes"/>
      <point x="547" y="215" type="line" smooth="yes"/>
      <point x="547" y="202"/>
      <point x="553" y="196"/>
      <point x="566" y="196" type="curve" smooth="yes"/>
      <point x="615" y="196" type="line" smooth="yes"/>
      <point x="628" y="196"/>
      <point x="634" y="202"/>
      <point x="634" y="215" type="curve" smooth="yes"/>
      <point x="634" y="281" type="line" smooth="yes"/>
      <point x="634" y="340"/>
      <point x="656" y="358"/>
      <point x="700" y="358" type="curve" smooth="yes"/>
      <point x="744" y="358"/>
      <point x="765" y="340"/>
      <point x="765" y="284" type="curve" smooth="yes"/>
      <point x="765" y="19" type="line" smooth="yes"/>
      <point x="765" y="5"/>
      <point x="772" y="0"/>
      <point x="784" y="0" type="curve" smooth="yes"/>
      <point x="837" y="0" type="line" smooth="yes"/>
      <point x="850" y="0"/>
      <point x="856" y="5"/>
      <point x="856" y="19" type="curve" smooth="yes"/>
      <point x="856" y="531" type="line" smooth="yes"/>
      <point x="856" y="538"/>
      <point x="860" y="543"/>
      <point x="867" y="543" type="curve" smooth="yes"/>
      <point x="933" y="543" type="line" smooth="yes"/>
      <point x="947" y="543"/>
      <point x="952" y="549"/>
      <point x="952" y="562" type="curve" smooth="yes"/>
      <point x="952" y="605" type="line" smooth="yes"/>
      <point x="952" y="617"/>
      <point x="947" y="623"/>
      <point x="933" y="623" type="curve" smooth="yes"/>
    </contour>
  </outline>
</glyph>
<glyph name="dvBH_R_YA" format="2">
  <advance width="860"/>
  <outline>
    <contour>
      <point x="697" y="278" type="line" smooth="yes"/>
      <point x="697" y="210"/>
      <point x="663" y="165"/>
      <point x="581" y="165" type="curve" smooth="yes"/>
      <point x="537" y="165" type="line" smooth="yes"/>
      <point x="460" y="165"/>
      <point x="425" y="204"/>
      <point x="425" y="271" type="curve" smooth="yes"/>
      <point x="425" y="316" type="line"/>
      <point x="436" y="316" type="line" smooth="yes"/>
      <point x="526" y="316"/>
      <point x="574" y="356"/>
      <point x="574" y="443" type="curve" smooth="yes"/>
      <point x="574" y="464" type="line" smooth="yes"/>
      <point x="574" y="503"/>
      <point x="558" y="528"/>
      <point x="539" y="538" type="curve"/>
      <point x="539" y="543" type="line"/>
      <point x="686" y="543" type="line" smooth="yes"/>
      <point x="694" y="543"/>
      <point x="697" y="538"/>
      <point x="697" y="531" type="curve" smooth="yes"/>
    </contour>
    <contour>
      <point x="280" y="623" type="line" smooth="yes"/>
      <point x="267" y="623"/>
      <point x="261" y="618"/>
      <point x="261" y="605" type="curve" smooth="yes"/>
      <point x="261" y="562" type="line" smooth="yes"/>
      <point x="261" y="549"/>
      <point x="267" y="543"/>
      <point x="280" y="543" type="curve" smooth="yes"/>
      <point x="418" y="543" type="line" smooth="yes"/>
      <point x="467" y="543"/>
      <point x="487" y="521"/>
      <point x="487" y="475" type="curve" smooth="yes"/>
      <point x="487" y="461" type="line" smooth="yes"/>
      <point x="487" y="411"/>
      <point x="468" y="395"/>
      <point x="418" y="395" type="curve" smooth="yes"/>
      <point x="355" y="395" type="line" smooth="yes"/>
      <point x="341" y="395"/>
      <point x="336" y="388"/>
      <point x="336" y="376" type="curve" smooth="yes"/>
      <point x="336" y="347" type="line"/>
      <point x="169" y="347" type="line" smooth="yes"/>
      <point x="162" y="347"/>
      <point x="158" y="351"/>
      <point x="158" y="359" type="curve" smooth="yes"/>
      <point x="158" y="472" type="line" smooth="yes"/>
      <point x="158" y="570"/>
      <point x="103" y="623"/>
      <point x="7" y="623" type="curve" smooth="yes"/>
      <point x="-5" y="623" type="line" smooth="yes"/>
      <point x="-18" y="623"/>
      <point x="-24" y="617"/>
      <point x="-24" y="604" type="curve" smooth="yes"/>
      <point x="-24" y="562" type="line" smooth="yes"/>
      <point x="-24" y="549"/>
      <point x="-18" y="543"/>
      <point x="-5" y="543" type="curve" smooth="yes"/>
      <point x="7" y="543" type="line" smooth="yes"/>
      <point x="48" y="543"/>
      <point x="68" y="520"/>
      <point x="68" y="469" type="curve" smooth="yes"/>
      <point x="68" y="183" type="line" smooth="yes"/>
      <point x="68" y="169"/>
      <point x="74" y="164"/>
      <point x="87" y="164" type="curve" smooth="yes"/>
      <point x="139" y="164" type="line" smooth="yes"/>
      <point x="152" y="164"/>
      <point x="158" y="169"/>
      <point x="158" y="183" type="curve" smooth="yes"/>
      <point x="158" y="255" type="line" smooth="yes"/>
      <point x="158" y="263"/>
      <point x="162" y="267"/>
      <point x="170" y="267" type="curve" smooth="yes"/>
      <point x="336" y="267" type="line"/>
      <point x="336" y="259" type="line"/>
      <point x="93" y="9" type="line" smooth="yes"/>
      <point x="89" y="5"/>
      <point x="87" y="1"/>
      <point x="87" y="-4" type="curve" smooth="yes"/>
      <point x="87" y="-10"/>
      <point x="92" y="-16"/>
      <point x="102" y="-16" type="curve" smooth="yes"/>
      <point x="166" y="-16" type="line" smooth="yes"/>
      <point x="179" y="-16"/>
      <point x="188" y="-12"/>
      <point x="197" y="-2" type="curve" smooth="yes"/>
      <point x="360" y="173" type="line"/>
      <point x="390" y="121"/>
      <point x="445" y="84"/>
      <point x="527" y="84" type="curve" smooth="yes"/>
      <point x="579" y="84" type="line" smooth="yes"/>
      <point x="635" y="84"/>
      <point x="675" y="104"/>
      <point x="693" y="137" type="curve"/>
      <point x="697" y="137" type="line"/>
      <point x="697" y="19" type="line" smooth="yes"/>
      <point x="697" y="5"/>
      <point x="704" y="0"/>
      <point x="716" y="0" type="curve" smooth="yes"/>
      <point x="769" y="0" type="line" smooth="yes"/>
      <point x="782" y="0"/>
      <point x="788" y="5"/>
      <point x="788" y="19" type="curve" smooth="yes"/>
      <point x="788" y="531" type="line" smooth="yes"/>
      <point x="788" y="538"/>
      <point x="792" y="543"/>
      <point x="799" y="543" type="curve" smooth="yes"/>
      <point x="865" y="543" type="line" smooth="yes"/>
      <point x="879" y="543"/>
      <point x="884" y="549"/>
      <point x="884" y="562" type="curve" smooth="yes"/>
      <point x="884" y="605" type="line" smooth="yes"/>
      <point x="884" y="617"/>
      <point x="879" y="623"/>
      <point x="865" y="623" type="curve" smooth="yes"/>
    </contour>
  </outline>
</glyph>
<glyph name="dvBH_VA" format="2">
  <advance width="779"/>
  <outline>
    <contour>
      <point x="270" y="623" type="line" smooth="yes"/>
      <point x="257" y="623"/>
      <point x="250" y="617"/>
      <point x="250" y="605" type="curve" smooth="yes"/>
      <point x="250" y="562" type="line" smooth="yes"/>
      <point x="250" y="549"/>
      <point x="257" y="543"/>
      <point x="270" y="543" type="curve" smooth="yes"/>
      <point x="605" y="543" type="line" smooth="yes"/>
      <point x="613" y="543"/>
      <point x="616" y="538"/>
      <point x="616" y="531" type="curve" smooth="yes"/>
      <point x="616" y="246" type="line" smooth="yes"/>
      <point x="616" y="198"/>
      <point x="591" y="160"/>
      <point x="531" y="160" type="curve" smooth="yes"/>
      <point x="498" y="160" type="line" smooth="yes"/>
      <point x="441" y="160"/>
      <point x="417" y="189"/>
      <point x="417" y="242" type="curve" smooth="yes"/>
      <point x="417" y="303" type="line" smooth="yes"/>
      <point x="417" y="357"/>
      <point x="445" y="385"/>
      <point x="499" y="385" type="curve" smooth="yes"/>
      <point x="539" y="385" type="line" smooth="yes"/>
      <point x="552" y="385"/>
      <point x="558" y="392"/>
      <point x="558" y="404" type="curve" smooth="yes"/>
      <point x="558" y="447" type="line" smooth="yes"/>
      <point x="558" y="460"/>
      <point x="552" y="466"/>
      <point x="539" y="466" type="curve" smooth="yes"/>
      <point x="485" y="466" type="line" smooth="yes"/>
      <point x="392" y="466"/>
      <point x="336" y="417"/>
      <point x="327" y="333" type="curve"/>
      <point x="169" y="333" type="line" smooth="yes"/>
      <point x="162" y="333"/>
      <point x="158" y="337"/>
      <point x="158" y="345" type="curve" smooth="yes"/>
      <point x="158" y="472" type="line" smooth="yes"/>
      <point x="158" y="570"/>
      <point x="103" y="623"/>
      <point x="7" y="623" type="curve" smooth="yes"/>
      <point x="-5" y="623" type="line" smooth="yes"/>
      <point x="-18" y="623"/>
      <point x="-24" y="617"/>
      <point x="-24" y="604" type="curve" smooth="yes"/>
      <point x="-24" y="562" type="line" smooth="yes"/>
      <point x="-24" y="549"/>
      <point x="-18" y="543"/>
      <point x="-5" y="543" type="curve" smooth="yes"/>
      <point x="5" y="543" type="line" smooth="yes"/>
      <point x="53" y="543"/>
      <point x="68" y="513"/>
      <point x="68" y="469" type="curve" smooth="yes"/>
      <point x="68" y="169" type="line" smooth="yes"/>
      <point x="68" y="155"/>
      <point x="74" y="150"/>
      <point x="87" y="150" type="curve" smooth="yes"/>
      <point x="139" y="150" type="line" smooth="yes"/>
      <point x="152" y="150"/>
      <point x="158" y="155"/>
      <point x="158" y="169" type="curve" smooth="yes"/>
      <point x="158" y="241" type="line" smooth="yes"/>
      <point x="158" y="249"/>
      <point x="162" y="253"/>
      <point x="170" y="253" type="curve" smooth="yes"/>
      <point x="325" y="253" type="line"/>
      <point x="325" y="238" type="line" smooth="yes"/>
      <point x="325" y="137"/>
      <point x="386" y="79"/>
      <point x="485" y="79" type="curve" smooth="yes"/>
      <point x="518" y="79" type="line" smooth="yes"/>
      <point x="562" y="79"/>
      <point x="598" y="95"/>
      <point x="612" y="121" type="curve"/>
      <point x="616" y="121" type="line"/>
      <point x="616" y="20" type="line" smooth="yes"/>
      <point x="616" y="6"/>
      <point x="623" y="0"/>
      <point x="635" y="0" type="curve" smooth="yes"/>
      <point x="688" y="0" type="line" smooth="yes"/>
      <point x="700" y="0"/>
      <point x="707" y="6"/>
      <point x="707" y="20" type="curve" smooth="yes"/>
      <point x="707" y="531" type="line" smooth="yes"/>
      <point x="707" y="538"/>
      <point x="710" y="543"/>
      <point x="718" y="543" type="curve" smooth="yes"/>
      <point x="783" y="543" type="line" smooth="yes"/>
      <point x="797" y="543"/>
      <point x="803" y="549"/>
      <point x="803" y="562" type="curve" smooth="yes"/>
      <point x="803" y="605" type="line" smooth="yes"/>
      <point x="803" y="617"/>
      <point x="797" y="623"/>
      <point x="783" y="623" type="curve" smooth="yes"/>
    </contour>
  </outline>
</glyph>
<glyph name="dvBH_YA" format="2">
  <advance width="850"/>
  <outline>
    <contour>
      <point x="686" y="278" type="line" smooth="yes"/>
      <point x="686" y="210"/>
      <point x="652" y="165"/>
      <point x="570" y="165" type="curve" smooth="yes"/>
      <point x="526" y="165" type="line" smooth="yes"/>
      <point x="449" y="165"/>
      <point x="414" y="204"/>
      <point x="414" y="271" type="curve" smooth="yes"/>
      <point x="414" y="316" type="line"/>
      <point x="425" y="316" type="line" smooth="yes"/>
      <point x="515" y="316"/>
      <point x="563" y="356"/>
      <point x="563" y="443" type="curve" smooth="yes"/>
      <point x="563" y="464" type="line" smooth="yes"/>
      <point x="563" y="503"/>
      <point x="547" y="528"/>
      <point x="528" y="538" type="curve"/>
      <point x="528" y="543" type="line"/>
      <point x="675" y="543" type="line" smooth="yes"/>
      <point x="683" y="543"/>
      <point x="686" y="538"/>
      <point x="686" y="531" type="curve" smooth="yes"/>
    </contour>
    <contour>
      <point x="269" y="623" type="line" smooth="yes"/>
      <point x="256" y="623"/>
      <point x="250" y="618"/>
      <point x="250" y="605" type="curve" smooth="yes"/>
      <point x="250" y="562" type="line" smooth="yes"/>
      <point x="250" y="549"/>
      <point x="256" y="543"/>
      <point x="269" y="543" type="curve" smooth="yes"/>
      <point x="407" y="543" type="line" smooth="yes"/>
      <point x="456" y="543"/>
      <point x="476" y="521"/>
      <point x="476" y="475" type="curve" smooth="yes"/>
      <point x="476" y="461" type="line" smooth="yes"/>
      <point x="476" y="411"/>
      <point x="457" y="395"/>
      <point x="407" y="395" type="curve" smooth="yes"/>
      <point x="344" y="395" type="line" smooth="yes"/>
      <point x="330" y="395"/>
      <point x="325" y="388"/>
      <point x="325" y="376" type="curve" smooth="yes"/>
      <point x="325" y="333" type="line"/>
      <point x="169" y="333" type="line" smooth="yes"/>
      <point x="162" y="333"/>
      <point x="158" y="337"/>
      <point x="158" y="345" type="curve" smooth="yes"/>
      <point x="158" y="472" type="line" smooth="yes"/>
      <point x="158" y="570"/>
      <point x="103" y="623"/>
      <point x="7" y="623" type="curve" smooth="yes"/>
      <point x="-5" y="623" type="line" smooth="yes"/>
      <point x="-18" y="623"/>
      <point x="-24" y="617"/>
      <point x="-24" y="604" type="curve" smooth="yes"/>
      <point x="-24" y="562" type="line" smooth="yes"/>
      <point x="-24" y="549"/>
      <point x="-18" y="543"/>
      <point x="-5" y="543" type="curve" smooth="yes"/>
      <point x="5" y="543" type="line" smooth="yes"/>
      <point x="53" y="543"/>
      <point x="68" y="513"/>
      <point x="68" y="469" type="curve" smooth="yes"/>
      <point x="68" y="169" type="line" smooth="yes"/>
      <point x="68" y="155"/>
      <point x="74" y="150"/>
      <point x="87" y="150" type="curve" smooth="yes"/>
      <point x="139" y="150" type="line" smooth="yes"/>
      <point x="152" y="150"/>
      <point x="158" y="155"/>
      <point x="158" y="169" type="curve" smooth="yes"/>
      <point x="158" y="241" type="line" smooth="yes"/>
      <point x="158" y="249"/>
      <point x="162" y="253"/>
      <point x="170" y="253" type="curve" smooth="yes"/>
      <point x="326" y="253" type="line"/>
      <point x="333" y="163"/>
      <point x="396" y="84"/>
      <point x="516" y="84" type="curve" smooth="yes"/>
      <point x="568" y="84" type="line" smooth="yes"/>
      <point x="624" y="84"/>
      <point x="664" y="104"/>
      <point x="682" y="137" type="curve"/>
      <point x="686" y="137" type="line"/>
      <point x="686" y="19" type="line" smooth="yes"/>
      <point x="686" y="5"/>
      <point x="693" y="0"/>
      <point x="705" y="0" type="curve" smooth="yes"/>
      <point x="758" y="0" type="line" smooth="yes"/>
      <point x="771" y="0"/>
      <point x="777" y="5"/>
      <point x="777" y="19" type="curve" smooth="yes"/>
      <point x="777" y="531" type="line" smooth="yes"/>
      <point x="777" y="538"/>
      <point x="781" y="543"/>
      <point x="788" y="543" type="curve" smooth="yes"/>
      <point x="854" y="543" type="line" smooth="yes"/>
      <point x="868" y="543"/>
      <point x="873" y="549"/>
      <point x="873" y="562" type="curve" smooth="yes"/>
      <point x="873" y="605" type="line" smooth="yes"/>
      <point x="873" y="617"/>
      <point x="868" y="623"/>
      <point x="854" y="623" type="curve" smooth="yes"/>
    </contour>
  </outline>
</glyph>
<glyph name="dvB_BA" format="2">
  <advance width="809"/>
  <outline>
    <contour>
      <point x="514" y="154" type="line" smooth="yes"/>
      <point x="457" y="154"/>
      <point x="433" y="183"/>
      <point x="433" y="237" type="curve" smooth="yes"/>
      <point x="433" y="310" type="line" smooth="yes"/>
      <point x="433" y="322"/>
      <point x="434" y="333"/>
      <point x="437" y="343" type="curve"/>
      <point x="618" y="171" type="line"/>
      <point x="604" y="160"/>
      <point x="585" y="154"/>
      <point x="560" y="154" type="curve" smooth="yes"/>
    </contour>
    <contour>
      <point x="217" y="154" type="line" smooth="yes"/>
      <point x="160" y="154"/>
      <point x="136" y="183"/>
      <point x="136" y="237" type="curve" smooth="yes"/>
      <point x="136" y="310" type="line" smooth="yes"/>
      <point x="136" y="320"/>
      <point x="137" y="329"/>
      <point x="139" y="338" type="curve"/>
      <point x="319" y="168" type="line"/>
      <point x="306" y="159"/>
      <point x="288" y="154"/>
      <point x="265" y="154" type="curve" smooth="yes"/>
    </contour>
    <contour>
      <point x="-5" y="623" type="line" smooth="yes"/>
      <point x="-18" y="623"/>
      <point x="-24" y="617"/>
      <point x="-24" y="605" type="curve" smooth="yes"/>
      <point x="-24" y="562" type="line" smooth="yes"/>
      <point x="-24" y="549"/>
      <point x="-18" y="543"/>
      <point x="-5" y="543" type="curve" smooth="yes"/>
      <point x="635" y="543" type="line" smooth="yes"/>
      <point x="642" y="543"/>
      <point x="646" y="538"/>
      <point x="646" y="531" type="curve" smooth="yes"/>
      <point x="646" y="240" type="line" smooth="yes"/>
      <point x="646" y="233"/>
      <point x="645" y="227"/>
      <point x="644" y="220" type="curve"/>
      <point x="471" y="384" type="line"/>
      <point x="483" y="390"/>
      <point x="498" y="393"/>
      <point x="515" y="393" type="curve" smooth="yes"/>
      <point x="568" y="393" type="line" smooth="yes"/>
      <point x="581" y="393"/>
      <point x="587" y="399"/>
      <point x="587" y="411" type="curve" smooth="yes"/>
      <point x="587" y="452" type="line" smooth="yes"/>
      <point x="587" y="465"/>
      <point x="581" y="471"/>
      <point x="568" y="471" type="curve" smooth="yes"/>
      <point x="506" y="471" type="line" smooth="yes"/>
      <point x="404" y="471"/>
      <point x="347" y="411"/>
      <point x="346" y="312" type="curve"/>
      <point x="346" y="236" type="line"/>
      <point x="346" y="223" type="line"/>
      <point x="345" y="215" type="line"/>
      <point x="170" y="382" type="line"/>
      <point x="182" y="389"/>
      <point x="198" y="393"/>
      <point x="218" y="393" type="curve" smooth="yes"/>
      <point x="270" y="393" type="line" smooth="yes"/>
      <point x="284" y="393"/>
      <point x="290" y="399"/>
      <point x="290" y="411" type="curve" smooth="yes"/>
      <point x="290" y="452" type="line" smooth="yes"/>
      <point x="290" y="465"/>
      <point x="284" y="471"/>
      <point x="270" y="471" type="curve" smooth="yes"/>
      <point x="208" y="471" type="line" smooth="yes"/>
      <point x="107" y="471"/>
      <point x="50" y="411"/>
      <point x="49" y="312" type="curve"/>
      <point x="49" y="236" type="line" smooth="yes"/>
      <point x="49" y="136"/>
      <point x="110" y="76"/>
      <point x="209" y="76" type="curve" smooth="yes"/>
      <point x="260" y="76" type="line" smooth="yes"/>
      <point x="312" y="76"/>
      <point x="353" y="95"/>
      <point x="378" y="131" type="curve"/>
      <point x="406" y="96"/>
      <point x="450" y="77"/>
      <point x="506" y="77" type="curve" smooth="yes"/>
      <point x="547" y="77" type="line" smooth="yes"/>
      <point x="592" y="77"/>
      <point x="627" y="93"/>
      <point x="642" y="119" type="curve"/>
      <point x="646" y="119" type="line"/>
      <point x="646" y="20" type="line" smooth="yes"/>
      <point x="646" y="6"/>
      <point x="652" y="0"/>
      <point x="664" y="0" type="curve" smooth="yes"/>
      <point x="718" y="0" type="line" smooth="yes"/>
      <point x="730" y="0"/>
      <point x="737" y="6"/>
      <point x="737" y="20" type="curve" smooth="yes"/>
      <point x="737" y="531" type="line" smooth="yes"/>
      <point x="737" y="538"/>
      <point x="740" y="543"/>
      <point x="748" y="543" type="curve" smooth="yes"/>
      <point x="813" y="543" type="line" smooth="yes"/>
      <point x="827" y="543"/>
      <point x="833" y="549"/>
      <point x="833" y="562" type="curve" smooth="yes"/>
      <point x="833" y="605" type="line" smooth="yes"/>
      <point x="833" y="617"/>
      <point x="827" y="623"/>
      <point x="813" y="623" type="curve" smooth="yes"/>
    </contour>
  </outline>
</glyph>
<glyph name="dvB_DA" format="2">
  <advance width="781"/>
  <outline>
    <contour>
      <point x="217" y="154" type="line" smooth="yes"/>
      <point x="160" y="154"/>
      <point x="136" y="183"/>
      <point x="136" y="237" type="curve" smooth="yes"/>
      <point x="136" y="310" type="line" smooth="yes"/>
      <point x="136" y="320"/>
      <point x="137" y="329"/>
      <point x="139" y="338" type="curve"/>
      <point x="319" y="168" type="line"/>
      <point x="306" y="159"/>
      <point x="288" y="154"/>
      <point x="265" y="154" type="curve" smooth="yes"/>
    </contour>
    <contour>
      <point x="-5" y="623" type="line" smooth="yes"/>
      <point x="-18" y="623"/>
      <point x="-24" y="617"/>
      <point x="-24" y="605" type="curve" smooth="yes"/>
      <point x="-24" y="562" type="line" smooth="yes"/>
      <point x="-24" y="549"/>
      <point x="-18" y="543"/>
      <point x="-5" y="543" type="curve" smooth="yes"/>
      <point x="612" y="543" type="line" smooth="yes"/>
      <point x="619" y="543"/>
      <point x="622" y="538"/>
      <point x="622" y="531" type="curve" smooth="yes"/>
      <point x="622" y="474" type="line" smooth="yes"/>
      <point x="622" y="467"/>
      <point x="619" y="462"/>
      <point x="612" y="462" type="curve" smooth="yes"/>
      <point x="501" y="462" type="line" smooth="yes"/>
      <point x="400" y="462"/>
      <point x="347" y="407"/>
      <point x="347" y="305" type="curve" smooth="yes"/>
      <point x="347" y="237" type="line" smooth="yes"/>
      <point x="347" y="229"/>
      <point x="346" y="222"/>
      <point x="345" y="215" type="curve"/>
      <point x="170" y="382" type="line"/>
      <point x="182" y="389"/>
      <point x="198" y="393"/>
      <point x="218" y="393" type="curve" smooth="yes"/>
      <point x="270" y="393" type="line" smooth="yes"/>
      <point x="284" y="393"/>
      <point x="290" y="399"/>
      <point x="290" y="411" type="curve" smooth="yes"/>
      <point x="290" y="452" type="line" smooth="yes"/>
      <point x="290" y="465"/>
      <point x="284" y="471"/>
      <point x="270" y="471" type="curve" smooth="yes"/>
      <point x="208" y="471" type="line" smooth="yes"/>
      <point x="107" y="471"/>
      <point x="50" y="411"/>
      <point x="49" y="312" type="curve"/>
      <point x="49" y="236" type="line" smooth="yes"/>
      <point x="49" y="136"/>
      <point x="110" y="76"/>
      <point x="209" y="76" type="curve" smooth="yes"/>
      <point x="260" y="76" type="line" smooth="yes"/>
      <point x="310" y="76"/>
      <point x="349" y="93"/>
      <point x="375" y="127" type="curve"/>
      <point x="401" y="91"/>
      <point x="443" y="71"/>
      <point x="504" y="71" type="curve" smooth="yes"/>
      <point x="557" y="71" type="line" smooth="yes"/>
      <point x="592" y="71"/>
      <point x="617" y="82"/>
      <point x="628" y="103" type="curve"/>
      <point x="632" y="103" type="line"/>
      <point x="632" y="19" type="line" smooth="yes"/>
      <point x="632" y="5"/>
      <point x="639" y="0"/>
      <point x="651" y="0" type="curve" smooth="yes"/>
      <point x="702" y="0" type="line" smooth="yes"/>
      <point x="715" y="0"/>
      <point x="721" y="5"/>
      <point x="721" y="19" type="curve" smooth="yes"/>
      <point x="721" y="254" type="line" smooth="yes"/>
      <point x="721" y="268"/>
      <point x="715" y="273"/>
      <point x="702" y="273" type="curve" smooth="yes"/>
      <point x="651" y="273" type="line" smooth="yes"/>
      <point x="639" y="273"/>
      <point x="632" y="268"/>
      <point x="632" y="254" type="curve" smooth="yes"/>
      <point x="632" y="212" type="line" smooth="yes"/>
      <point x="632" y="171"/>
      <point x="610" y="152"/>
      <point x="573" y="152" type="curve" smooth="yes"/>
      <point x="517" y="152" type="line" smooth="yes"/>
      <point x="463" y="152"/>
      <point x="438" y="174"/>
      <point x="438" y="228" type="curve" smooth="yes"/>
      <point x="438" y="301" type="line" smooth="yes"/>
      <point x="438" y="354"/>
      <point x="462" y="381"/>
      <point x="513" y="381" type="curve" smooth="yes"/>
      <point x="672" y="381" type="line" smooth="yes"/>
      <point x="695" y="381"/>
      <point x="712" y="395"/>
      <point x="712" y="422" type="curve" smooth="yes"/>
      <point x="712" y="531" type="line" smooth="yes"/>
      <point x="712" y="538"/>
      <point x="716" y="543"/>
      <point x="723" y="543" type="curve" smooth="yes"/>
      <point x="786" y="543" type="line" smooth="yes"/>
      <point x="799" y="543"/>
      <point x="805" y="549"/>
      <point x="805" y="562" type="curve" smooth="yes"/>
      <point x="805" y="605" type="line" smooth="yes"/>
      <point x="805" y="617"/>
      <point x="799" y="623"/>
      <point x="786" y="623" type="curve" smooth="yes"/>
    </contour>
  </outline>
</glyph>
<glyph name="dvB_DHA" format="2">
  <advance width="843"/>
  <outline>
    <contour>
      <point x="217" y="159" type="line" smooth="yes"/>
      <point x="160" y="159"/>
      <point x="136" y="188"/>
      <point x="136" y="241" type="curve" smooth="yes"/>
      <point x="136" y="310" type="line" smooth="yes"/>
      <point x="136" y="320"/>
      <point x="137" y="329"/>
      <point x="139" y="338" type="curve"/>
      <point x="315" y="171" type="line"/>
      <point x="303" y="163"/>
      <point x="286" y="159"/>
      <point x="265" y="159" type="curve" smooth="yes"/>
    </contour>
    <contour>
      <point x="616" y="623" type="line" smooth="yes"/>
      <point x="602" y="623"/>
      <point x="596" y="617"/>
      <point x="596" y="605" type="curve" smooth="yes"/>
      <point x="596" y="562" type="line" smooth="yes"/>
      <point x="596" y="549"/>
      <point x="602" y="543"/>
      <point x="616" y="543" type="curve" smooth="yes"/>
      <point x="668" y="543" type="line" smooth="yes"/>
      <point x="676" y="543"/>
      <point x="679" y="538"/>
      <point x="679" y="531" type="curve" smooth="yes"/>
      <point x="679" y="252" type="line" smooth="yes"/>
      <point x="679" y="197"/>
      <point x="653" y="158"/>
      <point x="579" y="157" type="curve" smooth="yes"/>
      <point x="505" y="157" type="line" smooth="yes"/>
      <point x="456" y="157"/>
      <point x="436" y="176"/>
      <point x="436" y="228" type="curve" smooth="yes"/>
      <point x="436" y="258" type="line" smooth="yes"/>
      <point x="436" y="295"/>
      <point x="456" y="314"/>
      <point x="489" y="314" type="curve" smooth="yes"/>
      <point x="553" y="314" type="line" smooth="yes"/>
      <point x="566" y="314"/>
      <point x="572" y="319"/>
      <point x="572" y="332" type="curve" smooth="yes"/>
      <point x="572" y="376" type="line" smooth="yes"/>
      <point x="572" y="388"/>
      <point x="566" y="395"/>
      <point x="553" y="395" type="curve" smooth="yes"/>
      <point x="489" y="395" type="line" smooth="yes"/>
      <point x="454" y="395"/>
      <point x="436" y="413"/>
      <point x="436" y="448" type="curve" smooth="yes"/>
      <point x="436" y="488" type="line" smooth="yes"/>
      <point x="436" y="526"/>
      <point x="453" y="543"/>
      <point x="484" y="543" type="curve" smooth="yes"/>
      <point x="503" y="543" type="line" smooth="yes"/>
      <point x="516" y="543"/>
      <point x="522" y="549"/>
      <point x="522" y="562" type="curve" smooth="yes"/>
      <point x="522" y="605" type="line" smooth="yes"/>
      <point x="522" y="617"/>
      <point x="516" y="623"/>
      <point x="503" y="623" type="curve" smooth="yes"/>
      <point x="-5" y="623" type="line" smooth="yes"/>
      <point x="-18" y="623"/>
      <point x="-24" y="617"/>
      <point x="-24" y="605" type="curve" smooth="yes"/>
      <point x="-24" y="562" type="line" smooth="yes"/>
      <point x="-24" y="549"/>
      <point x="-18" y="543"/>
      <point x="-5" y="543" type="curve" smooth="yes"/>
      <point x="375" y="543" type="line"/>
      <point x="375" y="539" type="line"/>
      <point x="354" y="528"/>
      <point x="346" y="509"/>
      <point x="346" y="481" type="curve" smooth="yes"/>
      <point x="346" y="442" type="line" smooth="yes"/>
      <point x="346" y="396"/>
      <point x="363" y="368"/>
      <point x="404" y="354" type="curve"/>
      <point x="404" y="350" type="line"/>
      <point x="364" y="336"/>
      <point x="346" y="302"/>
      <point x="346" y="256" type="curve" smooth="yes"/>
      <point x="346" y="224" type="line"/>
      <point x="345" y="216" type="line"/>
      <point x="170" y="382" type="line"/>
      <point x="182" y="389"/>
      <point x="198" y="393"/>
      <point x="218" y="393" type="curve" smooth="yes"/>
      <point x="260" y="393" type="line" smooth="yes"/>
      <point x="273" y="393"/>
      <point x="279" y="399"/>
      <point x="279" y="411" type="curve" smooth="yes"/>
      <point x="279" y="452" type="line" smooth="yes"/>
      <point x="279" y="465"/>
      <point x="273" y="471"/>
      <point x="260" y="471" type="curve" smooth="yes"/>
      <point x="208" y="471" type="line" smooth="yes"/>
      <point x="107" y="471"/>
      <point x="50" y="411"/>
      <point x="49" y="312" type="curve"/>
      <point x="49" y="241" type="line" smooth="yes"/>
      <point x="49" y="141"/>
      <point x="110" y="81"/>
      <point x="209" y="81" type="curve" smooth="yes"/>
      <point x="256" y="81" type="line" smooth="yes"/>
      <point x="307" y="81"/>
      <point x="346" y="96"/>
      <point x="373" y="126" type="curve"/>
      <point x="397" y="93"/>
      <point x="438" y="75"/>
      <point x="492" y="75" type="curve" smooth="yes"/>
      <point x="585" y="75" type="line" smooth="yes"/>
      <point x="629" y="75"/>
      <point x="662" y="94"/>
      <point x="675" y="121" type="curve"/>
      <point x="679" y="121" type="line"/>
      <point x="679" y="19" type="line" smooth="yes"/>
      <point x="679" y="5"/>
      <point x="686" y="0"/>
      <point x="698" y="0" type="curve" smooth="yes"/>
      <point x="751" y="0" type="line" smooth="yes"/>
      <point x="764" y="0"/>
      <point x="770" y="5"/>
      <point x="770" y="19" type="curve" smooth="yes"/>
      <point x="770" y="531" type="line" smooth="yes"/>
      <point x="770" y="538"/>
      <point x="773" y="543"/>
      <point x="781" y="543" type="curve" smooth="yes"/>
      <point x="847" y="543" type="line" smooth="yes"/>
      <point x="861" y="543"/>
      <point x="866" y="549"/>
      <point x="866" y="562" type="curve" smooth="yes"/>
      <point x="866" y="605" type="line" smooth="yes"/>
      <point x="866" y="617"/>
      <point x="861" y="623"/>
      <point x="847" y="623" type="curve" smooth="yes"/>
    </contour>
  </outline>
</glyph>
<glyph name="dvB_DH_VA" format="2">
  <advance width="1119"/>
  <outline>
    <contour>
      <point x="216" y="154" type="line" smooth="yes"/>
      <point x="159" y="154"/>
      <point x="135" y="183"/>
      <point x="135" y="237" type="curve" smooth="yes"/>
      <point x="135" y="310" type="line" smooth="yes"/>
      <point x="135" y="322"/>
      <point x="136" y="333"/>
      <point x="139" y="343" type="curve"/>
      <point x="320" y="172" type="line"/>
      <point x="306" y="161"/>
      <point x="289" y="154"/>
      <point x="262" y="154" type="curve" smooth="yes"/>
    </contour>
    <contour>
      <point x="631" y="623" type="line" smooth="yes"/>
      <point x="617" y="623"/>
      <point x="611" y="617"/>
      <point x="611" y="605" type="curve" smooth="yes"/>
      <point x="611" y="562" type="line" smooth="yes"/>
      <point x="611" y="549"/>
      <point x="617" y="543"/>
      <point x="631" y="543" type="curve" smooth="yes"/>
      <point x="946" y="543" type="line" smooth="yes"/>
      <point x="953" y="543"/>
      <point x="957" y="538"/>
      <point x="957" y="531" type="curve" smooth="yes"/>
      <point x="957" y="246" type="line" smooth="yes"/>
      <point x="957" y="198"/>
      <point x="932" y="160"/>
      <point x="871" y="160" type="curve" smooth="yes"/>
      <point x="838" y="160" type="line" smooth="yes"/>
      <point x="782" y="160"/>
      <point x="757" y="189"/>
      <point x="757" y="242" type="curve" smooth="yes"/>
      <point x="757" y="303" type="line" smooth="yes"/>
      <point x="757" y="357"/>
      <point x="785" y="385"/>
      <point x="840" y="385" type="curve" smooth="yes"/>
      <point x="879" y="385" type="line" smooth="yes"/>
      <point x="893" y="385"/>
      <point x="899" y="392"/>
      <point x="899" y="404" type="curve" smooth="yes"/>
      <point x="899" y="447" type="line" smooth="yes"/>
      <point x="899" y="460"/>
      <point x="893" y="466"/>
      <point x="879" y="466" type="curve" smooth="yes"/>
      <point x="825" y="466" type="line" smooth="yes"/>
      <point x="724" y="466"/>
      <point x="666" y="407"/>
      <point x="666" y="308" type="curve" smooth="yes"/>
      <point x="666" y="238" type="line" smooth="yes"/>
      <point x="666" y="224"/>
      <point x="667" y="211"/>
      <point x="669" y="199" type="curve"/>
      <point x="652" y="179"/>
      <point x="632" y="158"/>
      <point x="588" y="158" type="curve" smooth="yes"/>
      <point x="514" y="158" type="line" smooth="yes"/>
      <point x="465" y="158"/>
      <point x="445" y="176"/>
      <point x="445" y="228" type="curve" smooth="yes"/>
      <point x="445" y="255" type="line" smooth="yes"/>
      <point x="445" y="291"/>
      <point x="465" y="310"/>
      <point x="499" y="310" type="curve" smooth="yes"/>
      <point x="561" y="310" type="line" smooth="yes"/>
      <point x="574" y="310"/>
      <point x="580" y="316"/>
      <point x="580" y="329" type="curve" smooth="yes"/>
      <point x="580" y="372" type="line" smooth="yes"/>
      <point x="580" y="385"/>
      <point x="574" y="391"/>
      <point x="561" y="391" type="curve" smooth="yes"/>
      <point x="499" y="391" type="line" smooth="yes"/>
      <point x="463" y="391"/>
      <point x="445" y="410"/>
      <point x="445" y="445" type="curve" smooth="yes"/>
      <point x="445" y="488" type="line" smooth="yes"/>
      <point x="445" y="526"/>
      <point x="462" y="543"/>
      <point x="494" y="543" type="curve" smooth="yes"/>
      <point x="510" y="543" type="line" smooth="yes"/>
      <point x="524" y="543"/>
      <point x="529" y="549"/>
      <point x="529" y="562" type="curve" smooth="yes"/>
      <point x="529" y="605" type="line" smooth="yes"/>
      <point x="529" y="617"/>
      <point x="524" y="623"/>
      <point x="510" y="623" type="curve" smooth="yes"/>
      <point x="-5" y="623" type="line" smooth="yes"/>
      <point x="-18" y="623"/>
      <point x="-24" y="617"/>
      <point x="-24" y="605" type="curve" smooth="yes"/>
      <point x="-24" y="562" type="line" smooth="yes"/>
      <point x="-24" y="549"/>
      <point x="-18" y="543"/>
      <point x="-5" y="543" type="curve" smooth="yes"/>
      <point x="384" y="543" type="line"/>
      <point x="384" y="539" type="line"/>
      <point x="364" y="528"/>
      <point x="356" y="509"/>
      <point x="356" y="481" type="curve" smooth="yes"/>
      <point x="356" y="439" type="line" smooth="yes"/>
      <point x="356" y="393"/>
      <point x="372" y="365"/>
      <point x="413" y="350" type="curve"/>
      <point x="413" y="346" type="line"/>
      <point x="374" y="333"/>
      <point x="356" y="299"/>
      <point x="356" y="253" type="curve" smooth="yes"/>
      <point x="356" y="220" type="line"/>
      <point x="356" y="212" type="line"/>
      <point x="356" y="211" type="line"/>
      <point x="173" y="384" type="line"/>
      <point x="185" y="390"/>
      <point x="200" y="393"/>
      <point x="217" y="393" type="curve" smooth="yes"/>
      <point x="270" y="393" type="line" smooth="yes"/>
      <point x="283" y="393"/>
      <point x="289" y="399"/>
      <point x="289" y="411" type="curve" smooth="yes"/>
      <point x="289" y="452" type="line" smooth="yes"/>
      <point x="289" y="465"/>
      <point x="283" y="471"/>
      <point x="270" y="471" type="curve" smooth="yes"/>
      <point x="208" y="471" type="line" smooth="yes"/>
      <point x="106" y="471"/>
      <point x="49" y="411"/>
      <point x="48" y="312" type="curve"/>
      <point x="48" y="236" type="line" smooth="yes"/>
      <point x="48" y="136"/>
      <point x="109" y="77"/>
      <point x="208" y="77" type="curve" smooth="yes"/>
      <point x="256" y="77" type="line" smooth="yes"/>
      <point x="315" y="77"/>
      <point x="356" y="98"/>
      <point x="384" y="124" type="curve"/>
      <point x="409" y="92"/>
      <point x="449" y="75"/>
      <point x="501" y="75" type="curve" smooth="yes"/>
      <point x="594" y="75" type="line" smooth="yes"/>
      <point x="646" y="75"/>
      <point x="682" y="96"/>
      <point x="708" y="122" type="curve"/>
      <point x="735" y="94"/>
      <point x="775" y="79"/>
      <point x="826" y="79" type="curve" smooth="yes"/>
      <point x="858" y="79" type="line" smooth="yes"/>
      <point x="903" y="79"/>
      <point x="938" y="95"/>
      <point x="953" y="121" type="curve"/>
      <point x="957" y="121" type="line"/>
      <point x="957" y="20" type="line" smooth="yes"/>
      <point x="957" y="6"/>
      <point x="963" y="0"/>
      <point x="975" y="0" type="curve" smooth="yes"/>
      <point x="1028" y="0" type="line" smooth="yes"/>
      <point x="1041" y="0"/>
      <point x="1047" y="6"/>
      <point x="1047" y="20" type="curve" smooth="yes"/>
      <point x="1047" y="531" type="line" smooth="yes"/>
      <point x="1047" y="538"/>
      <point x="1051" y="543"/>
      <point x="1058" y="543" type="curve" smooth="yes"/>
      <point x="1124" y="543" type="line" smooth="yes"/>
      <point x="1137" y="543"/>
      <point x="1143" y="549"/>
      <point x="1143" y="562" type="curve" smooth="yes"/>
      <point x="1143" y="605" type="line" smooth="yes"/>
      <point x="1143" y="617"/>
      <point x="1137" y="623"/>
      <point x="1124" y="623" type="curve" smooth="yes"/>
    </contour>
  </outline>
</glyph>
<glyph name="dvB_JHA" format="2">
  <advance width="992"/>
  <outline>
    <contour>
      <point x="830" y="291" type="line" smooth="yes"/>
      <point x="830" y="283"/>
      <point x="826" y="279"/>
      <point x="818" y="279" type="curve" smooth="yes"/>
      <point x="485" y="279" type="line" smooth="yes"/>
      <point x="451" y="279"/>
      <point x="436" y="289"/>
      <point x="436" y="321" type="curve" smooth="yes"/>
      <point x="436" y="346" type="line" smooth="yes"/>
      <point x="436" y="378"/>
      <point x="448" y="392"/>
      <point x="485" y="392" type="curve" smooth="yes"/>
      <point x="651" y="392" type="line" smooth="yes"/>
      <point x="677" y="392"/>
      <point x="697" y="404"/>
      <point x="697" y="435" type="curve" smooth="yes"/>
      <point x="697" y="531" type="line" smooth="yes"/>
      <point x="697" y="538"/>
      <point x="700" y="543"/>
      <point x="708" y="543" type="curve" smooth="yes"/>
      <point x="819" y="543" type="line" smooth="yes"/>
      <point x="826" y="543"/>
      <point x="830" y="538"/>
      <point x="830" y="531" type="curve" smooth="yes"/>
    </contour>
    <contour>
      <point x="217" y="154" type="line" smooth="yes"/>
      <point x="160" y="154"/>
      <point x="136" y="183"/>
      <point x="136" y="237" type="curve" smooth="yes"/>
      <point x="136" y="310" type="line" smooth="yes"/>
      <point x="136" y="320"/>
      <point x="137" y="329"/>
      <point x="139" y="338" type="curve"/>
      <point x="319" y="168" type="line"/>
      <point x="306" y="159"/>
      <point x="288" y="154"/>
      <point x="265" y="154" type="curve" smooth="yes"/>
    </contour>
    <contour>
      <point x="-5" y="623" type="line" smooth="yes"/>
      <point x="-18" y="623"/>
      <point x="-24" y="617"/>
      <point x="-24" y="605" type="curve" smooth="yes"/>
      <point x="-24" y="562" type="line" smooth="yes"/>
      <point x="-24" y="549"/>
      <point x="-18" y="543"/>
      <point x="-5" y="543" type="curve" smooth="yes"/>
      <point x="596" y="543" type="line" smooth="yes"/>
      <point x="603" y="543"/>
      <point x="607" y="538"/>
      <point x="607" y="531" type="curve" smooth="yes"/>
      <point x="607" y="484" type="line" smooth="yes"/>
      <point x="607" y="476"/>
      <point x="603" y="472"/>
      <point x="596" y="472" type="curve" smooth="yes"/>
      <point x="478" y="472" type="line" smooth="yes"/>
      <point x="398" y="472"/>
      <point x="347" y="434"/>
      <point x="347" y="355" type="curve" smooth="yes"/>
      <point x="347" y="237" type="line" smooth="yes"/>
      <point x="347" y="229"/>
      <point x="346" y="222"/>
      <point x="345" y="215" type="curve"/>
      <point x="170" y="382" type="line"/>
      <point x="182" y="389"/>
      <point x="198" y="393"/>
      <point x="218" y="393" type="curve" smooth="yes"/>
      <point x="270" y="393" type="line" smooth="yes"/>
      <point x="284" y="393"/>
      <point x="290" y="399"/>
      <point x="290" y="411" type="curve" smooth="yes"/>
      <point x="290" y="452" type="line" smooth="yes"/>
      <point x="290" y="465"/>
      <point x="284" y="471"/>
      <point x="270" y="471" type="curve" smooth="yes"/>
      <point x="208" y="471" type="line" smooth="yes"/>
      <point x="107" y="471"/>
      <point x="50" y="411"/>
      <point x="49" y="312" type="curve"/>
      <point x="49" y="236" type="line" smooth="yes"/>
      <point x="49" y="136"/>
      <point x="110" y="77"/>
      <point x="209" y="77" type="curve" smooth="yes"/>
      <point x="274" y="77" type="line" smooth="yes"/>
      <point x="363" y="77"/>
      <point x="417" y="123"/>
      <point x="426" y="213" type="curve"/>
      <point x="448" y="205"/>
      <point x="474" y="201"/>
      <point x="502" y="201" type="curve" smooth="yes"/>
      <point x="588" y="201" type="line" smooth="yes"/>
      <point x="623" y="201"/>
      <point x="637" y="186"/>
      <point x="637" y="153" type="curve" smooth="yes"/>
      <point x="637" y="85" type="line" smooth="yes"/>
      <point x="637" y="49"/>
      <point x="622" y="35"/>
      <point x="585" y="35" type="curve" smooth="yes"/>
      <point x="548" y="35" type="line" smooth="yes"/>
      <point x="510" y="35"/>
      <point x="488" y="44"/>
      <point x="488" y="84" type="curve" smooth="yes"/>
      <point x="488" y="99"/>
      <point x="482" y="104"/>
      <point x="469" y="104" type="curve" smooth="yes"/>
      <point x="419" y="104" type="line" smooth="yes"/>
      <point x="406" y="104"/>
      <point x="400" y="99"/>
      <point x="400" y="85" type="curve" smooth="yes"/>
      <point x="400" y="-84" type="line" smooth="yes"/>
      <point x="400" y="-98"/>
      <point x="406" y="-103"/>
      <point x="419" y="-103" type="curve" smooth="yes"/>
      <point x="469" y="-103" type="line" smooth="yes"/>
      <point x="482" y="-103"/>
      <point x="488" y="-98"/>
      <point x="488" y="-84" type="curve" smooth="yes"/>
      <point x="488" y="-15" type="line"/>
      <point x="492" y="-15" type="line"/>
      <point x="504" y="-36"/>
      <point x="528" y="-45"/>
      <point x="563" y="-45" type="curve" smooth="yes"/>
      <point x="597" y="-45" type="line" smooth="yes"/>
      <point x="677" y="-45"/>
      <point x="725" y="1"/>
      <point x="725" y="79" type="curve" smooth="yes"/>
      <point x="725" y="165" type="line" smooth="yes"/>
      <point x="725" y="179"/>
      <point x="721" y="191"/>
      <point x="714" y="200" type="curve"/>
      <point x="818" y="200" type="line" smooth="yes"/>
      <point x="826" y="200"/>
      <point x="830" y="195"/>
      <point x="830" y="188" type="curve" smooth="yes"/>
      <point x="830" y="19" type="line" smooth="yes"/>
      <point x="830" y="5"/>
      <point x="836" y="0"/>
      <point x="849" y="0" type="curve" smooth="yes"/>
      <point x="901" y="0" type="line" smooth="yes"/>
      <point x="914" y="0"/>
      <point x="920" y="5"/>
      <point x="920" y="19" type="curve" smooth="yes"/>
      <point x="920" y="531" type="line" smooth="yes"/>
      <point x="920" y="538"/>
      <point x="924" y="543"/>
      <point x="932" y="543" type="curve" smooth="yes"/>
      <point x="997" y="543" type="line" smooth="yes"/>
      <point x="1012" y="543"/>
      <point x="1016" y="549"/>
      <point x="1016" y="562" type="curve" smooth="yes"/>
      <point x="1016" y="605" type="line" smooth="yes"/>
      <point x="1016" y="617"/>
      <point x="1012" y="623"/>
      <point x="997" y="623" type="curve" smooth="yes"/>
    </contour>
  </outline>
</glyph>
<glyph name="dvB_JxA" format="2">
  <advance width="897"/>
  <outline>
    <contour>
      <point x="401" y="-8" type="line" smooth="yes"/>
      <point x="389" y="-8"/>
      <point x="383" y="-14"/>
      <point x="383" y="-26" type="curve" smooth="yes"/>
      <point x="383" y="-79" type="line" smooth="yes"/>
      <point x="383" y="-92"/>
      <point x="389" y="-98"/>
      <point x="401" y="-98" type="curve" smooth="yes"/>
      <point x="456" y="-98" type="line" smooth="yes"/>
      <point x="468" y="-98"/>
      <point x="473" y="-92"/>
      <point x="473" y="-79" type="curve" smooth="yes"/>
      <point x="473" y="-26" type="line" smooth="yes"/>
      <point x="473" y="-14"/>
      <point x="467" y="-8"/>
      <point x="456" y="-8" type="curve" smooth="yes"/>
    </contour>
    <contour>
      <point x="135" y="295" type="line" smooth="yes"/>
      <point x="135" y="308"/>
      <point x="137" y="319"/>
      <point x="140" y="329" type="curve"/>
      <point x="333" y="136" type="line"/>
      <point x="216" y="136" type="line" smooth="yes"/>
      <point x="159" y="136"/>
      <point x="135" y="165"/>
      <point x="135" y="218" type="curve" smooth="yes"/>
    </contour>
    <contour>
      <point x="-5" y="623" type="line" smooth="yes"/>
      <point x="-18" y="623"/>
      <point x="-24" y="617"/>
      <point x="-24" y="605" type="curve" smooth="yes"/>
      <point x="-24" y="562" type="line" smooth="yes"/>
      <point x="-24" y="549"/>
      <point x="-18" y="543"/>
      <point x="-5" y="543" type="curve" smooth="yes"/>
      <point x="724" y="543" type="line"/>
      <point x="731" y="542"/>
      <point x="734" y="538"/>
      <point x="734" y="531" type="curve" smooth="yes"/>
      <point x="734" y="444" type="line" smooth="yes"/>
      <point x="734" y="436"/>
      <point x="730" y="432"/>
      <point x="723" y="432" type="curve" smooth="yes"/>
      <point x="426" y="432" type="line" smooth="yes"/>
      <point x="413" y="432"/>
      <point x="407" y="426"/>
      <point x="407" y="415" type="curve" smooth="yes"/>
      <point x="407" y="366" type="line" smooth="yes"/>
      <point x="407" y="354"/>
      <point x="413" y="348"/>
      <point x="427" y="348" type="curve" smooth="yes"/>
      <point x="465" y="348" type="line" smooth="yes"/>
      <point x="510" y="348"/>
      <point x="542" y="328"/>
      <point x="542" y="271" type="curve" smooth="yes"/>
      <point x="542" y="214" type="line" smooth="yes"/>
      <point x="542" y="165"/>
      <point x="527" y="136"/>
      <point x="466" y="136" type="curve" smooth="yes"/>
      <point x="409" y="136" type="line"/>
      <point x="175" y="369" type="line"/>
      <point x="186" y="374"/>
      <point x="201" y="377"/>
      <point x="217" y="377" type="curve" smooth="yes"/>
      <point x="270" y="377" type="line" smooth="yes"/>
      <point x="283" y="377"/>
      <point x="289" y="384"/>
      <point x="289" y="396" type="curve" smooth="yes"/>
      <point x="289" y="442" type="line" smooth="yes"/>
      <point x="289" y="455"/>
      <point x="283" y="461"/>
      <point x="270" y="461" type="curve" smooth="yes"/>
      <point x="208" y="461" type="line" smooth="yes"/>
      <point x="106" y="461"/>
      <point x="49" y="401"/>
      <point x="48" y="302" type="curve"/>
      <point x="48" y="214" type="line" smooth="yes"/>
      <point x="48" y="113"/>
      <point x="109" y="55"/>
      <point x="208" y="55" type="curve" smooth="yes"/>
      <point x="493" y="55" type="line" smooth="yes"/>
      <point x="581" y="55"/>
      <point x="632" y="111"/>
      <point x="632" y="207" type="curve" smooth="yes"/>
      <point x="632" y="277" type="line" smooth="yes"/>
      <point x="632" y="310"/>
      <point x="619" y="333"/>
      <point x="596" y="344" type="curve"/>
      <point x="596" y="348" type="line"/>
      <point x="723" y="348" type="line" smooth="yes"/>
      <point x="730" y="348"/>
      <point x="734" y="343"/>
      <point x="734" y="336" type="curve" smooth="yes"/>
      <point x="734" y="19" type="line" smooth="yes"/>
      <point x="734" y="5"/>
      <point x="740" y="0"/>
      <point x="753" y="0" type="curve" smooth="yes"/>
      <point x="805" y="0" type="line" smooth="yes"/>
      <point x="818" y="0"/>
      <point x="825" y="5"/>
      <point x="825" y="19" type="curve" smooth="yes"/>
      <point x="825" y="531" type="line" smooth="yes"/>
      <point x="825" y="538"/>
      <point x="828" y="543"/>
      <point x="836" y="543" type="curve" smooth="yes"/>
      <point x="901" y="543" type="line" smooth="yes"/>
      <point x="916" y="543"/>
      <point x="921" y="549"/>
      <point x="921" y="562" type="curve" smooth="yes"/>
      <point x="921" y="605" type="line" smooth="yes"/>
      <point x="921" y="617"/>
      <point x="916" y="623"/>
      <point x="901" y="623" type="curve" smooth="yes"/>
    </contour>
  </outline>
</glyph>
<glyph name="dvB_LA" format="2">
  <advance width="949"/>
  <outline>
    <contour>
      <point x="217" y="154" type="line" smooth="yes"/>
      <point x="160" y="154"/>
      <point x="136" y="183"/>
      <point x="136" y="237" type="curve" smooth="yes"/>
      <point x="136" y="310" type="line" smooth="yes"/>
      <point x="136" y="320"/>
      <point x="137" y="329"/>
      <point x="139" y="338" type="curve"/>
      <point x="319" y="168" type="line"/>
      <point x="306" y="159"/>
      <point x="288" y="154"/>
      <point x="265" y="154" type="curve" smooth="yes"/>
    </contour>
    <contour>
      <point x="-5" y="623" type="line" smooth="yes"/>
      <point x="-18" y="623"/>
      <point x="-24" y="617"/>
      <point x="-24" y="605" type="curve" smooth="yes"/>
      <point x="-24" y="562" type="line" smooth="yes"/>
      <point x="-24" y="549"/>
      <point x="-18" y="543"/>
      <point x="-5" y="543" type="curve" smooth="yes"/>
      <point x="777" y="543" type="line"/>
      <point x="784" y="542"/>
      <point x="786" y="538"/>
      <point x="786" y="531" type="curve" smooth="yes"/>
      <point x="786" y="411" type="line"/>
      <point x="782" y="411" type="line"/>
      <point x="771" y="431"/>
      <point x="747" y="442"/>
      <point x="710" y="442" type="curve" smooth="yes"/>
      <point x="654" y="442"/>
      <point x="624" y="417"/>
      <point x="612" y="382" type="curve"/>
      <point x="608" y="382" type="line"/>
      <point x="593" y="423"/>
      <point x="559" y="443"/>
      <point x="497" y="443" type="curve" smooth="yes"/>
      <point x="406" y="443"/>
      <point x="347" y="388"/>
      <point x="347" y="283" type="curve" smooth="yes"/>
      <point x="347" y="237" type="line" smooth="yes"/>
      <point x="347" y="229"/>
      <point x="346" y="222"/>
      <point x="345" y="215" type="curve"/>
      <point x="170" y="382" type="line"/>
      <point x="182" y="389"/>
      <point x="198" y="393"/>
      <point x="218" y="393" type="curve" smooth="yes"/>
      <point x="270" y="393" type="line" smooth="yes"/>
      <point x="284" y="393"/>
      <point x="290" y="399"/>
      <point x="290" y="411" type="curve" smooth="yes"/>
      <point x="290" y="452" type="line" smooth="yes"/>
      <point x="290" y="465"/>
      <point x="284" y="471"/>
      <point x="270" y="471" type="curve" smooth="yes"/>
      <point x="208" y="471" type="line" smooth="yes"/>
      <point x="107" y="471"/>
      <point x="50" y="411"/>
      <point x="49" y="312" type="curve"/>
      <point x="49" y="236" type="line" smooth="yes"/>
      <point x="49" y="136"/>
      <point x="110" y="76"/>
      <point x="209" y="76" type="curve" smooth="yes"/>
      <point x="260" y="76" type="line" smooth="yes"/>
      <point x="302" y="76"/>
      <point x="336" y="88"/>
      <point x="361" y="112" type="curve"/>
      <point x="384" y="58"/>
      <point x="434" y="30"/>
      <point x="506" y="30" type="curve" smooth="yes"/>
      <point x="540" y="30" type="line" smooth="yes"/>
      <point x="554" y="30"/>
      <point x="560" y="36"/>
      <point x="560" y="49" type="curve" smooth="yes"/>
      <point x="560" y="93" type="line" smooth="yes"/>
      <point x="560" y="105"/>
      <point x="554" y="111"/>
      <point x="540" y="111" type="curve" smooth="yes"/>
      <point x="519" y="111" type="line" smooth="yes"/>
      <point x="464" y="111"/>
      <point x="436" y="136"/>
      <point x="436" y="193" type="curve" smooth="yes"/>
      <point x="436" y="278" type="line" smooth="yes"/>
      <point x="436" y="335"/>
      <point x="457" y="360"/>
      <point x="503" y="360" type="curve" smooth="yes"/>
      <point x="545" y="360"/>
      <point x="568" y="341"/>
      <point x="568" y="287" type="curve" smooth="yes"/>
      <point x="568" y="215" type="line" smooth="yes"/>
      <point x="568" y="202"/>
      <point x="574" y="196"/>
      <point x="587" y="196" type="curve" smooth="yes"/>
      <point x="636" y="196" type="line" smooth="yes"/>
      <point x="649" y="196"/>
      <point x="655" y="202"/>
      <point x="655" y="215" type="curve" smooth="yes"/>
      <point x="655" y="281" type="line" smooth="yes"/>
      <point x="655" y="340"/>
      <point x="677" y="358"/>
      <point x="721" y="358" type="curve" smooth="yes"/>
      <point x="765" y="358"/>
      <point x="786" y="340"/>
      <point x="786" y="284" type="curve" smooth="yes"/>
      <point x="786" y="19" type="line" smooth="yes"/>
      <point x="786" y="5"/>
      <point x="793" y="0"/>
      <point x="806" y="0" type="curve" smooth="yes"/>
      <point x="858" y="0" type="line" smooth="yes"/>
      <point x="871" y="0"/>
      <point x="877" y="5"/>
      <point x="877" y="19" type="curve" smooth="yes"/>
      <point x="877" y="531" type="line" smooth="yes"/>
      <point x="877" y="538"/>
      <point x="881" y="543"/>
      <point x="888" y="543" type="curve" smooth="yes"/>
      <point x="954" y="543" type="line" smooth="yes"/>
      <point x="968" y="543"/>
      <point x="973" y="549"/>
      <point x="973" y="562" type="curve" smooth="yes"/>
      <point x="973" y="605" type="line" smooth="yes"/>
      <point x="973" y="617"/>
      <point x="968" y="623"/>
      <point x="954" y="623" type="curve" smooth="yes"/>
    </contour>
  </outline>
</glyph>
<glyph name="dvB_L_YA" format="2">
  <advance width="994"/>
  <outline>
    <contour>
      <point x="1149" y="278" type="line" smooth="yes"/>
      <point x="1149" y="210"/>
      <point x="1115" y="165"/>
      <point x="1033" y="165" type="curve" smooth="yes"/>
      <point x="989" y="165" type="line" smooth="yes"/>
      <point x="912" y="165"/>
      <point x="877" y="197"/>
      <point x="877" y="264" type="curve" smooth="yes"/>
      <point x="877" y="291" type="line"/>
      <point x="889" y="291" type="line" smooth="yes"/>
      <point x="978" y="291"/>
      <point x="1026" y="331"/>
      <point x="1026" y="419" type="curve" smooth="yes"/>
      <point x="1026" y="464" type="line" smooth="yes"/>
      <point x="1026" y="503"/>
      <point x="1011" y="528"/>
      <point x="991" y="538" type="curve"/>
      <point x="991" y="543" type="line"/>
      <point x="1138" y="543" type="line" smooth="yes"/>
      <point x="1146" y="543"/>
      <point x="1149" y="538"/>
      <point x="1149" y="531" type="curve" smooth="yes"/>
    </contour>
    <contour>
      <point x="217" y="154" type="line" smooth="yes"/>
      <point x="160" y="154"/>
      <point x="136" y="183"/>
      <point x="136" y="237" type="curve" smooth="yes"/>
      <point x="136" y="310" type="line" smooth="yes"/>
      <point x="136" y="320"/>
      <point x="137" y="329"/>
      <point x="139" y="338" type="curve"/>
      <point x="319" y="168" type="line"/>
      <point x="306" y="159"/>
      <point x="288" y="154"/>
      <point x="265" y="154" type="curve" smooth="yes"/>
    </contour>
    <contour>
      <point x="-5" y="623" type="line" smooth="yes"/>
      <point x="-18" y="623"/>
      <point x="-24" y="617"/>
      <point x="-24" y="605" type="curve" smooth="yes"/>
      <point x="-24" y="562" type="line" smooth="yes"/>
      <point x="-24" y="549"/>
      <point x="-18" y="543"/>
      <point x="-5" y="543" type="curve" smooth="yes"/>
      <point x="870" y="543" type="line" smooth="yes"/>
      <point x="919" y="543"/>
      <point x="940" y="521"/>
      <point x="940" y="475" type="curve" smooth="yes"/>
      <point x="940" y="437" type="line" smooth="yes"/>
      <point x="940" y="387"/>
      <point x="920" y="370"/>
      <point x="870" y="370" type="curve" smooth="yes"/>
      <point x="863" y="370" type="line"/>
      <point x="850" y="425"/>
      <point x="792" y="458"/>
      <point x="721" y="458" type="curve" smooth="yes"/>
      <point x="661" y="458"/>
      <point x="627" y="436"/>
      <point x="612" y="398" type="curve"/>
      <point x="608" y="398" type="line"/>
      <point x="593" y="439"/>
      <point x="559" y="459"/>
      <point x="497" y="459" type="curve" smooth="yes"/>
      <point x="406" y="459"/>
      <point x="347" y="404"/>
      <point x="347" y="299" type="curve" smooth="yes"/>
      <point x="347" y="237" type="line" smooth="yes"/>
      <point x="347" y="229"/>
      <point x="346" y="222"/>
      <point x="345" y="215" type="curve"/>
      <point x="170" y="382" type="line"/>
      <point x="182" y="389"/>
      <point x="198" y="393"/>
      <point x="218" y="393" type="curve" smooth="yes"/>
      <point x="270" y="393" type="line" smooth="yes"/>
      <point x="284" y="393"/>
      <point x="290" y="399"/>
      <point x="290" y="411" type="curve" smooth="yes"/>
      <point x="290" y="452" type="line" smooth="yes"/>
      <point x="290" y="465"/>
      <point x="284" y="471"/>
      <point x="270" y="471" type="curve" smooth="yes"/>
      <point x="208" y="471" type="line" smooth="yes"/>
      <point x="107" y="471"/>
      <point x="50" y="411"/>
      <point x="49" y="312" type="curve"/>
      <point x="49" y="236" type="line" smooth="yes"/>
      <point x="49" y="136"/>
      <point x="110" y="76"/>
      <point x="209" y="76" type="curve" smooth="yes"/>
      <point x="260" y="76" type="line" smooth="yes"/>
      <point x="304" y="76"/>
      <point x="341" y="90"/>
      <point x="366" y="117" type="curve"/>
      <point x="391" y="70"/>
      <point x="439" y="46"/>
      <point x="506" y="46" type="curve" smooth="yes"/>
      <point x="540" y="46" type="line" smooth="yes"/>
      <point x="554" y="46"/>
      <point x="560" y="52"/>
      <point x="560" y="65" type="curve" smooth="yes"/>
      <point x="560" y="109" type="line" smooth="yes"/>
      <point x="560" y="121"/>
      <point x="554" y="127"/>
      <point x="540" y="127" type="curve" smooth="yes"/>
      <point x="519" y="127" type="line" smooth="yes"/>
      <point x="464" y="127"/>
      <point x="436" y="152"/>
      <point x="436" y="209" type="curve" smooth="yes"/>
      <point x="436" y="294" type="line" smooth="yes"/>
      <point x="436" y="351"/>
      <point x="457" y="376"/>
      <point x="503" y="376" type="curve" smooth="yes"/>
      <point x="545" y="376"/>
      <point x="568" y="357"/>
      <point x="568" y="303" type="curve" smooth="yes"/>
      <point x="568" y="231" type="line" smooth="yes"/>
      <point x="568" y="218"/>
      <point x="574" y="212"/>
      <point x="587" y="212" type="curve" smooth="yes"/>
      <point x="636" y="212" type="line" smooth="yes"/>
      <point x="649" y="212"/>
      <point x="655" y="218"/>
      <point x="655" y="231" type="curve" smooth="yes"/>
      <point x="655" y="297" type="line" smooth="yes"/>
      <point x="655" y="356"/>
      <point x="677" y="374"/>
      <point x="721" y="374" type="curve" smooth="yes"/>
      <point x="774" y="374"/>
      <point x="788" y="340"/>
      <point x="788" y="306" type="curve" smooth="yes"/>
      <point x="788" y="264" type="line" smooth="yes"/>
      <point x="788" y="167"/>
      <point x="851" y="84"/>
      <point x="979" y="84" type="curve" smooth="yes"/>
      <point x="1031" y="84" type="line" smooth="yes"/>
      <point x="1088" y="84"/>
      <point x="1127" y="104"/>
      <point x="1145" y="137" type="curve"/>
      <point x="1149" y="137" type="line"/>
      <point x="1149" y="19" type="line" smooth="yes"/>
      <point x="1149" y="5"/>
      <point x="1156" y="0"/>
      <point x="1169" y="0" type="curve" smooth="yes"/>
      <point x="1221" y="0" type="line" smooth="yes"/>
      <point x="1234" y="0"/>
      <point x="1240" y="5"/>
      <point x="1240" y="19" type="curve" smooth="yes"/>
      <point x="1240" y="531" type="line" smooth="yes"/>
      <point x="1240" y="538"/>
      <point x="1244" y="543"/>
      <point x="1251" y="543" type="curve" smooth="yes"/>
      <point x="1317" y="543" type="line" smooth="yes"/>
      <point x="1332" y="543"/>
      <point x="1336" y="549"/>
      <point x="1336" y="562" type="curve" smooth="yes"/>
      <point x="1336" y="605" type="line" smooth="yes"/>
      <point x="1336" y="617"/>
      <point x="1332" y="623"/>
      <point x="1317" y="623" type="curve" smooth="yes"/>
    </contour>
  </outline>
</glyph>
<glyph name="dvB_SA" format="2">
  <advance width="908"/>
  <outline>
    <contour>
      <point x="745" y="344" type="line" smooth="yes"/>
      <point x="745" y="337"/>
      <point x="741" y="332"/>
      <point x="734" y="332" type="curve" smooth="yes"/>
      <point x="559" y="332" type="line"/>
      <point x="559" y="336" type="line"/>
      <point x="576" y="351"/>
      <point x="582" y="374"/>
      <point x="582" y="411" type="curve" smooth="yes"/>
      <point x="582" y="531" type="line" smooth="yes"/>
      <point x="582" y="538"/>
      <point x="585" y="543"/>
      <point x="593" y="543" type="curve" smooth="yes"/>
      <point x="734" y="543" type="line" smooth="yes"/>
      <point x="741" y="543"/>
      <point x="745" y="538"/>
      <point x="745" y="531" type="curve" smooth="yes"/>
    </contour>
    <contour>
      <point x="217" y="154" type="line" smooth="yes"/>
      <point x="160" y="154"/>
      <point x="136" y="183"/>
      <point x="136" y="237" type="curve" smooth="yes"/>
      <point x="136" y="310" type="line" smooth="yes"/>
      <point x="136" y="320"/>
      <point x="137" y="329"/>
      <point x="139" y="338" type="curve"/>
      <point x="319" y="168" type="line"/>
      <point x="306" y="159"/>
      <point x="288" y="154"/>
      <point x="265" y="154" type="curve" smooth="yes"/>
    </contour>
    <contour>
      <point x="-5" y="623" type="line" smooth="yes"/>
      <point x="-18" y="623"/>
      <point x="-24" y="617"/>
      <point x="-24" y="605" type="curve" smooth="yes"/>
      <point x="-24" y="562" type="line" smooth="yes"/>
      <point x="-24" y="549"/>
      <point x="-18" y="543"/>
      <point x="-5" y="543" type="curve" smooth="yes"/>
      <point x="480" y="543" type="line" smooth="yes"/>
      <point x="487" y="543"/>
      <point x="491" y="538"/>
      <point x="491" y="531" type="curve" smooth="yes"/>
      <point x="491" y="388" type="line" smooth="yes"/>
      <point x="491" y="349"/>
      <point x="470" y="332"/>
      <point x="439" y="332" type="curve" smooth="yes"/>
      <point x="370" y="332" type="line" smooth="yes"/>
      <point x="356" y="332"/>
      <point x="347" y="323"/>
      <point x="347" y="310" type="curve" smooth="yes"/>
      <point x="347" y="237" type="line" smooth="yes"/>
      <point x="347" y="229"/>
      <point x="346" y="222"/>
      <point x="345" y="215" type="curve"/>
      <point x="170" y="382" type="line"/>
      <point x="182" y="389"/>
      <point x="198" y="393"/>
      <point x="218" y="393" type="curve" smooth="yes"/>
      <point x="270" y="393" type="line" smooth="yes"/>
      <point x="284" y="393"/>
      <point x="290" y="399"/>
      <point x="290" y="411" type="curve" smooth="yes"/>
      <point x="290" y="452" type="line" smooth="yes"/>
      <point x="290" y="465"/>
      <point x="284" y="471"/>
      <point x="270" y="471" type="curve" smooth="yes"/>
      <point x="208" y="471" type="line" smooth="yes"/>
      <point x="107" y="471"/>
      <point x="50" y="411"/>
      <point x="49" y="312" type="curve"/>
      <point x="49" y="236" type="line" smooth="yes"/>
      <point x="49" y="136"/>
      <point x="110" y="76"/>
      <point x="209" y="76" type="curve" smooth="yes"/>
      <point x="260" y="76" type="line" smooth="yes"/>
      <point x="330" y="76"/>
      <point x="380" y="111"/>
      <point x="399" y="177" type="curve"/>
      <point x="497" y="12" type="line"/>
      <point x="501" y="7"/>
      <point x="506" y="0"/>
      <point x="516" y="0" type="curve" smooth="yes"/>
      <point x="576" y="0" type="line" smooth="yes"/>
      <point x="586" y="0"/>
      <point x="593" y="7"/>
      <point x="593" y="17" type="curve" smooth="yes"/>
      <point x="593" y="23"/>
      <point x="589" y="29"/>
      <point x="587" y="33" type="curve"/>
      <point x="454" y="251" type="line"/>
      <point x="734" y="251" type="line" smooth="yes"/>
      <point x="741" y="251"/>
      <point x="745" y="247"/>
      <point x="745" y="239" type="curve" smooth="yes"/>
      <point x="745" y="19" type="line" smooth="yes"/>
      <point x="745" y="5"/>
      <point x="751" y="0"/>
      <point x="764" y="0" type="curve" smooth="yes"/>
      <point x="817" y="0" type="line" smooth="yes"/>
      <point x="829" y="0"/>
      <point x="836" y="5"/>
      <point x="836" y="19" type="curve" smooth="yes"/>
      <point x="836" y="531" type="line" smooth="yes"/>
      <point x="836" y="538"/>
      <point x="839" y="543"/>
      <point x="847" y="543" type="curve" smooth="yes"/>
      <point x="912" y="543" type="line" smooth="yes"/>
      <point x="927" y="543"/>
      <point x="932" y="549"/>
      <point x="932" y="562" type="curve" smooth="yes"/>
      <point x="932" y="605" type="line" smooth="yes"/>
      <point x="932" y="617"/>
      <point x="927" y="623"/>
      <point x="912" y="623" type="curve" smooth="yes"/>
    </contour>
  </outline>
</glyph>
<glyph name="dvB_SHA" format="2">
  <advance width="929"/>
  <outline>
    <contour>
      <point x="303" y="605" type="line" smooth="yes"/>
      <point x="303" y="617"/>
      <point x="297" y="623"/>
      <point x="283" y="623" type="curve" smooth="yes"/>
      <point x="-5" y="623" type="line" smooth="yes"/>
      <point x="-18" y="623"/>
      <point x="-24" y="617"/>
      <point x="-24" y="605" type="curve" smooth="yes"/>
      <point x="-24" y="562" type="line" smooth="yes"/>
      <point x="-24" y="549"/>
      <point x="-18" y="543"/>
      <point x="-5" y="543" type="curve" smooth="yes"/>
      <point x="283" y="543" type="line" smooth="yes"/>
      <point x="297" y="543"/>
      <point x="303" y="549"/>
      <point x="303" y="562" type="curve" smooth="yes"/>
    </contour>
    <contour>
      <point x="217" y="154" type="line" smooth="yes"/>
      <point x="160" y="154"/>
      <point x="136" y="183"/>
      <point x="136" y="237" type="curve" smooth="yes"/>
      <point x="136" y="310" type="line" smooth="yes"/>
      <point x="136" y="320"/>
      <point x="137" y="329"/>
      <point x="139" y="338" type="curve"/>
      <point x="319" y="167" type="line"/>
      <point x="306" y="158"/>
      <point x="289" y="154"/>
      <point x="267" y="154" type="curve" smooth="yes"/>
    </contour>
    <contour>
      <point x="369" y="437" type="line" smooth="yes"/>
      <point x="369" y="424"/>
      <point x="375" y="418"/>
      <point x="389" y="418" type="curve" smooth="yes"/>
      <point x="440" y="418" type="line" smooth="yes"/>
      <point x="452" y="418"/>
      <point x="458" y="424"/>
      <point x="458" y="437" type="curve" smooth="yes"/>
      <point x="458" y="489" type="line" smooth="yes"/>
      <point x="458" y="529"/>
      <point x="473" y="547"/>
      <point x="515" y="547" type="curve" smooth="yes"/>
      <point x="556" y="547"/>
      <point x="571" y="528"/>
      <point x="571" y="488" type="curve" smooth="yes"/>
      <point x="571" y="398" type="line" smooth="yes"/>
      <point x="571" y="346"/>
      <point x="539" y="325"/>
      <point x="489" y="325" type="curve" smooth="yes"/>
      <point x="373" y="325" type="line" smooth="yes"/>
      <point x="358" y="325"/>
      <point x="349" y="315"/>
      <point x="349" y="302" type="curve" smooth="yes"/>
      <point x="349" y="237" type="line" smooth="yes"/>
      <point x="349" y="229"/>
      <point x="348" y="221"/>
      <point x="347" y="214" type="curve"/>
      <point x="170" y="382" type="line"/>
      <point x="182" y="389"/>
      <point x="198" y="393"/>
      <point x="218" y="393" type="curve" smooth="yes"/>
      <point x="270" y="393" type="line" smooth="yes"/>
      <point x="284" y="393"/>
      <point x="290" y="399"/>
      <point x="290" y="411" type="curve" smooth="yes"/>
      <point x="290" y="452" type="line" smooth="yes"/>
      <point x="290" y="465"/>
      <point x="284" y="471"/>
      <point x="270" y="471" type="curve" smooth="yes"/>
      <point x="208" y="471" type="line" smooth="yes"/>
      <point x="107" y="471"/>
      <point x="50" y="411"/>
      <point x="49" y="312" type="curve"/>
      <point x="49" y="236" type="line" smooth="yes"/>
      <point x="49" y="136"/>
      <point x="110" y="76"/>
      <point x="209" y="76" type="curve" smooth="yes"/>
      <point x="262" y="76" type="line" smooth="yes"/>
      <point x="333" y="76"/>
      <point x="383" y="111"/>
      <point x="401" y="179" type="curve"/>
      <point x="518" y="12" type="line"/>
      <point x="522" y="7"/>
      <point x="527" y="0"/>
      <point x="537" y="0" type="curve" smooth="yes"/>
      <point x="599" y="0" type="line" smooth="yes"/>
      <point x="609" y="0"/>
      <point x="616" y="8"/>
      <point x="616" y="17" type="curve" smooth="yes"/>
      <point x="616" y="21"/>
      <point x="614" y="27"/>
      <point x="611" y="31" type="curve" smooth="yes"/>
      <point x="455" y="245" type="line"/>
      <point x="495" y="245" type="line" smooth="yes"/>
      <point x="605" y="245"/>
      <point x="660" y="302"/>
      <point x="660" y="400" type="curve" smooth="yes"/>
      <point x="660" y="485" type="line" smooth="yes"/>
      <point x="660" y="579"/>
      <point x="605" y="624"/>
      <point x="515" y="624" type="curve" smooth="yes"/>
      <point x="420" y="624"/>
      <point x="369" y="579"/>
      <point x="369" y="485" type="curve" smooth="yes"/>
    </contour>
    <contour>
      <point x="803" y="623" type="line" smooth="yes"/>
      <point x="780" y="623"/>
      <point x="766" y="607"/>
      <point x="766" y="585" type="curve" smooth="yes"/>
      <point x="766" y="19" type="line" smooth="yes"/>
      <point x="766" y="5"/>
      <point x="773" y="0"/>
      <point x="786" y="0" type="curve" smooth="yes"/>
      <point x="838" y="0" type="line" smooth="yes"/>
      <point x="851" y="0"/>
      <point x="857" y="5"/>
      <point x="857" y="19" type="curve" smooth="yes"/>
      <point x="857" y="531" type="line" smooth="yes"/>
      <point x="857" y="538"/>
      <point x="861" y="543"/>
      <point x="868" y="543" type="curve" smooth="yes"/>
      <point x="934" y="543" type="line" smooth="yes"/>
      <point x="948" y="543"/>
      <point x="953" y="549"/>
      <point x="953" y="562" type="curve" smooth="yes"/>
      <point x="953" y="605" type="line" smooth="yes"/>
      <point x="953" y="617"/>
      <point x="948" y="623"/>
      <point x="934" y="623" type="curve" smooth="yes"/>
    </contour>
  </outline>
</glyph>
<glyph name="dvB_TA" format="2">
  <advance width="800"/>
  <outline>
    <contour>
      <point x="217" y="154" type="line" smooth="yes"/>
      <point x="160" y="154"/>
      <point x="136" y="183"/>
      <point x="136" y="237" type="curve" smooth="yes"/>
      <point x="136" y="310" type="line" smooth="yes"/>
      <point x="136" y="320"/>
      <point x="137" y="329"/>
      <point x="139" y="338" type="curve"/>
      <point x="319" y="168" type="line"/>
      <point x="306" y="159"/>
      <point x="288" y="154"/>
      <point x="265" y="154" type="curve" smooth="yes"/>
    </contour>
    <contour>
      <point x="-5" y="623" type="line" smooth="yes"/>
      <point x="-18" y="623"/>
      <point x="-24" y="617"/>
      <point x="-24" y="605" type="curve" smooth="yes"/>
      <point x="-24" y="562" type="line" smooth="yes"/>
      <point x="-24" y="549"/>
      <point x="-18" y="543"/>
      <point x="-5" y="543" type="curve" smooth="yes"/>
      <point x="628" y="543" type="line"/>
      <point x="635" y="542"/>
      <point x="637" y="538"/>
      <point x="637" y="531" type="curve" smooth="yes"/>
      <point x="637" y="441" type="line" smooth="yes"/>
      <point x="637" y="433"/>
      <point x="634" y="429"/>
      <point x="626" y="429" type="curve" smooth="yes"/>
      <point x="505" y="429" type="line" smooth="yes"/>
      <point x="407" y="429"/>
      <point x="347" y="375"/>
      <point x="347" y="271" type="curve" smooth="yes"/>
      <point x="347" y="237" type="line" smooth="yes"/>
      <point x="347" y="229"/>
      <point x="346" y="222"/>
      <point x="345" y="215" type="curve"/>
      <point x="170" y="382" type="line"/>
      <point x="182" y="389"/>
      <point x="198" y="393"/>
      <point x="218" y="393" type="curve" smooth="yes"/>
      <point x="270" y="393" type="line" smooth="yes"/>
      <point x="284" y="393"/>
      <point x="290" y="399"/>
      <point x="290" y="411" type="curve" smooth="yes"/>
      <point x="290" y="452" type="line" smooth="yes"/>
      <point x="290" y="465"/>
      <point x="284" y="471"/>
      <point x="270" y="471" type="curve" smooth="yes"/>
      <point x="208" y="471" type="line" smooth="yes"/>
      <point x="107" y="471"/>
      <point x="50" y="411"/>
      <point x="49" y="312" type="curve"/>
      <point x="49" y="236" type="line" smooth="yes"/>
      <point x="49" y="136"/>
      <point x="110" y="76"/>
      <point x="209" y="76" type="curve" smooth="yes"/>
      <point x="260" y="76" type="line" smooth="yes"/>
      <point x="297" y="76"/>
      <point x="328" y="86"/>
      <point x="353" y="104" type="curve"/>
      <point x="368" y="34"/>
      <point x="417" y="0"/>
      <point x="496" y="0" type="curve" smooth="yes"/>
      <point x="527" y="0" type="line" smooth="yes"/>
      <point x="541" y="0"/>
      <point x="547" y="7"/>
      <point x="547" y="19" type="curve" smooth="yes"/>
      <point x="547" y="59" type="line" smooth="yes"/>
      <point x="547" y="72"/>
      <point x="541" y="78"/>
      <point x="527" y="78" type="curve" smooth="yes"/>
      <point x="516" y="78" type="line" smooth="yes"/>
      <point x="462" y="79"/>
      <point x="438" y="98"/>
      <point x="438" y="157" type="curve" smooth="yes"/>
      <point x="438" y="266" type="line" smooth="yes"/>
      <point x="438" y="323"/>
      <point x="467" y="345"/>
      <point x="517" y="345" type="curve" smooth="yes"/>
      <point x="626" y="345" type="line" smooth="yes"/>
      <point x="634" y="345"/>
      <point x="637" y="341"/>
      <point x="637" y="333" type="curve" smooth="yes"/>
      <point x="637" y="19" type="line" smooth="yes"/>
      <point x="637" y="5"/>
      <point x="644" y="0"/>
      <point x="657" y="0" type="curve" smooth="yes"/>
      <point x="709" y="0" type="line" smooth="yes"/>
      <point x="722" y="0"/>
      <point x="728" y="5"/>
      <point x="728" y="19" type="curve" smooth="yes"/>
      <point x="728" y="531" type="line" smooth="yes"/>
      <point x="728" y="538"/>
      <point x="732" y="543"/>
      <point x="739" y="543" type="curve" smooth="yes"/>
      <point x="805" y="543" type="line" smooth="yes"/>
      <point x="820" y="543"/>
      <point x="824" y="549"/>
      <point x="824" y="562" type="curve" smooth="yes"/>
      <point x="824" y="605" type="line" smooth="yes"/>
      <point x="824" y="617"/>
      <point x="820" y="623"/>
      <point x="805" y="623" type="curve" smooth="yes"/>
    </contour>
  </outline>
</glyph>
<glyph name="dvB_VA" format="2">
  <advance width="800"/>
  <outline>
    <contour>
      <point x="217" y="154" type="line" smooth="yes"/>
      <point x="160" y="154"/>
      <point x="136" y="183"/>
      <point x="136" y="237" type="curve" smooth="yes"/>
      <point x="136" y="310" type="line" smooth="yes"/>
      <point x="136" y="320"/>
      <point x="137" y="329"/>
      <point x="139" y="338" type="curve"/>
      <point x="319" y="168" type="line"/>
      <point x="306" y="159"/>
      <point x="288" y="154"/>
      <point x="265" y="154" type="curve" smooth="yes"/>
    </contour>
    <contour>
      <point x="-5" y="623" type="line" smooth="yes"/>
      <point x="-18" y="623"/>
      <point x="-24" y="617"/>
      <point x="-24" y="605" type="curve" smooth="yes"/>
      <point x="-24" y="562" type="line" smooth="yes"/>
      <point x="-24" y="549"/>
      <point x="-18" y="543"/>
      <point x="-5" y="543" type="curve" smooth="yes"/>
      <point x="627" y="543" type="line" smooth="yes"/>
      <point x="634" y="543"/>
      <point x="638" y="538"/>
      <point x="638" y="531" type="curve" smooth="yes"/>
      <point x="638" y="246" type="line" smooth="yes"/>
      <point x="638" y="198"/>
      <point x="613" y="160"/>
      <point x="552" y="160" type="curve" smooth="yes"/>
      <point x="519" y="160" type="line" smooth="yes"/>
      <point x="463" y="160"/>
      <point x="438" y="189"/>
      <point x="438" y="242" type="curve" smooth="yes"/>
      <point x="438" y="303" type="line" smooth="yes"/>
      <point x="438" y="357"/>
      <point x="466" y="385"/>
      <point x="521" y="385" type="curve" smooth="yes"/>
      <point x="560" y="385" type="line" smooth="yes"/>
      <point x="574" y="385"/>
      <point x="580" y="392"/>
      <point x="580" y="404" type="curve" smooth="yes"/>
      <point x="580" y="447" type="line" smooth="yes"/>
      <point x="580" y="460"/>
      <point x="574" y="466"/>
      <point x="560" y="466" type="curve" smooth="yes"/>
      <point x="506" y="466" type="line" smooth="yes"/>
      <point x="405" y="466"/>
      <point x="347" y="407"/>
      <point x="347" y="308" type="curve" smooth="yes"/>
      <point x="347" y="237" type="line" smooth="yes"/>
      <point x="347" y="229"/>
      <point x="346" y="222"/>
      <point x="345" y="215" type="curve"/>
      <point x="170" y="382" type="line"/>
      <point x="182" y="389"/>
      <point x="198" y="393"/>
      <point x="218" y="393" type="curve" smooth="yes"/>
      <point x="270" y="393" type="line" smooth="yes"/>
      <point x="284" y="393"/>
      <point x="290" y="399"/>
      <point x="290" y="411" type="curve" smooth="yes"/>
      <point x="290" y="452" type="line" smooth="yes"/>
      <point x="290" y="465"/>
      <point x="284" y="471"/>
      <point x="270" y="471" type="curve" smooth="yes"/>
      <point x="208" y="471" type="line" smooth="yes"/>
      <point x="107" y="471"/>
      <point x="50" y="411"/>
      <point x="49" y="312" type="curve"/>
      <point x="49" y="236" type="line" smooth="yes"/>
      <point x="49" y="136"/>
      <point x="110" y="76"/>
      <point x="209" y="76" type="curve" smooth="yes"/>
      <point x="260" y="76" type="line" smooth="yes"/>
      <point x="313" y="76"/>
      <point x="354" y="96"/>
      <point x="379" y="134" type="curve"/>
      <point x="406" y="98"/>
      <point x="450" y="79"/>
      <point x="507" y="79" type="curve" smooth="yes"/>
      <point x="539" y="79" type="line" smooth="yes"/>
      <point x="584" y="79"/>
      <point x="619" y="95"/>
      <point x="634" y="121" type="curve"/>
      <point x="638" y="121" type="line"/>
      <point x="638" y="20" type="line" smooth="yes"/>
      <point x="638" y="6"/>
      <point x="644" y="0"/>
      <point x="656" y="0" type="curve" smooth="yes"/>
      <point x="709" y="0" type="line" smooth="yes"/>
      <point x="722" y="0"/>
      <point x="728" y="6"/>
      <point x="728" y="20" type="curve" smooth="yes"/>
      <point x="728" y="531" type="line" smooth="yes"/>
      <point x="728" y="538"/>
      <point x="732" y="543"/>
      <point x="739" y="543" type="curve" smooth="yes"/>
      <point x="805" y="543" type="line" smooth="yes"/>
      <point x="818" y="543"/>
      <point x="824" y="549"/>
      <point x="824" y="562" type="curve" smooth="yes"/>
      <point x="824" y="605" type="line" smooth="yes"/>
      <point x="824" y="617"/>
      <point x="818" y="623"/>
      <point x="805" y="623" type="curve" smooth="yes"/>
    </contour>
  </outline>
</glyph>
<glyph name="dvCH_R_YA" format="2">
  <advance width="1068"/>
  <outline>
    <contour>
      <point x="905" y="239" type="line" smooth="yes"/>
      <point x="905" y="182"/>
      <point x="871" y="122"/>
      <point x="789" y="122" type="curve" smooth="yes"/>
      <point x="764" y="122" type="line" smooth="yes"/>
      <point x="696" y="122"/>
      <point x="662" y="143"/>
      <point x="662" y="205" type="curve"/>
      <point x="672" y="205" type="line" smooth="yes"/>
      <point x="752" y="205"/>
      <point x="816" y="235"/>
      <point x="816" y="334" type="curve" smooth="yes"/>
      <point x="816" y="423"/>
      <point x="757" y="460"/>
      <point x="673" y="460" type="curve" smooth="yes"/>
      <point x="340" y="460" type="line" smooth="yes"/>
      <point x="327" y="460"/>
      <point x="321" y="454"/>
      <point x="321" y="442" type="curve" smooth="yes"/>
      <point x="321" y="399" type="line" smooth="yes"/>
      <point x="321" y="386"/>
      <point x="327" y="380"/>
      <point x="340" y="380" type="curve" smooth="yes"/>
      <point x="374" y="380" type="line" smooth="yes"/>
      <point x="406" y="380"/>
      <point x="421" y="363"/>
      <point x="421" y="333" type="curve" smooth="yes"/>
      <point x="421" y="200" type="line" smooth="yes"/>
      <point x="421" y="145"/>
      <point x="397" y="122"/>
      <point x="342" y="122" type="curve" smooth="yes"/>
      <point x="226" y="122" type="line" smooth="yes"/>
      <point x="174" y="122"/>
      <point x="152" y="139"/>
      <point x="152" y="190" type="curve" smooth="yes"/>
      <point x="152" y="216" type="line" smooth="yes"/>
      <point x="152" y="256"/>
      <point x="170" y="278"/>
      <point x="213" y="278" type="curve" smooth="yes"/>
      <point x="241" y="278" type="line" smooth="yes"/>
      <point x="255" y="278"/>
      <point x="261" y="284"/>
      <point x="261" y="295" type="curve" smooth="yes"/>
      <point x="261" y="338" type="line" smooth="yes"/>
      <point x="261" y="351"/>
      <point x="255" y="357"/>
      <point x="241" y="357" type="curve" smooth="yes"/>
      <point x="206" y="357" type="line" smooth="yes"/>
      <point x="171" y="357"/>
      <point x="152" y="376"/>
      <point x="152" y="411" type="curve" smooth="yes"/>
      <point x="152" y="479" type="line" smooth="yes"/>
      <point x="152" y="520"/>
      <point x="170" y="543"/>
      <point x="212" y="543" type="curve" smooth="yes"/>
      <point x="894" y="543" type="line" smooth="yes"/>
      <point x="902" y="543"/>
      <point x="905" y="538"/>
      <point x="905" y="531" type="curve" smooth="yes"/>
    </contour>
    <contour>
      <point x="-5" y="623" type="line" smooth="yes"/>
      <point x="-18" y="623"/>
      <point x="-24" y="617"/>
      <point x="-24" y="605" type="curve" smooth="yes"/>
      <point x="-24" y="563" type="line" smooth="yes"/>
      <point x="-24" y="549"/>
      <point x="-18" y="543"/>
      <point x="-5" y="543" type="curve" smooth="yes"/>
      <point x="93" y="543" type="line"/>
      <point x="93" y="539" type="line"/>
      <point x="72" y="529"/>
      <point x="61" y="509"/>
      <point x="61" y="477" type="curve" smooth="yes"/>
      <point x="61" y="398" type="line" smooth="yes"/>
      <point x="61" y="357"/>
      <point x="81" y="327"/>
      <point x="119" y="318" type="curve"/>
      <point x="119" y="314" type="line"/>
      <point x="78" y="300"/>
      <point x="61" y="265"/>
      <point x="61" y="217" type="curve" smooth="yes"/>
      <point x="61" y="181" type="line" smooth="yes"/>
      <point x="61" y="95"/>
      <point x="113" y="46"/>
      <point x="197" y="40" type="curve"/>
      <point x="116" y="-68" type="line" smooth="yes"/>
      <point x="112" y="-73"/>
      <point x="110" y="-77"/>
      <point x="110" y="-83" type="curve" smooth="yes"/>
      <point x="110" y="-92"/>
      <point x="117" y="-96"/>
      <point x="127" y="-96" type="curve" smooth="yes"/>
      <point x="193" y="-96" type="line" smooth="yes"/>
      <point x="203" y="-96"/>
      <point x="209" y="-91"/>
      <point x="214" y="-84" type="curve" smooth="yes"/>
      <point x="291" y="25" type="line"/>
      <point x="296" y="25" type="line"/>
      <point x="372" y="-84" type="line" smooth="yes"/>
      <point x="377" y="-91"/>
      <point x="383" y="-96"/>
      <point x="393" y="-96" type="curve" smooth="yes"/>
      <point x="459" y="-96" type="line" smooth="yes"/>
      <point x="470" y="-96"/>
      <point x="476" y="-92"/>
      <point x="476" y="-83" type="curve" smooth="yes"/>
      <point x="476" y="-77"/>
      <point x="474" y="-73"/>
      <point x="471" y="-68" type="curve"/>
      <point x="389" y="41" type="line"/>
      <point x="470" y="54"/>
      <point x="509" y="118"/>
      <point x="509" y="188" type="curve" smooth="yes"/>
      <point x="509" y="331" type="line" smooth="yes"/>
      <point x="509" y="349"/>
      <point x="507" y="366"/>
      <point x="503" y="380" type="curve"/>
      <point x="675" y="380" type="line" smooth="yes"/>
      <point x="712" y="380"/>
      <point x="729" y="367"/>
      <point x="729" y="332" type="curve" smooth="yes"/>
      <point x="729" y="297"/>
      <point x="713" y="280"/>
      <point x="675" y="280" type="curve" smooth="yes"/>
      <point x="595" y="280" type="line" smooth="yes"/>
      <point x="581" y="280"/>
      <point x="576" y="274"/>
      <point x="576" y="261" type="curve" smooth="yes"/>
      <point x="576" y="201" type="line" smooth="yes"/>
      <point x="576" y="110"/>
      <point x="627" y="45"/>
      <point x="752" y="45" type="curve" smooth="yes"/>
      <point x="788" y="45" type="line" smooth="yes"/>
      <point x="845" y="45"/>
      <point x="882" y="65"/>
      <point x="901" y="98" type="curve"/>
      <point x="905" y="98" type="line"/>
      <point x="905" y="19" type="line" smooth="yes"/>
      <point x="905" y="5"/>
      <point x="912" y="0"/>
      <point x="924" y="0" type="curve" smooth="yes"/>
      <point x="977" y="0" type="line" smooth="yes"/>
      <point x="990" y="0"/>
      <point x="996" y="5"/>
      <point x="996" y="19" type="curve" smooth="yes"/>
      <point x="996" y="531" type="line" smooth="yes"/>
      <point x="996" y="538"/>
      <point x="999" y="543"/>
      <point x="1007" y="543" type="curve" smooth="yes"/>
      <point x="1074" y="543" type="line" smooth="yes"/>
      <point x="1089" y="543"/>
      <point x="1093" y="549"/>
      <point x="1093" y="562" type="curve" smooth="yes"/>
      <point x="1093" y="604" type="line" smooth="yes"/>
      <point x="1093" y="617"/>
      <point x="1089" y="623"/>
      <point x="1074" y="623" type="curve" smooth="yes"/>
    </contour>
  </outline>
</glyph>
<glyph name="dvC_CHA" format="2">
  <advance width="918"/>
  <outline>
    <contour>
      <point x="694" y="418" type="line" smooth="yes"/>
      <point x="681" y="418"/>
      <point x="675" y="411"/>
      <point x="675" y="400" type="curve" smooth="yes"/>
      <point x="675" y="357" type="line" smooth="yes"/>
      <point x="675" y="344"/>
      <point x="681" y="337"/>
      <point x="694" y="337" type="curve" smooth="yes"/>
      <point x="728" y="337" type="line" smooth="yes"/>
      <point x="760" y="337"/>
      <point x="775" y="320"/>
      <point x="775" y="290" type="curve" smooth="yes"/>
      <point x="775" y="200" type="line" smooth="yes"/>
      <point x="775" y="145"/>
      <point x="751" y="122"/>
      <point x="696" y="122" type="curve" smooth="yes"/>
      <point x="580" y="122" type="line" smooth="yes"/>
      <point x="528" y="122"/>
      <point x="506" y="139"/>
      <point x="506" y="190" type="curve" smooth="yes"/>
      <point x="506" y="216" type="line" smooth="yes"/>
      <point x="506" y="256"/>
      <point x="524" y="278"/>
      <point x="567" y="278" type="curve" smooth="yes"/>
      <point x="595" y="278" type="line" smooth="yes"/>
      <point x="609" y="278"/>
      <point x="615" y="284"/>
      <point x="615" y="295" type="curve" smooth="yes"/>
      <point x="615" y="338" type="line" smooth="yes"/>
      <point x="615" y="351"/>
      <point x="609" y="357"/>
      <point x="595" y="357" type="curve" smooth="yes"/>
      <point x="560" y="357" type="line" smooth="yes"/>
      <point x="525" y="357"/>
      <point x="506" y="376"/>
      <point x="506" y="411" type="curve" smooth="yes"/>
      <point x="506" y="479" type="line" smooth="yes"/>
      <point x="506" y="520"/>
      <point x="524" y="543"/>
      <point x="566" y="543" type="curve" smooth="yes"/>
      <point x="743" y="543" type="line"/>
      <point x="752" y="542"/>
      <point x="755" y="539"/>
      <point x="755" y="531" type="curve" smooth="yes"/>
      <point x="755" y="444" type="line" smooth="yes"/>
      <point x="755" y="434"/>
      <point x="754" y="425"/>
      <point x="751" y="417" type="curve"/>
      <point x="746" y="418"/>
      <point x="741" y="418"/>
      <point x="735" y="418" type="curve" smooth="yes"/>
    </contour>
    <contour>
      <point x="-5" y="623" type="line" smooth="yes"/>
      <point x="-18" y="623"/>
      <point x="-24" y="617"/>
      <point x="-24" y="605" type="curve" smooth="yes"/>
      <point x="-24" y="562" type="line" smooth="yes"/>
      <point x="-24" y="549"/>
      <point x="-18" y="543"/>
      <point x="-5" y="543" type="curve" smooth="yes"/>
      <point x="447" y="543" type="line"/>
      <point x="447" y="539" type="line"/>
      <point x="426" y="529"/>
      <point x="415" y="509"/>
      <point x="415" y="477" type="curve" smooth="yes"/>
      <point x="415" y="398" type="line" smooth="yes"/>
      <point x="415" y="357"/>
      <point x="435" y="327"/>
      <point x="473" y="318" type="curve"/>
      <point x="473" y="314" type="line"/>
      <point x="432" y="300"/>
      <point x="415" y="265"/>
      <point x="415" y="217" type="curve" smooth="yes"/>
      <point x="415" y="214" type="line"/>
      <point x="396" y="193"/>
      <point x="374" y="170"/>
      <point x="328" y="170" type="curve" smooth="yes"/>
      <point x="271" y="170" type="line" smooth="yes"/>
      <point x="216" y="170"/>
      <point x="189" y="197"/>
      <point x="189" y="250" type="curve" smooth="yes"/>
      <point x="189" y="283" type="line" smooth="yes"/>
      <point x="189" y="337"/>
      <point x="215" y="365"/>
      <point x="265" y="365" type="curve" smooth="yes"/>
      <point x="321" y="365" type="line" smooth="yes"/>
      <point x="334" y="365"/>
      <point x="340" y="371"/>
      <point x="340" y="383" type="curve" smooth="yes"/>
      <point x="340" y="427" type="line" smooth="yes"/>
      <point x="340" y="439"/>
      <point x="334" y="446"/>
      <point x="321" y="446" type="curve" smooth="yes"/>
      <point x="42" y="446" type="line" smooth="yes"/>
      <point x="28" y="446"/>
      <point x="23" y="439"/>
      <point x="23" y="427" type="curve" smooth="yes"/>
      <point x="23" y="383" type="line" smooth="yes"/>
      <point x="23" y="370"/>
      <point x="28" y="365"/>
      <point x="42" y="365" type="curve" smooth="yes"/>
      <point x="141" y="365" type="line"/>
      <point x="141" y="361" type="line"/>
      <point x="111" y="346"/>
      <point x="100" y="314"/>
      <point x="100" y="275" type="curve" smooth="yes"/>
      <point x="100" y="245" type="line" smooth="yes"/>
      <point x="100" y="145"/>
      <point x="157" y="89"/>
      <point x="257" y="89" type="curve" smooth="yes"/>
      <point x="330" y="89" type="line" smooth="yes"/>
      <point x="369" y="89"/>
      <point x="401" y="101"/>
      <point x="427" y="117" type="curve"/>
      <point x="449" y="66"/>
      <point x="500" y="39"/>
      <point x="571" y="39" type="curve" smooth="yes"/>
      <point x="714" y="39" type="line" smooth="yes"/>
      <point x="815" y="39"/>
      <point x="863" y="110"/>
      <point x="863" y="188" type="curve" smooth="yes"/>
      <point x="863" y="289" type="line" smooth="yes"/>
      <point x="863" y="338"/>
      <point x="849" y="374"/>
      <point x="820" y="395" type="curve"/>
      <point x="835" y="408"/>
      <point x="848" y="429"/>
      <point x="848" y="459" type="curve" smooth="yes"/>
      <point x="848" y="532" type="line" smooth="yes"/>
      <point x="848" y="540"/>
      <point x="852" y="543"/>
      <point x="861" y="543" type="curve" smooth="yes"/>
      <point x="922" y="543" type="line" smooth="yes"/>
      <point x="935" y="543"/>
      <point x="942" y="549"/>
      <point x="942" y="563" type="curve" smooth="yes"/>
      <point x="942" y="605" type="line" smooth="yes"/>
      <point x="942" y="617"/>
      <point x="935" y="623"/>
      <point x="922" y="623" type="curve" smooth="yes"/>
    </contour>
  </outline>
</glyph>
<glyph name="dvC_CH_VA" format="2">
  <advance width="913"/>
  <outline>
    <contour>
      <point x="741" y="433" type="line"/>
      <point x="700" y="433" type="line" smooth="yes"/>
      <point x="687" y="433"/>
      <point x="681" y="427"/>
      <point x="681" y="415" type="curve" smooth="yes"/>
      <point x="681" y="372" type="line" smooth="yes"/>
      <point x="681" y="359"/>
      <point x="687" y="353"/>
      <point x="700" y="353" type="curve" smooth="yes"/>
      <point x="734" y="353" type="line" smooth="yes"/>
      <point x="766" y="353"/>
      <point x="781" y="336"/>
      <point x="781" y="306" type="curve" smooth="yes"/>
      <point x="781" y="231" type="line" smooth="yes"/>
      <point x="781" y="177"/>
      <point x="757" y="153"/>
      <point x="702" y="153" type="curve" smooth="yes"/>
      <point x="586" y="153" type="line" smooth="yes"/>
      <point x="534" y="153"/>
      <point x="512" y="171"/>
      <point x="512" y="221" type="curve" smooth="yes"/>
      <point x="512" y="231" type="line" smooth="yes"/>
      <point x="512" y="272"/>
      <point x="530" y="293"/>
      <point x="573" y="293" type="curve" smooth="yes"/>
      <point x="601" y="293" type="line" smooth="yes"/>
      <point x="615" y="293"/>
      <point x="621" y="300"/>
      <point x="621" y="311" type="curve" smooth="yes"/>
      <point x="621" y="354" type="line" smooth="yes"/>
      <point x="621" y="366"/>
      <point x="615" y="373"/>
      <point x="601" y="373" type="curve" smooth="yes"/>
      <point x="566" y="373" type="line" smooth="yes"/>
      <point x="531" y="373"/>
      <point x="512" y="392"/>
      <point x="512" y="427" type="curve" smooth="yes"/>
      <point x="512" y="479" type="line" smooth="yes"/>
      <point x="512" y="520"/>
      <point x="530" y="543"/>
      <point x="572" y="543" type="curve" smooth="yes"/>
      <point x="739" y="543" type="line"/>
      <point x="747" y="542"/>
      <point x="751" y="539"/>
      <point x="751" y="531" type="curve" smooth="yes"/>
      <point x="751" y="460" type="line" smooth="yes"/>
      <point x="751" y="450"/>
      <point x="750" y="441"/>
      <point x="747" y="433" type="curve"/>
    </contour>
    <contour>
      <point x="623" y="-56" type="line" smooth="yes"/>
      <point x="565" y="-56"/>
      <point x="544" y="-35"/>
      <point x="544" y="10" type="curve" smooth="yes"/>
      <point x="544" y="47"/>
      <point x="560" y="74"/>
      <point x="601" y="74" type="curve" smooth="yes"/>
      <point x="700" y="74" type="line" smooth="yes"/>
      <point x="720" y="74"/>
      <point x="739" y="77"/>
      <point x="757" y="83" type="curve"/>
      <point x="757" y="20" type="line" smooth="yes"/>
      <point x="757" y="-24"/>
      <point x="737" y="-56"/>
      <point x="675" y="-56" type="curve" smooth="yes"/>
    </contour>
    <contour>
      <point x="-5" y="623" type="line" smooth="yes"/>
      <point x="-18" y="623"/>
      <point x="-24" y="617"/>
      <point x="-24" y="605" type="curve" smooth="yes"/>
      <point x="-24" y="562" type="line" smooth="yes"/>
      <point x="-24" y="549"/>
      <point x="-18" y="543"/>
      <point x="-5" y="543" type="curve" smooth="yes"/>
      <point x="453" y="543" type="line"/>
      <point x="453" y="539" type="line"/>
      <point x="432" y="529"/>
      <point x="421" y="509"/>
      <point x="421" y="477" type="curve" smooth="yes"/>
      <point x="421" y="414" type="line" smooth="yes"/>
      <point x="421" y="373"/>
      <point x="441" y="342"/>
      <point x="479" y="333" type="curve"/>
      <point x="479" y="329" type="line"/>
      <point x="438" y="316"/>
      <point x="421" y="280"/>
      <point x="421" y="232" type="curve" smooth="yes"/>
      <point x="421" y="218" type="line"/>
      <point x="402" y="195"/>
      <point x="380" y="170"/>
      <point x="332" y="170" type="curve" smooth="yes"/>
      <point x="271" y="170" type="line" smooth="yes"/>
      <point x="216" y="170"/>
      <point x="189" y="197"/>
      <point x="189" y="250" type="curve" smooth="yes"/>
      <point x="189" y="283" type="line" smooth="yes"/>
      <point x="189" y="337"/>
      <point x="215" y="365"/>
      <point x="265" y="365" type="curve" smooth="yes"/>
      <point x="314" y="365" type="line" smooth="yes"/>
      <point x="327" y="365"/>
      <point x="333" y="371"/>
      <point x="333" y="383" type="curve" smooth="yes"/>
      <point x="333" y="427" type="line" smooth="yes"/>
      <point x="333" y="439"/>
      <point x="327" y="446"/>
      <point x="314" y="446" type="curve" smooth="yes"/>
      <point x="42" y="446" type="line" smooth="yes"/>
      <point x="28" y="446"/>
      <point x="23" y="439"/>
      <point x="23" y="427" type="curve" smooth="yes"/>
      <point x="23" y="383" type="line" smooth="yes"/>
      <point x="23" y="370"/>
      <point x="28" y="365"/>
      <point x="42" y="365" type="curve" smooth="yes"/>
      <point x="141" y="365" type="line"/>
      <point x="141" y="361" type="line"/>
      <point x="111" y="346"/>
      <point x="100" y="314"/>
      <point x="100" y="275" type="curve" smooth="yes"/>
      <point x="100" y="245" type="line" smooth="yes"/>
      <point x="100" y="145"/>
      <point x="157" y="89"/>
      <point x="257" y="89" type="curve" smooth="yes"/>
      <point x="333" y="89" type="line" smooth="yes"/>
      <point x="381" y="89"/>
      <point x="418" y="106"/>
      <point x="445" y="128" type="curve"/>
      <point x="455" y="113"/>
      <point x="469" y="101"/>
      <point x="486" y="93" type="curve"/>
      <point x="466" y="74"/>
      <point x="454" y="46"/>
      <point x="454" y="2" type="curve" smooth="yes"/>
      <point x="454" y="-85"/>
      <point x="510" y="-135"/>
      <point x="603" y="-135" type="curve" smooth="yes"/>
      <point x="693" y="-135" type="line" smooth="yes"/>
      <point x="787" y="-135"/>
      <point x="844" y="-72"/>
      <point x="844" y="26" type="curve" smooth="yes"/>
      <point x="844" y="149" type="line"/>
      <point x="860" y="174"/>
      <point x="869" y="204"/>
      <point x="869" y="237" type="curve" smooth="yes"/>
      <point x="869" y="305" type="line" smooth="yes"/>
      <point x="869" y="357"/>
      <point x="853" y="394"/>
      <point x="820" y="414" type="curve"/>
      <point x="834" y="427"/>
      <point x="844" y="447"/>
      <point x="844" y="475" type="curve" smooth="yes"/>
      <point x="844" y="532" type="line" smooth="yes"/>
      <point x="844" y="540"/>
      <point x="848" y="543"/>
      <point x="856" y="543" type="curve" smooth="yes"/>
      <point x="928" y="543" type="line" smooth="yes"/>
      <point x="941" y="543"/>
      <point x="948" y="549"/>
      <point x="948" y="563" type="curve" smooth="yes"/>
      <point x="948" y="605" type="line" smooth="yes"/>
      <point x="948" y="617"/>
      <point x="941" y="623"/>
      <point x="928" y="623" type="curve" smooth="yes"/>
    </contour>
  </outline>
</glyph>
<glyph name="dvC_NA" format="2">
  <advance width="861"/>
  <outline>
    <contour>
      <point x="-5" y="623" type="line" smooth="yes"/>
      <point x="-18" y="623"/>
      <point x="-24" y="617"/>
      <point x="-24" y="605" type="curve" smooth="yes"/>
      <point x="-24" y="562" type="line" smooth="yes"/>
      <point x="-24" y="549"/>
      <point x="-18" y="543"/>
      <point x="-5" y="543" type="curve" smooth="yes"/>
      <point x="688" y="543" type="line"/>
      <point x="695" y="542"/>
      <point x="698" y="538"/>
      <point x="698" y="531" type="curve" smooth="yes"/>
      <point x="698" y="393" type="line" smooth="yes"/>
      <point x="698" y="386"/>
      <point x="695" y="381"/>
      <point x="687" y="381" type="curve" smooth="yes"/>
      <point x="522" y="381" type="line" smooth="yes"/>
      <point x="453" y="381"/>
      <point x="409" y="338"/>
      <point x="409" y="270" type="curve" smooth="yes"/>
      <point x="409" y="258" type="line"/>
      <point x="407" y="255" type="line"/>
      <point x="386" y="233"/>
      <point x="366" y="204"/>
      <point x="315" y="204" type="curve" smooth="yes"/>
      <point x="271" y="204" type="line" smooth="yes"/>
      <point x="221" y="204"/>
      <point x="189" y="224"/>
      <point x="189" y="277" type="curve" smooth="yes"/>
      <point x="189" y="290" type="line" smooth="yes"/>
      <point x="189" y="344"/>
      <point x="215" y="372"/>
      <point x="265" y="372" type="curve" smooth="yes"/>
      <point x="321" y="372" type="line" smooth="yes"/>
      <point x="334" y="372"/>
      <point x="340" y="378"/>
      <point x="340" y="390" type="curve" smooth="yes"/>
      <point x="340" y="434" type="line" smooth="yes"/>
      <point x="340" y="446"/>
      <point x="334" y="453"/>
      <point x="321" y="453" type="curve" smooth="yes"/>
      <point x="42" y="453" type="line" smooth="yes"/>
      <point x="28" y="453"/>
      <point x="23" y="446"/>
      <point x="23" y="434" type="curve" smooth="yes"/>
      <point x="23" y="390" type="line" smooth="yes"/>
      <point x="23" y="377"/>
      <point x="28" y="372"/>
      <point x="42" y="372" type="curve" smooth="yes"/>
      <point x="141" y="372" type="line"/>
      <point x="141" y="368" type="line"/>
      <point x="111" y="353"/>
      <point x="100" y="321"/>
      <point x="100" y="282" type="curve" smooth="yes"/>
      <point x="100" y="272" type="line" smooth="yes"/>
      <point x="100" y="177"/>
      <point x="157" y="123"/>
      <point x="257" y="123" type="curve" smooth="yes"/>
      <point x="316" y="123" type="line" smooth="yes"/>
      <point x="364" y="123"/>
      <point x="400" y="141"/>
      <point x="426" y="165" type="curve"/>
      <point x="430" y="155"/>
      <point x="433" y="147"/>
      <point x="437" y="142" type="curve" smooth="yes"/>
      <point x="443" y="134"/>
      <point x="452" y="129"/>
      <point x="464" y="129" type="curve" smooth="yes"/>
      <point x="502" y="129" type="line" smooth="yes"/>
      <point x="514" y="129"/>
      <point x="520" y="136"/>
      <point x="520" y="147" type="curve" smooth="yes"/>
      <point x="520" y="153"/>
      <point x="518" y="159"/>
      <point x="515" y="168" type="curve" smooth="yes"/>
      <point x="511" y="181"/>
      <point x="499" y="213"/>
      <point x="499" y="252" type="curve" smooth="yes"/>
      <point x="499" y="289"/>
      <point x="519" y="300"/>
      <point x="555" y="300" type="curve" smooth="yes"/>
      <point x="687" y="300" type="line" smooth="yes"/>
      <point x="695" y="300"/>
      <point x="698" y="295"/>
      <point x="698" y="287" type="curve" smooth="yes"/>
      <point x="698" y="19" type="line" smooth="yes"/>
      <point x="698" y="5"/>
      <point x="704" y="0"/>
      <point x="717" y="0" type="curve" smooth="yes"/>
      <point x="770" y="0" type="line" smooth="yes"/>
      <point x="782" y="0"/>
      <point x="789" y="5"/>
      <point x="789" y="19" type="curve" smooth="yes"/>
      <point x="789" y="531" type="line" smooth="yes"/>
      <point x="789" y="538"/>
      <point x="792" y="543"/>
      <point x="800" y="543" type="curve" smooth="yes"/>
      <point x="865" y="543" type="line" smooth="yes"/>
      <point x="880" y="543"/>
      <point x="885" y="549"/>
      <point x="885" y="562" type="curve" smooth="yes"/>
      <point x="885" y="605" type="line" smooth="yes"/>
      <point x="885" y="617"/>
      <point x="880" y="623"/>
      <point x="865" y="623" type="curve" smooth="yes"/>
    </contour>
  </outline>
</glyph>
<glyph name="dvC_YA" format="2">
  <advance width="933"/>
  <outline>
    <contour>
      <point x="770" y="278" type="line" smooth="yes"/>
      <point x="770" y="210"/>
      <point x="736" y="165"/>
      <point x="654" y="165" type="curve" smooth="yes"/>
      <point x="610" y="165" type="line" smooth="yes"/>
      <point x="533" y="165"/>
      <point x="498" y="204"/>
      <point x="498" y="271" type="curve" smooth="yes"/>
      <point x="498" y="316" type="line"/>
      <point x="509" y="316" type="line" smooth="yes"/>
      <point x="599" y="316"/>
      <point x="647" y="356"/>
      <point x="647" y="443" type="curve" smooth="yes"/>
      <point x="647" y="464" type="line" smooth="yes"/>
      <point x="647" y="503"/>
      <point x="631" y="528"/>
      <point x="612" y="538" type="curve"/>
      <point x="612" y="543" type="line"/>
      <point x="759" y="543" type="line" smooth="yes"/>
      <point x="767" y="543"/>
      <point x="770" y="538"/>
      <point x="770" y="531" type="curve" smooth="yes"/>
    </contour>
    <contour>
      <point x="-5" y="623" type="line" smooth="yes"/>
      <point x="-18" y="623"/>
      <point x="-24" y="617"/>
      <point x="-24" y="605" type="curve" smooth="yes"/>
      <point x="-24" y="562" type="line" smooth="yes"/>
      <point x="-24" y="549"/>
      <point x="-18" y="543"/>
      <point x="-5" y="543" type="curve" smooth="yes"/>
      <point x="491" y="543" type="line" smooth="yes"/>
      <point x="540" y="543"/>
      <point x="560" y="521"/>
      <point x="560" y="475" type="curve" smooth="yes"/>
      <point x="560" y="461" type="line" smooth="yes"/>
      <point x="560" y="411"/>
      <point x="541" y="395"/>
      <point x="491" y="395" type="curve" smooth="yes"/>
      <point x="428" y="395" type="line" smooth="yes"/>
      <point x="414" y="395"/>
      <point x="409" y="388"/>
      <point x="409" y="376" type="curve" smooth="yes"/>
      <point x="409" y="271" type="line" smooth="yes"/>
      <point x="409" y="255"/>
      <point x="411" y="240"/>
      <point x="414" y="225" type="curve"/>
      <point x="410" y="221" type="line" smooth="yes"/>
      <point x="389" y="198"/>
      <point x="368" y="170"/>
      <point x="317" y="170" type="curve" smooth="yes"/>
      <point x="271" y="170" type="line" smooth="yes"/>
      <point x="216" y="170"/>
      <point x="189" y="197"/>
      <point x="189" y="250" type="curve" smooth="yes"/>
      <point x="189" y="283" type="line" smooth="yes"/>
      <point x="189" y="337"/>
      <point x="215" y="365"/>
      <point x="265" y="365" type="curve" smooth="yes"/>
      <point x="321" y="365" type="line" smooth="yes"/>
      <point x="334" y="365"/>
      <point x="340" y="371"/>
      <point x="340" y="383" type="curve" smooth="yes"/>
      <point x="340" y="427" type="line" smooth="yes"/>
      <point x="340" y="439"/>
      <point x="334" y="446"/>
      <point x="321" y="446" type="curve" smooth="yes"/>
      <point x="42" y="446" type="line" smooth="yes"/>
      <point x="28" y="446"/>
      <point x="23" y="439"/>
      <point x="23" y="427" type="curve" smooth="yes"/>
      <point x="23" y="383" type="line" smooth="yes"/>
      <point x="23" y="370"/>
      <point x="28" y="365"/>
      <point x="42" y="365" type="curve" smooth="yes"/>
      <point x="141" y="365" type="line"/>
      <point x="141" y="361" type="line"/>
      <point x="111" y="346"/>
      <point x="100" y="314"/>
      <point x="100" y="275" type="curve" smooth="yes"/>
      <point x="100" y="245" type="line" smooth="yes"/>
      <point x="100" y="145"/>
      <point x="157" y="89"/>
      <point x="257" y="89" type="curve" smooth="yes"/>
      <point x="319" y="89" type="line" smooth="yes"/>
      <point x="379" y="89"/>
      <point x="423" y="117"/>
      <point x="451" y="147" type="curve"/>
      <point x="483" y="109"/>
      <point x="532" y="84"/>
      <point x="600" y="84" type="curve" smooth="yes"/>
      <point x="652" y="84" type="line" smooth="yes"/>
      <point x="708" y="84"/>
      <point x="748" y="104"/>
      <point x="766" y="137" type="curve"/>
      <point x="770" y="137" type="line"/>
      <point x="770" y="19" type="line" smooth="yes"/>
      <point x="770" y="5"/>
      <point x="777" y="0"/>
      <point x="789" y="0" type="curve" smooth="yes"/>
      <point x="842" y="0" type="line" smooth="yes"/>
      <point x="855" y="0"/>
      <point x="861" y="5"/>
      <point x="861" y="19" type="curve" smooth="yes"/>
      <point x="861" y="531" type="line" smooth="yes"/>
      <point x="861" y="538"/>
      <point x="865" y="543"/>
      <point x="872" y="543" type="curve" smooth="yes"/>
      <point x="938" y="543" type="line" smooth="yes"/>
      <point x="952" y="543"/>
      <point x="957" y="549"/>
      <point x="957" y="562" type="curve" smooth="yes"/>
      <point x="957" y="605" type="line" smooth="yes"/>
      <point x="957" y="617"/>
      <point x="952" y="623"/>
      <point x="938" y="623" type="curve" smooth="yes"/>
    </contour>
  </outline>
</glyph>
<glyph name="dvDD" format="2">
  <advance width="465"/>
  <outline>
    <contour>
      <point x="205" y="-52" type="line" smooth="yes"/>
      <point x="195" y="-52"/>
      <point x="190" y="-59"/>
      <point x="190" y="-67" type="curve" smooth="yes"/>
      <point x="190" y="-70"/>
      <point x="191" y="-73"/>
      <point x="193" y="-76" type="curve" smooth="yes"/>
      <point x="281" y="-219" type="line"/>
      <point x="286" y="-226"/>
      <point x="293" y="-233"/>
      <point x="303" y="-233" type="curve" smooth="yes"/>
      <point x="361" y="-233" type="line" smooth="yes"/>
      <point x="371" y="-233"/>
      <point x="378" y="-225"/>
      <point x="378" y="-215" type="curve" smooth="yes"/>
      <point x="378" y="-211"/>
      <point x="376" y="-206"/>
      <point x="373" y="-202" type="curve" smooth="yes"/>
      <point x="282" y="-69" type="line" smooth="yes"/>
      <point x="274" y="-58"/>
      <point x="266" y="-52"/>
      <point x="254" y="-52" type="curve" smooth="yes"/>
    </contour>
    <contour>
      <point x="-5" y="623" type="line" smooth="yes"/>
      <point x="-18" y="623"/>
      <point x="-24" y="617"/>
      <point x="-24" y="605" type="curve" smooth="yes"/>
      <point x="-24" y="561" type="line" smooth="yes"/>
      <point x="-24" y="548"/>
      <point x="-18" y="543"/>
      <point x="-5" y="543" type="curve" smooth="yes"/>
      <point x="286" y="543" type="line" smooth="yes"/>
      <point x="293" y="543"/>
      <point x="296" y="538"/>
      <point x="296" y="531" type="curve" smooth="yes"/>
      <point x="296" y="475" type="line" smooth="yes"/>
      <point x="296" y="467"/>
      <point x="292" y="463"/>
      <point x="285" y="463" type="curve" smooth="yes"/>
      <point x="188" y="463" type="line" smooth="yes"/>
      <point x="108" y="463"/>
      <point x="56" y="425"/>
      <point x="56" y="346" type="curve" smooth="yes"/>
      <point x="56" y="321" type="line" smooth="yes"/>
      <point x="56" y="240"/>
      <point x="99" y="207"/>
      <point x="188" y="207" type="curve" smooth="yes"/>
      <point x="272" y="207" type="line" smooth="yes"/>
      <point x="306" y="207"/>
      <point x="323" y="196"/>
      <point x="323" y="158" type="curve" smooth="yes"/>
      <point x="323" y="129" type="line" smooth="yes"/>
      <point x="323" y="92"/>
      <point x="305" y="79"/>
      <point x="272" y="79" type="curve" smooth="yes"/>
      <point x="207" y="79" type="line" smooth="yes"/>
      <point x="160" y="79"/>
      <point x="137" y="86"/>
      <point x="137" y="135" type="curve" smooth="yes"/>
      <point x="137" y="141" type="line" smooth="yes"/>
      <point x="137" y="156"/>
      <point x="130" y="164"/>
      <point x="119" y="164" type="curve" smooth="yes"/>
      <point x="71" y="164" type="line" smooth="yes"/>
      <point x="58" y="164"/>
      <point x="51" y="156"/>
      <point x="51" y="141" type="curve" smooth="yes"/>
      <point x="51" y="135" type="line" smooth="yes"/>
      <point x="51" y="32"/>
      <point x="111" y="0"/>
      <point x="198" y="0" type="curve" smooth="yes"/>
      <point x="285" y="0" type="line" smooth="yes"/>
      <point x="364" y="0"/>
      <point x="414" y="44"/>
      <point x="414" y="122" type="curve" smooth="yes"/>
      <point x="414" y="168" type="line" smooth="yes"/>
      <point x="414" y="244"/>
      <point x="365" y="281"/>
      <point x="285" y="281" type="curve" smooth="yes"/>
      <point x="195" y="281" type="line" smooth="yes"/>
      <point x="161" y="281"/>
      <point x="145" y="290"/>
      <point x="145" y="328" type="curve" smooth="yes"/>
      <point x="145" y="337" type="line" smooth="yes"/>
      <point x="145" y="374"/>
      <point x="161" y="383"/>
      <point x="195" y="383" type="curve" smooth="yes"/>
      <point x="340" y="383" type="line" smooth="yes"/>
      <point x="366" y="383"/>
      <point x="386" y="395"/>
      <point x="386" y="426" type="curve" smooth="yes"/>
      <point x="386" y="531" type="line" smooth="yes"/>
      <point x="386" y="538"/>
      <point x="390" y="543"/>
      <point x="397" y="543" type="curve" smooth="yes"/>
      <point x="469" y="543" type="line" smooth="yes"/>
      <point x="482" y="543"/>
      <point x="489" y="548"/>
      <point x="489" y="561" type="curve" smooth="yes"/>
      <point x="489" y="605" type="line" smooth="yes"/>
      <point x="489" y="617"/>
      <point x="482" y="623"/>
      <point x="469" y="623" type="curve" smooth="yes"/>
    </contour>
  </outline>
</glyph>
<glyph name="dvDDH_R" format="2">
  <advance width="486"/>
  <outline>
    <contour>
      <point x="312" y="-128" type="line" smooth="yes"/>
      <point x="304" y="-117"/>
      <point x="296" y="-111"/>
      <point x="284" y="-111" type="curve" smooth="yes"/>
      <point x="235" y="-111" type="line" smooth="yes"/>
      <point x="225" y="-111"/>
      <point x="220" y="-118"/>
      <point x="220" y="-126" type="curve" smooth="yes"/>
      <point x="220" y="-129"/>
      <point x="221" y="-132"/>
      <point x="223" y="-135" type="curve" smooth="yes"/>
      <point x="311" y="-278" type="line"/>
      <point x="316" y="-285"/>
      <point x="323" y="-292"/>
      <point x="333" y="-292" type="curve" smooth="yes"/>
      <point x="391" y="-292" type="line" smooth="yes"/>
      <point x="401" y="-292"/>
      <point x="408" y="-284"/>
      <point x="408" y="-274" type="curve" smooth="yes"/>
      <point x="408" y="-270"/>
      <point x="406" y="-265"/>
      <point x="403" y="-261" type="curve" smooth="yes"/>
    </contour>
    <contour>
      <point x="-5" y="623" type="line" smooth="yes"/>
      <point x="-19" y="623"/>
      <point x="-24" y="617"/>
      <point x="-24" y="605" type="curve" smooth="yes"/>
      <point x="-24" y="562" type="line" smooth="yes"/>
      <point x="-24" y="549"/>
      <point x="-19" y="543"/>
      <point x="-5" y="543" type="curve" smooth="yes"/>
      <point x="309" y="543" type="line" smooth="yes"/>
      <point x="316" y="543"/>
      <point x="319" y="538"/>
      <point x="319" y="531" type="curve" smooth="yes"/>
      <point x="319" y="467" type="line" smooth="yes"/>
      <point x="319" y="460"/>
      <point x="316" y="455"/>
      <point x="309" y="455" type="curve" smooth="yes"/>
      <point x="208" y="455" type="line" smooth="yes"/>
      <point x="108" y="455"/>
      <point x="54" y="400"/>
      <point x="54" y="298" type="curve" smooth="yes"/>
      <point x="54" y="193" type="line" smooth="yes"/>
      <point x="54" y="111"/>
      <point x="91" y="55"/>
      <point x="165" y="39" type="curve"/>
      <point x="83" y="-71" type="line" smooth="yes"/>
      <point x="79" y="-76"/>
      <point x="77" y="-79"/>
      <point x="77" y="-85" type="curve" smooth="yes"/>
      <point x="77" y="-94"/>
      <point x="84" y="-99"/>
      <point x="94" y="-99" type="curve" smooth="yes"/>
      <point x="160" y="-99" type="line" smooth="yes"/>
      <point x="170" y="-99"/>
      <point x="176" y="-94"/>
      <point x="181" y="-86" type="curve"/>
      <point x="258" y="23" type="line"/>
      <point x="263" y="23" type="line"/>
      <point x="339" y="-86" type="line"/>
      <point x="344" y="-94"/>
      <point x="350" y="-99"/>
      <point x="360" y="-99" type="curve" smooth="yes"/>
      <point x="426" y="-99" type="line" smooth="yes"/>
      <point x="436" y="-99"/>
      <point x="443" y="-94"/>
      <point x="443" y="-85" type="curve" smooth="yes"/>
      <point x="443" y="-79"/>
      <point x="441" y="-76"/>
      <point x="437" y="-71" type="curve" smooth="yes"/>
      <point x="355" y="40" type="line"/>
      <point x="418" y="55"/>
      <point x="448" y="102"/>
      <point x="448" y="173" type="curve" smooth="yes"/>
      <point x="448" y="193" type="line" smooth="yes"/>
      <point x="448" y="264"/>
      <point x="414" y="304"/>
      <point x="329" y="304" type="curve" smooth="yes"/>
      <point x="249" y="304"/>
      <point x="223" y="261"/>
      <point x="223" y="198" type="curve" smooth="yes"/>
      <point x="223" y="182" type="line" smooth="yes"/>
      <point x="223" y="166"/>
      <point x="229" y="160"/>
      <point x="250" y="160" type="curve" smooth="yes"/>
      <point x="280" y="160" type="line" smooth="yes"/>
      <point x="292" y="160"/>
      <point x="299" y="166"/>
      <point x="299" y="180" type="curve" smooth="yes"/>
      <point x="299" y="195" type="line" smooth="yes"/>
      <point x="299" y="220"/>
      <point x="305" y="235"/>
      <point x="332" y="235" type="curve" smooth="yes"/>
      <point x="362" y="235"/>
      <point x="367" y="220"/>
      <point x="367" y="195" type="curve" smooth="yes"/>
      <point x="367" y="177" type="line" smooth="yes"/>
      <point x="367" y="132"/>
      <point x="349" y="112"/>
      <point x="301" y="112" type="curve" smooth="yes"/>
      <point x="221" y="112" type="line" smooth="yes"/>
      <point x="166" y="112"/>
      <point x="142" y="135"/>
      <point x="142" y="189" type="curve" smooth="yes"/>
      <point x="142" y="297" type="line" smooth="yes"/>
      <point x="142" y="350"/>
      <point x="166" y="377"/>
      <point x="217" y="377" type="curve" smooth="yes"/>
      <point x="370" y="377" type="line" smooth="yes"/>
      <point x="393" y="377"/>
      <point x="409" y="391"/>
      <point x="409" y="417" type="curve" smooth="yes"/>
      <point x="409" y="531" type="line" smooth="yes"/>
      <point x="409" y="538"/>
      <point x="413" y="543"/>
      <point x="420" y="543" type="curve" smooth="yes"/>
      <point x="491" y="543" type="line" smooth="yes"/>
      <point x="504" y="543"/>
      <point x="510" y="549"/>
      <point x="510" y="562" type="curve" smooth="yes"/>
      <point x="510" y="605" type="line" smooth="yes"/>
      <point x="510" y="617"/>
      <point x="504" y="623"/>
      <point x="491" y="623" type="curve" smooth="yes"/>
    </contour>
  </outline>
</glyph>
<glyph name="dvDDH_RA" format="2">
  <advance width="486"/>
  <outline>
    <contour>
      <point x="-5" y="623" type="line" smooth="yes"/>
      <point x="-19" y="623"/>
      <point x="-24" y="617"/>
      <point x="-24" y="605" type="curve" smooth="yes"/>
      <point x="-24" y="562" type="line" smooth="yes"/>
      <point x="-24" y="549"/>
      <point x="-19" y="543"/>
      <point x="-5" y="543" type="curve" smooth="yes"/>
      <point x="309" y="543" type="line" smooth="yes"/>
      <point x="316" y="543"/>
      <point x="319" y="538"/>
      <point x="319" y="531" type="curve" smooth="yes"/>
      <point x="319" y="467" type="line" smooth="yes"/>
      <point x="319" y="460"/>
      <point x="316" y="455"/>
      <point x="309" y="455" type="curve" smooth="yes"/>
      <point x="208" y="455" type="line" smooth="yes"/>
      <point x="108" y="455"/>
      <point x="54" y="400"/>
      <point x="54" y="298" type="curve" smooth="yes"/>
      <point x="54" y="193" type="line" smooth="yes"/>
      <point x="54" y="112"/>
      <point x="90" y="56"/>
      <point x="162" y="39" type="curve"/>
      <point x="81" y="-69" type="line" smooth="yes"/>
      <point x="77" y="-74"/>
      <point x="75" y="-78"/>
      <point x="75" y="-84" type="curve" smooth="yes"/>
      <point x="75" y="-93"/>
      <point x="82" y="-97"/>
      <point x="92" y="-97" type="curve" smooth="yes"/>
      <point x="158" y="-97" type="line" smooth="yes"/>
      <point x="168" y="-97"/>
      <point x="174" y="-92"/>
      <point x="179" y="-85" type="curve" smooth="yes"/>
      <point x="256" y="24" type="line"/>
      <point x="261" y="24" type="line"/>
      <point x="337" y="-85" type="line" smooth="yes"/>
      <point x="342" y="-92"/>
      <point x="348" y="-97"/>
      <point x="358" y="-97" type="curve" smooth="yes"/>
      <point x="424" y="-97" type="line" smooth="yes"/>
      <point x="435" y="-97"/>
      <point x="441" y="-93"/>
      <point x="441" y="-84" type="curve" smooth="yes"/>
      <point x="441" y="-78"/>
      <point x="439" y="-74"/>
      <point x="436" y="-69" type="curve"/>
      <point x="354" y="40" type="line"/>
      <point x="418" y="55"/>
      <point x="448" y="102"/>
      <point x="448" y="173" type="curve" smooth="yes"/>
      <point x="448" y="193" type="line" smooth="yes"/>
      <point x="448" y="264"/>
      <point x="414" y="304"/>
      <point x="329" y="304" type="curve" smooth="yes"/>
      <point x="249" y="304"/>
      <point x="223" y="261"/>
      <point x="223" y="198" type="curve" smooth="yes"/>
      <point x="223" y="182" type="line" smooth="yes"/>
      <point x="223" y="166"/>
      <point x="229" y="160"/>
      <point x="250" y="160" type="curve" smooth="yes"/>
      <point x="280" y="160" type="line" smooth="yes"/>
      <point x="292" y="160"/>
      <point x="299" y="166"/>
      <point x="299" y="180" type="curve" smooth="yes"/>
      <point x="299" y="195" type="line" smooth="yes"/>
      <point x="299" y="220"/>
      <point x="305" y="235"/>
      <point x="332" y="235" type="curve" smooth="yes"/>
      <point x="362" y="235"/>
      <point x="367" y="220"/>
      <point x="367" y="195" type="curve" smooth="yes"/>
      <point x="367" y="177" type="line" smooth="yes"/>
      <point x="367" y="132"/>
      <point x="349" y="112"/>
      <point x="301" y="112" type="curve" smooth="yes"/>
      <point x="221" y="112" type="line" smooth="yes"/>
      <point x="166" y="112"/>
      <point x="142" y="135"/>
      <point x="142" y="189" type="curve" smooth="yes"/>
      <point x="142" y="297" type="line" smooth="yes"/>
      <point x="142" y="350"/>
      <point x="166" y="377"/>
      <point x="217" y="377" type="curve" smooth="yes"/>
      <point x="370" y="377" type="line" smooth="yes"/>
      <point x="393" y="377"/>
      <point x="409" y="391"/>
      <point x="409" y="417" type="curve" smooth="yes"/>
      <point x="409" y="531" type="line" smooth="yes"/>
      <point x="409" y="538"/>
      <point x="413" y="543"/>
      <point x="420" y="543" type="curve" smooth="yes"/>
      <point x="491" y="543" type="line" smooth="yes"/>
      <point x="504" y="543"/>
      <point x="510" y="549"/>
      <point x="510" y="562" type="curve" smooth="yes"/>
      <point x="510" y="605" type="line" smooth="yes"/>
      <point x="510" y="617"/>
      <point x="504" y="623"/>
      <point x="491" y="623" type="curve" smooth="yes"/>
    </contour>
  </outline>
</glyph>
<glyph name="dvDDH_YA" format="2">
  <advance width="996"/>
  <outline>
    <contour>
      <point x="833" y="234" type="line" smooth="yes"/>
      <point x="833" y="176"/>
      <point x="799" y="116"/>
      <point x="717" y="116" type="curve" smooth="yes"/>
      <point x="691" y="116" type="line" smooth="yes"/>
      <point x="624" y="116"/>
      <point x="590" y="137"/>
      <point x="590" y="199" type="curve"/>
      <point x="600" y="199" type="line" smooth="yes"/>
      <point x="680" y="199"/>
      <point x="744" y="230"/>
      <point x="744" y="328" type="curve" smooth="yes"/>
      <point x="744" y="417"/>
      <point x="684" y="456"/>
      <point x="600" y="456" type="curve" smooth="yes"/>
      <point x="409" y="456" type="line"/>
      <point x="409" y="531" type="line" smooth="yes"/>
      <point x="409" y="538"/>
      <point x="413" y="543"/>
      <point x="420" y="543" type="curve" smooth="yes"/>
      <point x="822" y="543" type="line" smooth="yes"/>
      <point x="829" y="543"/>
      <point x="833" y="538"/>
      <point x="833" y="531" type="curve" smooth="yes"/>
    </contour>
    <contour>
      <point x="-5" y="623" type="line" smooth="yes"/>
      <point x="-19" y="623"/>
      <point x="-24" y="617"/>
      <point x="-24" y="605" type="curve" smooth="yes"/>
      <point x="-24" y="562" type="line" smooth="yes"/>
      <point x="-24" y="549"/>
      <point x="-19" y="543"/>
      <point x="-5" y="543" type="curve" smooth="yes"/>
      <point x="309" y="543" type="line" smooth="yes"/>
      <point x="316" y="543"/>
      <point x="319" y="538"/>
      <point x="319" y="531" type="curve" smooth="yes"/>
      <point x="319" y="467" type="line" smooth="yes"/>
      <point x="319" y="460"/>
      <point x="316" y="455"/>
      <point x="309" y="455" type="curve" smooth="yes"/>
      <point x="208" y="455" type="line" smooth="yes"/>
      <point x="108" y="455"/>
      <point x="54" y="400"/>
      <point x="54" y="298" type="curve" smooth="yes"/>
      <point x="54" y="193" type="line" smooth="yes"/>
      <point x="54" y="96"/>
      <point x="106" y="34"/>
      <point x="211" y="34" type="curve" smooth="yes"/>
      <point x="302" y="34" type="line" smooth="yes"/>
      <point x="401" y="34"/>
      <point x="448" y="84"/>
      <point x="448" y="173" type="curve" smooth="yes"/>
      <point x="448" y="193" type="line" smooth="yes"/>
      <point x="448" y="264"/>
      <point x="414" y="304"/>
      <point x="329" y="304" type="curve" smooth="yes"/>
      <point x="249" y="304"/>
      <point x="223" y="261"/>
      <point x="223" y="198" type="curve" smooth="yes"/>
      <point x="223" y="182" type="line" smooth="yes"/>
      <point x="223" y="166"/>
      <point x="229" y="160"/>
      <point x="250" y="160" type="curve" smooth="yes"/>
      <point x="280" y="160" type="line" smooth="yes"/>
      <point x="292" y="160"/>
      <point x="299" y="166"/>
      <point x="299" y="180" type="curve" smooth="yes"/>
      <point x="299" y="195" type="line" smooth="yes"/>
      <point x="299" y="220"/>
      <point x="305" y="235"/>
      <point x="332" y="235" type="curve" smooth="yes"/>
      <point x="362" y="235"/>
      <point x="367" y="220"/>
      <point x="367" y="195" type="curve" smooth="yes"/>
      <point x="367" y="177" type="line" smooth="yes"/>
      <point x="367" y="132"/>
      <point x="349" y="112"/>
      <point x="301" y="112" type="curve" smooth="yes"/>
      <point x="221" y="112" type="line" smooth="yes"/>
      <point x="166" y="112"/>
      <point x="142" y="135"/>
      <point x="142" y="189" type="curve" smooth="yes"/>
      <point x="142" y="297" type="line" smooth="yes"/>
      <point x="142" y="350"/>
      <point x="166" y="377"/>
      <point x="217" y="377" type="curve" smooth="yes"/>
      <point x="603" y="377" type="line" smooth="yes"/>
      <point x="640" y="377"/>
      <point x="657" y="363"/>
      <point x="657" y="328" type="curve" smooth="yes"/>
      <point x="657" y="292"/>
      <point x="641" y="275"/>
      <point x="602" y="275" type="curve" smooth="yes"/>
      <point x="523" y="275" type="line" smooth="yes"/>
      <point x="509" y="275"/>
      <point x="503" y="268"/>
      <point x="503" y="256" type="curve" smooth="yes"/>
      <point x="503" y="195" type="line" smooth="yes"/>
      <point x="503" y="104"/>
      <point x="555" y="39"/>
      <point x="680" y="39" type="curve" smooth="yes"/>
      <point x="716" y="39" type="line" smooth="yes"/>
      <point x="772" y="39"/>
      <point x="810" y="59"/>
      <point x="829" y="93" type="curve"/>
      <point x="833" y="93" type="line"/>
      <point x="833" y="19" type="line" smooth="yes"/>
      <point x="833" y="5"/>
      <point x="839" y="0"/>
      <point x="852" y="0" type="curve" smooth="yes"/>
      <point x="905" y="0" type="line" smooth="yes"/>
      <point x="917" y="0"/>
      <point x="924" y="5"/>
      <point x="924" y="19" type="curve" smooth="yes"/>
      <point x="924" y="531" type="line" smooth="yes"/>
      <point x="924" y="538"/>
      <point x="927" y="543"/>
      <point x="935" y="543" type="curve" smooth="yes"/>
      <point x="1002" y="543" type="line" smooth="yes"/>
      <point x="1016" y="543"/>
      <point x="1021" y="549"/>
      <point x="1021" y="562" type="curve" smooth="yes"/>
      <point x="1021" y="605" type="line" smooth="yes"/>
      <point x="1021" y="617"/>
      <point x="1016" y="623"/>
      <point x="1002" y="623" type="curve" smooth="yes"/>
    </contour>
  </outline>
</glyph>
<glyph name="dvDD_R" format="2">
  <advance width="465"/>
  <outline>
    <contour>
      <point x="289" y="-170" type="line" smooth="yes"/>
      <point x="281" y="-159"/>
      <point x="273" y="-153"/>
      <point x="261" y="-153" type="curve" smooth="yes"/>
      <point x="212" y="-153" type="line" smooth="yes"/>
      <point x="202" y="-153"/>
      <point x="197" y="-160"/>
      <point x="197" y="-168" type="curve" smooth="yes"/>
      <point x="197" y="-171"/>
      <point x="198" y="-174"/>
      <point x="200" y="-177" type="curve" smooth="yes"/>
      <point x="288" y="-320" type="line"/>
      <point x="293" y="-327"/>
      <point x="300" y="-334"/>
      <point x="310" y="-334" type="curve" smooth="yes"/>
      <point x="368" y="-334" type="line" smooth="yes"/>
      <point x="378" y="-334"/>
      <point x="385" y="-326"/>
      <point x="385" y="-316" type="curve" smooth="yes"/>
      <point x="385" y="-312"/>
      <point x="383" y="-307"/>
      <point x="380" y="-303" type="curve" smooth="yes"/>
    </contour>
    <contour>
      <point x="-5" y="623" type="line" smooth="yes"/>
      <point x="-18" y="623"/>
      <point x="-24" y="617"/>
      <point x="-24" y="605" type="curve" smooth="yes"/>
      <point x="-24" y="561" type="line" smooth="yes"/>
      <point x="-24" y="548"/>
      <point x="-18" y="543"/>
      <point x="-5" y="543" type="curve" smooth="yes"/>
      <point x="286" y="543" type="line" smooth="yes"/>
      <point x="293" y="543"/>
      <point x="296" y="538"/>
      <point x="296" y="531" type="curve" smooth="yes"/>
      <point x="296" y="475" type="line" smooth="yes"/>
      <point x="296" y="467"/>
      <point x="292" y="463"/>
      <point x="285" y="463" type="curve" smooth="yes"/>
      <point x="188" y="463" type="line" smooth="yes"/>
      <point x="108" y="463"/>
      <point x="56" y="425"/>
      <point x="56" y="346" type="curve" smooth="yes"/>
      <point x="56" y="323" type="line" smooth="yes"/>
      <point x="56" y="241"/>
      <point x="99" y="209"/>
      <point x="188" y="209" type="curve" smooth="yes"/>
      <point x="273" y="209" type="line" smooth="yes"/>
      <point x="307" y="209"/>
      <point x="323" y="197"/>
      <point x="323" y="159" type="curve" smooth="yes"/>
      <point x="323" y="129" type="line" smooth="yes"/>
      <point x="323" y="92"/>
      <point x="307" y="79"/>
      <point x="273" y="79" type="curve" smooth="yes"/>
      <point x="206" y="79" type="line" smooth="yes"/>
      <point x="158" y="79"/>
      <point x="137" y="86"/>
      <point x="137" y="135" type="curve" smooth="yes"/>
      <point x="137" y="141" type="line" smooth="yes"/>
      <point x="137" y="156"/>
      <point x="130" y="164"/>
      <point x="119" y="164" type="curve" smooth="yes"/>
      <point x="71" y="164" type="line" smooth="yes"/>
      <point x="58" y="164"/>
      <point x="51" y="156"/>
      <point x="51" y="141" type="curve" smooth="yes"/>
      <point x="51" y="135" type="line" smooth="yes"/>
      <point x="51" y="55"/>
      <point x="85" y="18"/>
      <point x="143" y="5" type="curve"/>
      <point x="59" y="-106" type="line"/>
      <point x="56" y="-111"/>
      <point x="54" y="-115"/>
      <point x="54" y="-121" type="curve" smooth="yes"/>
      <point x="54" y="-130"/>
      <point x="61" y="-134"/>
      <point x="71" y="-134" type="curve" smooth="yes"/>
      <point x="137" y="-134" type="line" smooth="yes"/>
      <point x="147" y="-134"/>
      <point x="153" y="-129"/>
      <point x="158" y="-122" type="curve" smooth="yes"/>
      <point x="235" y="-12" type="line"/>
      <point x="240" y="-12" type="line"/>
      <point x="316" y="-122" type="line" smooth="yes"/>
      <point x="321" y="-129"/>
      <point x="327" y="-134"/>
      <point x="337" y="-134" type="curve" smooth="yes"/>
      <point x="403" y="-134" type="line" smooth="yes"/>
      <point x="413" y="-134"/>
      <point x="420" y="-130"/>
      <point x="420" y="-121" type="curve" smooth="yes"/>
      <point x="420" y="-115"/>
      <point x="418" y="-111"/>
      <point x="414" y="-106" type="curve" smooth="yes"/>
      <point x="331" y="5" type="line"/>
      <point x="384" y="19"/>
      <point x="414" y="60"/>
      <point x="414" y="122" type="curve" smooth="yes"/>
      <point x="414" y="169" type="line" smooth="yes"/>
      <point x="414" y="246"/>
      <point x="366" y="283"/>
      <point x="286" y="283" type="curve" smooth="yes"/>
      <point x="195" y="283" type="line" smooth="yes"/>
      <point x="161" y="283"/>
      <point x="145" y="291"/>
      <point x="145" y="329" type="curve" smooth="yes"/>
      <point x="145" y="337" type="line" smooth="yes"/>
      <point x="145" y="374"/>
      <point x="161" y="383"/>
      <point x="195" y="383" type="curve" smooth="yes"/>
      <point x="340" y="383" type="line" smooth="yes"/>
      <point x="366" y="383"/>
      <point x="386" y="395"/>
      <point x="386" y="426" type="curve" smooth="yes"/>
      <point x="386" y="531" type="line" smooth="yes"/>
      <point x="386" y="538"/>
      <point x="390" y="543"/>
      <point x="397" y="543" type="curve" smooth="yes"/>
      <point x="469" y="543" type="line" smooth="yes"/>
      <point x="482" y="543"/>
      <point x="489" y="548"/>
      <point x="489" y="561" type="curve" smooth="yes"/>
      <point x="489" y="605" type="line" smooth="yes"/>
      <point x="489" y="617"/>
      <point x="482" y="623"/>
      <point x="469" y="623" type="curve" smooth="yes"/>
    </contour>
  </outline>
</glyph>
<glyph name="dvD_BA" format="2">
  <advance width="482"/>
  <outline>
    <contour>
      <point x="265" y="71" type="line" smooth="yes"/>
      <point x="299" y="71"/>
      <point x="324" y="82"/>
      <point x="336" y="103" type="curve"/>
      <point x="340" y="103" type="line"/>
      <point x="340" y="-7" type="line" smooth="yes"/>
      <point x="340" y="-18"/>
      <point x="339" y="-28"/>
      <point x="336" y="-37" type="curve"/>
      <point x="207" y="71" type="line"/>
      <point x="208" y="71" type="line"/>
    </contour>
    <contour>
      <point x="222" y="-81" type="line" smooth="yes"/>
      <point x="164" y="-81"/>
      <point x="143" y="-61"/>
      <point x="143" y="-18" type="curve" smooth="yes"/>
      <point x="143" y="8" type="line" smooth="yes"/>
      <point x="143" y="23"/>
      <point x="146" y="36"/>
      <point x="153" y="46" type="curve"/>
      <point x="297" y="-75" type="line"/>
      <point x="287" y="-79"/>
      <point x="274" y="-81"/>
      <point x="258" y="-81" type="curve" smooth="yes"/>
    </contour>
    <contour>
      <point x="-5" y="623" type="line" smooth="yes"/>
      <point x="-19" y="623"/>
      <point x="-24" y="617"/>
      <point x="-24" y="605" type="curve" smooth="yes"/>
      <point x="-24" y="562" type="line" smooth="yes"/>
      <point x="-24" y="549"/>
      <point x="-19" y="543"/>
      <point x="-5" y="543" type="curve" smooth="yes"/>
      <point x="316" y="543" type="line" smooth="yes"/>
      <point x="323" y="543"/>
      <point x="326" y="538"/>
      <point x="326" y="531" type="curve" smooth="yes"/>
      <point x="326" y="474" type="line" smooth="yes"/>
      <point x="326" y="467"/>
      <point x="323" y="462"/>
      <point x="316" y="462" type="curve" smooth="yes"/>
      <point x="205" y="462" type="line" smooth="yes"/>
      <point x="104" y="462"/>
      <point x="51" y="407"/>
      <point x="51" y="305" type="curve" smooth="yes"/>
      <point x="51" y="230" type="line" smooth="yes"/>
      <point x="51" y="176"/>
      <point x="67" y="132"/>
      <point x="100" y="105" type="curve"/>
      <point x="73" y="86"/>
      <point x="53" y="53"/>
      <point x="53" y="3" type="curve" smooth="yes"/>
      <point x="53" y="-26" type="line" smooth="yes"/>
      <point x="53" y="-112"/>
      <point x="118" y="-155"/>
      <point x="211" y="-155" type="curve" smooth="yes"/>
      <point x="273" y="-155" type="line" smooth="yes"/>
      <point x="366" y="-155"/>
      <point x="425" y="-99"/>
      <point x="425" y="-1" type="curve" smooth="yes"/>
      <point x="425" y="254" type="line" smooth="yes"/>
      <point x="425" y="268"/>
      <point x="419" y="273"/>
      <point x="406" y="273" type="curve" smooth="yes"/>
      <point x="355" y="273" type="line" smooth="yes"/>
      <point x="343" y="273"/>
      <point x="336" y="268"/>
      <point x="336" y="254" type="curve" smooth="yes"/>
      <point x="336" y="212" type="line" smooth="yes"/>
      <point x="336" y="171"/>
      <point x="314" y="152"/>
      <point x="277" y="152" type="curve" smooth="yes"/>
      <point x="221" y="152" type="line" smooth="yes"/>
      <point x="167" y="152"/>
      <point x="142" y="174"/>
      <point x="142" y="228" type="curve" smooth="yes"/>
      <point x="142" y="301" type="line" smooth="yes"/>
      <point x="142" y="354"/>
      <point x="166" y="381"/>
      <point x="217" y="381" type="curve" smooth="yes"/>
      <point x="376" y="381" type="line" smooth="yes"/>
      <point x="399" y="381"/>
      <point x="416" y="395"/>
      <point x="416" y="422" type="curve" smooth="yes"/>
      <point x="416" y="531" type="line" smooth="yes"/>
      <point x="416" y="538"/>
      <point x="420" y="543"/>
      <point x="427" y="543" type="curve" smooth="yes"/>
      <point x="487" y="543" type="line" smooth="yes"/>
      <point x="500" y="543"/>
      <point x="506" y="549"/>
      <point x="506" y="562" type="curve" smooth="yes"/>
      <point x="506" y="605" type="line" smooth="yes"/>
      <point x="506" y="617"/>
      <point x="500" y="623"/>
      <point x="487" y="623" type="curve" smooth="yes"/>
    </contour>
  </outline>
</glyph>
